%TF.GenerationSoftware,KiCad,Pcbnew,7.0.10*%
%TF.CreationDate,2024-03-05T20:04:54+01:00*%
%TF.ProjectId,spaceEggs,73706163-6545-4676-9773-2e6b69636164,rev?*%
%TF.SameCoordinates,Original*%
%TF.FileFunction,Copper,L1,Top*%
%TF.FilePolarity,Positive*%
%FSLAX46Y46*%
G04 Gerber Fmt 4.6, Leading zero omitted, Abs format (unit mm)*
G04 Created by KiCad (PCBNEW 7.0.10) date 2024-03-05 20:04:54*
%MOMM*%
%LPD*%
G01*
G04 APERTURE LIST*
G04 Aperture macros list*
%AMFreePoly0*
4,1,101,0.523063,1.238106,0.538902,1.238106,0.551715,1.228796,0.566779,1.223902,0.576088,1.211088,0.588902,1.201779,0.593796,1.186715,0.603106,1.173902,0.603106,1.158062,0.608000,1.143000,0.608000,0.609600,0.609600,0.609600,0.609600,0.608000,1.143000,0.608000,1.158063,0.603106,1.173902,0.603106,1.186715,0.593796,1.201779,0.588902,1.211088,0.576088,1.223902,0.566779,
1.228796,0.551715,1.238106,0.538902,1.238106,0.523062,1.243000,0.508000,1.243000,-0.508000,1.238106,-0.523062,1.238106,-0.538902,1.228796,-0.551715,1.223902,-0.566779,1.211088,-0.576088,1.201779,-0.588902,1.186715,-0.593796,1.173902,-0.603106,1.158063,-0.603106,1.143000,-0.608000,0.609600,-0.608000,0.609600,-0.609600,0.608000,-0.609600,0.608000,-1.143000,0.603106,-1.158062,
0.603106,-1.173902,0.593796,-1.186715,0.588902,-1.201779,0.576088,-1.211088,0.566779,-1.223902,0.551715,-1.228796,0.538902,-1.238106,0.523063,-1.238106,0.508000,-1.243000,-0.508000,-1.243000,-0.523063,-1.238106,-0.538902,-1.238106,-0.551715,-1.228796,-0.566779,-1.223902,-0.576088,-1.211088,-0.588902,-1.201779,-0.593796,-1.186715,-0.603106,-1.173902,-0.603106,-1.158062,-0.608000,-1.143000,
-0.608000,-0.609600,-0.609600,-0.609600,-0.609600,-0.608000,-1.143000,-0.608000,-1.158063,-0.603106,-1.173902,-0.603106,-1.186715,-0.593796,-1.201779,-0.588902,-1.211088,-0.576088,-1.223902,-0.566779,-1.228796,-0.551715,-1.238106,-0.538902,-1.238106,-0.523062,-1.243000,-0.508000,-1.243000,0.508000,-1.238106,0.523062,-1.238106,0.538902,-1.228796,0.551715,-1.223902,0.566779,-1.211088,0.576088,
-1.201779,0.588902,-1.186715,0.593796,-1.173902,0.603106,-1.158063,0.603106,-1.143000,0.608000,-0.609600,0.608000,-0.609600,0.609600,-0.608000,0.609600,-0.608000,1.143000,-0.603106,1.158062,-0.603106,1.173902,-0.593796,1.186715,-0.588902,1.201779,-0.576088,1.211088,-0.566779,1.223902,-0.551715,1.228796,-0.538902,1.238106,-0.523063,1.238106,-0.508000,1.243000,0.508000,1.243000,
0.523063,1.238106,0.523063,1.238106,$1*%
G04 Aperture macros list end*
%TA.AperFunction,SMDPad,CuDef*%
%ADD10R,1.524000X5.000000*%
%TD*%
%TA.AperFunction,ComponentPad*%
%ADD11R,1.800000X1.800000*%
%TD*%
%TA.AperFunction,ComponentPad*%
%ADD12FreePoly0,180.000000*%
%TD*%
%TA.AperFunction,ComponentPad*%
%ADD13C,1.600000*%
%TD*%
%TA.AperFunction,ComponentPad*%
%ADD14O,1.600000X1.600000*%
%TD*%
%TA.AperFunction,ComponentPad*%
%ADD15R,3.000000X3.000000*%
%TD*%
%TA.AperFunction,ComponentPad*%
%ADD16C,3.000000*%
%TD*%
%TA.AperFunction,ViaPad*%
%ADD17C,0.800000*%
%TD*%
%TA.AperFunction,Conductor*%
%ADD18C,1.000000*%
%TD*%
G04 APERTURE END LIST*
D10*
%TO.P,D4,1,K*%
%TO.N,GND*%
X112395000Y-71265000D03*
%TO.P,D4,2,A*%
%TO.N,VCC*%
X109855000Y-71265000D03*
%TD*%
D11*
%TO.P,D2,1,K*%
%TO.N,GND*%
X121000000Y-63000000D03*
D12*
%TO.P,D2,2,A*%
%TO.N,VCC*%
X118460000Y-63000000D03*
%TD*%
D10*
%TO.P,D5,1,K*%
%TO.N,GND*%
X133350000Y-53340000D03*
%TO.P,D5,2,A*%
%TO.N,VCC*%
X130810000Y-53340000D03*
%TD*%
D13*
%TO.P,SW1,1,1*%
%TO.N,VCC*%
X101600000Y-52070000D03*
D14*
%TO.P,SW1,2,2*%
%TO.N,+3V0*%
X101600000Y-72390000D03*
%TD*%
D11*
%TO.P,D3,1,K*%
%TO.N,GND*%
X121275000Y-46500000D03*
D12*
%TO.P,D3,2,A*%
%TO.N,VCC*%
X118735000Y-46500000D03*
%TD*%
D15*
%TO.P,BT1,1,+*%
%TO.N,+3V0*%
X108549520Y-62500000D03*
D16*
%TO.P,BT1,2,-*%
%TO.N,GND*%
X128549520Y-62500000D03*
%TD*%
D11*
%TO.P,D1,1,K*%
%TO.N,GND*%
X121500000Y-79500000D03*
D12*
%TO.P,D1,2,A*%
%TO.N,VCC*%
X118960000Y-79500000D03*
%TD*%
D17*
%TO.N,VCC*%
X130810000Y-53340000D03*
X109855000Y-71120000D03*
%TD*%
D18*
%TO.N,VCC*%
X130810000Y-53340000D02*
X130810000Y-54610000D01*
X109855000Y-71265000D02*
X109855000Y-71120000D01*
%TD*%
%TA.AperFunction,Conductor*%
%TO.N,GND*%
G36*
X120471700Y-40105521D02*
G01*
X121403880Y-40144591D01*
X121409057Y-40144916D01*
X122338843Y-40222993D01*
X122343921Y-40223527D01*
X123269625Y-40340470D01*
X123274699Y-40341218D01*
X124194755Y-40496835D01*
X124199753Y-40497789D01*
X125112412Y-40691780D01*
X125117447Y-40692961D01*
X126021170Y-40924998D01*
X126026114Y-40926378D01*
X126919371Y-41196068D01*
X126924256Y-41197656D01*
X127746458Y-41483976D01*
X127805399Y-41504502D01*
X127810267Y-41506313D01*
X128677725Y-41849764D01*
X128682513Y-41851776D01*
X129534876Y-42231272D01*
X129539571Y-42233481D01*
X130375289Y-42648336D01*
X130379865Y-42650728D01*
X131197486Y-43100219D01*
X131201973Y-43102810D01*
X132000033Y-43586133D01*
X132004415Y-43588914D01*
X132781550Y-44105240D01*
X132785778Y-44108178D01*
X133540614Y-44656599D01*
X133544740Y-44659731D01*
X133836519Y-44890992D01*
X134275946Y-45239278D01*
X134279948Y-45242589D01*
X134777593Y-45672144D01*
X134897340Y-45775507D01*
X134986217Y-45852223D01*
X134990075Y-45855696D01*
X135670225Y-46494400D01*
X135673914Y-46498012D01*
X136326732Y-47164648D01*
X136330261Y-47168406D01*
X136657027Y-47531317D01*
X136954562Y-47861763D01*
X136957956Y-47865694D01*
X137552693Y-48584607D01*
X137555919Y-48588678D01*
X138120004Y-49331833D01*
X138123057Y-49336035D01*
X138655531Y-50102165D01*
X138658405Y-50106490D01*
X139158348Y-50894274D01*
X139161038Y-50898717D01*
X139627531Y-51706708D01*
X139630033Y-51711259D01*
X140052438Y-52519243D01*
X140062290Y-52538087D01*
X140064600Y-52542740D01*
X140461856Y-53386956D01*
X140463968Y-53391700D01*
X140825520Y-54251798D01*
X140827432Y-54256627D01*
X141152654Y-55131119D01*
X141154362Y-55136024D01*
X141442676Y-56023364D01*
X141444177Y-56028336D01*
X141695078Y-56926963D01*
X141696370Y-56931994D01*
X141909422Y-57840348D01*
X141910502Y-57845428D01*
X142085331Y-58761915D01*
X142086197Y-58767036D01*
X142222493Y-59690025D01*
X142223144Y-59695177D01*
X142320672Y-60623089D01*
X142321106Y-60628265D01*
X142379688Y-61559401D01*
X142379906Y-61564590D01*
X142399445Y-62497403D01*
X142399445Y-62502597D01*
X142379906Y-63435409D01*
X142379688Y-63440598D01*
X142321106Y-64371734D01*
X142320672Y-64376910D01*
X142223144Y-65304822D01*
X142222493Y-65309974D01*
X142086197Y-66232963D01*
X142085331Y-66238084D01*
X141910502Y-67154571D01*
X141909422Y-67159651D01*
X141696370Y-68068005D01*
X141695078Y-68073036D01*
X141444177Y-68971663D01*
X141442676Y-68976635D01*
X141154362Y-69863975D01*
X141152654Y-69868880D01*
X140827432Y-70743372D01*
X140825520Y-70748201D01*
X140463968Y-71608299D01*
X140461856Y-71613043D01*
X140064600Y-72457259D01*
X140062290Y-72461912D01*
X139630033Y-73288740D01*
X139627531Y-73293291D01*
X139161038Y-74101282D01*
X139158348Y-74105725D01*
X138658405Y-74893509D01*
X138655531Y-74897834D01*
X138123057Y-75663964D01*
X138120004Y-75668166D01*
X137555919Y-76411321D01*
X137552693Y-76415392D01*
X136957956Y-77134305D01*
X136954562Y-77138236D01*
X136330274Y-77831579D01*
X136326719Y-77835365D01*
X135673925Y-78501976D01*
X135670214Y-78505610D01*
X134990077Y-79144301D01*
X134986217Y-79147776D01*
X134279948Y-79757410D01*
X134275946Y-79760721D01*
X133544751Y-80340260D01*
X133540614Y-80343400D01*
X132785796Y-80891808D01*
X132781531Y-80894772D01*
X132004418Y-81411083D01*
X132000033Y-81413866D01*
X131201973Y-81897189D01*
X131197475Y-81899786D01*
X130379878Y-82349264D01*
X130375276Y-82351670D01*
X129539576Y-82766515D01*
X129534876Y-82768727D01*
X128682513Y-83148223D01*
X128677725Y-83150235D01*
X127810267Y-83493686D01*
X127805399Y-83495497D01*
X126924283Y-83802334D01*
X126919344Y-83803939D01*
X126026143Y-84073613D01*
X126021141Y-84075009D01*
X125117458Y-84307035D01*
X125112401Y-84308221D01*
X124199782Y-84502204D01*
X124194710Y-84503172D01*
X123274745Y-84658773D01*
X123269616Y-84659530D01*
X122343965Y-84776467D01*
X122338800Y-84777010D01*
X121409061Y-84855082D01*
X121403878Y-84855408D01*
X120525393Y-84892227D01*
X120471699Y-84894478D01*
X120466509Y-84894587D01*
X119533491Y-84894587D01*
X119528300Y-84894478D01*
X119472103Y-84892122D01*
X118596121Y-84855408D01*
X118590938Y-84855082D01*
X117661199Y-84777010D01*
X117656034Y-84776467D01*
X116730383Y-84659530D01*
X116725261Y-84658774D01*
X115805281Y-84503170D01*
X115800217Y-84502204D01*
X114887598Y-84308221D01*
X114882541Y-84307035D01*
X113978858Y-84075009D01*
X113973856Y-84073613D01*
X113080655Y-83803939D01*
X113075716Y-83802334D01*
X112194600Y-83495497D01*
X112189732Y-83493686D01*
X111322274Y-83150235D01*
X111317486Y-83148223D01*
X110465123Y-82768727D01*
X110460423Y-82766515D01*
X109624723Y-82351670D01*
X109620121Y-82349264D01*
X108802524Y-81899786D01*
X108798026Y-81897189D01*
X107999966Y-81413866D01*
X107995581Y-81411083D01*
X107470851Y-81062454D01*
X107218459Y-80894766D01*
X107214203Y-80891808D01*
X107195704Y-80878368D01*
X106459382Y-80343398D01*
X106455248Y-80340260D01*
X106427459Y-80318235D01*
X106114034Y-80069817D01*
X106077055Y-80040508D01*
X117203271Y-80040508D01*
X117204107Y-80069817D01*
X117204108Y-80069826D01*
X117218629Y-80141482D01*
X117233150Y-80213137D01*
X117233151Y-80213138D01*
X117243525Y-80232800D01*
X117250642Y-80248991D01*
X117253222Y-80256223D01*
X117292808Y-80326308D01*
X117294509Y-80329422D01*
X117301387Y-80342457D01*
X117303724Y-80346210D01*
X117303635Y-80346264D01*
X117307309Y-80351981D01*
X117325134Y-80383540D01*
X117325135Y-80383541D01*
X117341062Y-80399017D01*
X117352848Y-80412232D01*
X117357499Y-80418264D01*
X117411147Y-80467501D01*
X117416934Y-80472812D01*
X117419489Y-80475225D01*
X117430002Y-80485440D01*
X117430005Y-80485442D01*
X117430006Y-80485443D01*
X117433393Y-80488294D01*
X117433323Y-80488376D01*
X117438539Y-80492642D01*
X117465223Y-80517132D01*
X117465225Y-80517132D01*
X117465228Y-80517135D01*
X117485175Y-80526942D01*
X117500450Y-80535857D01*
X117506765Y-80540176D01*
X117580066Y-80573651D01*
X117583208Y-80575141D01*
X117596448Y-80581651D01*
X117596457Y-80581654D01*
X117600559Y-80583319D01*
X117600519Y-80583417D01*
X117606831Y-80585873D01*
X117639774Y-80600919D01*
X117735736Y-80614716D01*
X117736880Y-80614881D01*
X117800436Y-80643906D01*
X117838210Y-80702684D01*
X117840763Y-80712991D01*
X117849719Y-80757187D01*
X117868150Y-80848137D01*
X117868151Y-80848138D01*
X117878525Y-80867800D01*
X117885642Y-80883991D01*
X117888222Y-80891223D01*
X117927808Y-80961308D01*
X117929509Y-80964422D01*
X117936387Y-80977457D01*
X117938724Y-80981210D01*
X117938635Y-80981264D01*
X117942309Y-80986981D01*
X117960134Y-81018540D01*
X117960135Y-81018541D01*
X117976062Y-81034017D01*
X117987848Y-81047232D01*
X117992499Y-81053264D01*
X118051207Y-81107145D01*
X118051934Y-81107812D01*
X118054489Y-81110225D01*
X118065002Y-81120440D01*
X118065005Y-81120442D01*
X118065006Y-81120443D01*
X118068393Y-81123294D01*
X118068323Y-81123376D01*
X118073539Y-81127642D01*
X118100223Y-81152132D01*
X118100225Y-81152132D01*
X118100228Y-81152135D01*
X118120175Y-81161942D01*
X118135450Y-81170857D01*
X118141765Y-81175176D01*
X118215066Y-81208651D01*
X118218208Y-81210141D01*
X118231448Y-81216651D01*
X118231457Y-81216654D01*
X118235559Y-81218319D01*
X118235519Y-81218417D01*
X118241831Y-81220873D01*
X118274774Y-81235919D01*
X118419508Y-81256729D01*
X118419509Y-81256729D01*
X119500509Y-81256729D01*
X119529817Y-81255892D01*
X119529825Y-81255891D01*
X119529827Y-81255891D01*
X119673137Y-81226850D01*
X119692796Y-81216475D01*
X119708996Y-81209355D01*
X119716221Y-81206778D01*
X119716225Y-81206775D01*
X119716227Y-81206775D01*
X119755225Y-81184747D01*
X119786316Y-81167185D01*
X119789376Y-81165514D01*
X119802460Y-81158611D01*
X119802479Y-81158597D01*
X119806225Y-81156266D01*
X119806281Y-81156356D01*
X119811980Y-81152690D01*
X119837632Y-81138201D01*
X119843536Y-81134868D01*
X119843536Y-81134867D01*
X119843539Y-81134866D01*
X119859014Y-81118940D01*
X119872240Y-81107145D01*
X119878264Y-81102501D01*
X119932816Y-81043059D01*
X119935206Y-81040529D01*
X119945440Y-81029998D01*
X119945442Y-81029994D01*
X119945447Y-81029990D01*
X119948291Y-81026611D01*
X119948374Y-81026681D01*
X119952650Y-81021450D01*
X119955322Y-81018539D01*
X119977135Y-80994772D01*
X119986945Y-80974817D01*
X119995856Y-80959551D01*
X120000176Y-80953235D01*
X120033653Y-80879929D01*
X120035157Y-80876759D01*
X120039562Y-80867800D01*
X120041651Y-80863552D01*
X120041653Y-80863544D01*
X120043325Y-80859428D01*
X120043423Y-80859468D01*
X120045879Y-80853155D01*
X120060919Y-80820226D01*
X120060918Y-80820226D01*
X120064605Y-80812156D01*
X120067944Y-80813681D01*
X120096293Y-80769534D01*
X120159838Y-80740485D01*
X120229000Y-80750402D01*
X120251842Y-80763950D01*
X120357906Y-80843350D01*
X120357913Y-80843354D01*
X120492620Y-80893596D01*
X120492627Y-80893598D01*
X120552155Y-80899999D01*
X120552172Y-80900000D01*
X121250000Y-80900000D01*
X121250000Y-79874189D01*
X121302547Y-79910016D01*
X121432173Y-79950000D01*
X121533724Y-79950000D01*
X121634138Y-79934865D01*
X121750000Y-79879068D01*
X121750000Y-80900000D01*
X122447828Y-80900000D01*
X122447844Y-80899999D01*
X122507372Y-80893598D01*
X122507379Y-80893596D01*
X122642086Y-80843354D01*
X122642093Y-80843350D01*
X122757187Y-80757190D01*
X122757190Y-80757187D01*
X122843350Y-80642093D01*
X122843354Y-80642086D01*
X122893596Y-80507379D01*
X122893598Y-80507372D01*
X122899999Y-80447844D01*
X122900000Y-80447827D01*
X122900000Y-79750000D01*
X121875278Y-79750000D01*
X121923625Y-79666260D01*
X121953810Y-79534008D01*
X121943673Y-79398735D01*
X121894113Y-79272459D01*
X121876203Y-79250000D01*
X122900000Y-79250000D01*
X122900000Y-78552172D01*
X122899999Y-78552155D01*
X122893598Y-78492627D01*
X122893596Y-78492620D01*
X122843354Y-78357913D01*
X122843350Y-78357906D01*
X122757190Y-78242812D01*
X122757187Y-78242809D01*
X122642093Y-78156649D01*
X122642086Y-78156645D01*
X122507379Y-78106403D01*
X122507372Y-78106401D01*
X122447844Y-78100000D01*
X121750000Y-78100000D01*
X121750000Y-79125810D01*
X121697453Y-79089984D01*
X121567827Y-79050000D01*
X121466276Y-79050000D01*
X121365862Y-79065135D01*
X121250000Y-79120931D01*
X121250000Y-78100000D01*
X120552155Y-78100000D01*
X120492627Y-78106401D01*
X120492620Y-78106403D01*
X120357913Y-78156645D01*
X120357910Y-78156647D01*
X120249917Y-78237491D01*
X120184453Y-78261908D01*
X120116180Y-78247056D01*
X120066774Y-78197651D01*
X120054076Y-78162850D01*
X120051850Y-78151863D01*
X120041472Y-78132196D01*
X120034359Y-78116013D01*
X120031778Y-78108779D01*
X119992188Y-78038686D01*
X119990488Y-78035572D01*
X119983610Y-78022538D01*
X119981267Y-78018774D01*
X119981354Y-78018719D01*
X119977689Y-78013015D01*
X119959867Y-77981463D01*
X119959866Y-77981461D01*
X119956855Y-77978535D01*
X119943936Y-77965981D01*
X119932151Y-77952766D01*
X119927509Y-77946745D01*
X119927503Y-77946738D01*
X119927501Y-77946736D01*
X119927496Y-77946732D01*
X119927491Y-77946726D01*
X119868064Y-77892185D01*
X119865499Y-77889763D01*
X119855002Y-77879564D01*
X119854998Y-77879560D01*
X119854992Y-77879556D01*
X119851606Y-77876705D01*
X119851675Y-77876622D01*
X119846454Y-77872353D01*
X119819773Y-77847866D01*
X119819774Y-77847866D01*
X119811185Y-77843643D01*
X119799819Y-77838055D01*
X119784541Y-77829136D01*
X119778237Y-77824825D01*
X119704976Y-77791367D01*
X119701786Y-77789855D01*
X119688546Y-77783346D01*
X119684440Y-77781680D01*
X119684479Y-77781582D01*
X119678162Y-77779122D01*
X119645230Y-77764082D01*
X119645222Y-77764080D01*
X119558908Y-77751670D01*
X119500492Y-77743271D01*
X118419508Y-77743271D01*
X118419491Y-77743271D01*
X118390182Y-77744107D01*
X118390170Y-77744109D01*
X118246862Y-77773149D01*
X118227203Y-77783523D01*
X118211016Y-77790639D01*
X118203784Y-77793219D01*
X118203774Y-77793224D01*
X118133674Y-77832817D01*
X118130571Y-77834511D01*
X118117545Y-77841385D01*
X118113779Y-77843730D01*
X118113725Y-77843643D01*
X118108030Y-77847300D01*
X118076464Y-77865130D01*
X118076460Y-77865133D01*
X118060979Y-77881065D01*
X118047772Y-77892844D01*
X118041740Y-77897494D01*
X117987173Y-77956949D01*
X117984750Y-77959514D01*
X117974562Y-77969998D01*
X117971716Y-77973380D01*
X117971635Y-77973312D01*
X117967362Y-77978535D01*
X117942863Y-78005230D01*
X117933053Y-78025181D01*
X117924144Y-78040444D01*
X117919829Y-78046755D01*
X117919827Y-78046759D01*
X117886354Y-78120050D01*
X117884843Y-78123237D01*
X117878351Y-78136442D01*
X117876686Y-78140547D01*
X117876589Y-78140507D01*
X117874129Y-78146821D01*
X117859080Y-78179774D01*
X117845118Y-78276881D01*
X117816092Y-78340437D01*
X117757314Y-78378210D01*
X117747008Y-78380763D01*
X117611861Y-78408150D01*
X117592203Y-78418523D01*
X117576016Y-78425639D01*
X117568784Y-78428219D01*
X117568774Y-78428224D01*
X117498674Y-78467817D01*
X117495571Y-78469511D01*
X117482545Y-78476385D01*
X117478779Y-78478730D01*
X117478725Y-78478643D01*
X117473030Y-78482300D01*
X117441464Y-78500130D01*
X117441460Y-78500133D01*
X117425979Y-78516065D01*
X117412772Y-78527844D01*
X117406740Y-78532494D01*
X117352173Y-78591949D01*
X117349750Y-78594514D01*
X117339562Y-78604998D01*
X117336716Y-78608380D01*
X117336635Y-78608312D01*
X117332362Y-78613535D01*
X117307863Y-78640230D01*
X117298053Y-78660181D01*
X117289144Y-78675444D01*
X117284829Y-78681755D01*
X117284827Y-78681759D01*
X117251354Y-78755050D01*
X117249843Y-78758237D01*
X117243351Y-78771442D01*
X117241686Y-78775547D01*
X117241589Y-78775507D01*
X117239129Y-78781821D01*
X117224080Y-78814774D01*
X117203271Y-78959509D01*
X117203271Y-80040508D01*
X106077055Y-80040508D01*
X105724053Y-79760721D01*
X105720051Y-79757410D01*
X105013782Y-79147776D01*
X105009922Y-79144301D01*
X104909502Y-79050000D01*
X104329774Y-78505599D01*
X104326074Y-78501976D01*
X103673265Y-77835349D01*
X103669740Y-77831595D01*
X103045437Y-77138236D01*
X103042043Y-77134305D01*
X102447306Y-76415392D01*
X102444080Y-76411321D01*
X101879995Y-75668166D01*
X101876942Y-75663964D01*
X101344460Y-74897822D01*
X101341594Y-74893509D01*
X100841651Y-74105725D01*
X100838961Y-74101282D01*
X100672899Y-73813654D01*
X108584500Y-73813654D01*
X108591011Y-73874202D01*
X108591011Y-73874204D01*
X108640575Y-74007086D01*
X108642111Y-74011204D01*
X108729739Y-74128261D01*
X108846796Y-74215889D01*
X108961297Y-74258596D01*
X108978463Y-74264999D01*
X108983799Y-74266989D01*
X109011050Y-74269918D01*
X109044345Y-74273499D01*
X109044362Y-74273500D01*
X110665638Y-74273500D01*
X110665654Y-74273499D01*
X110692692Y-74270591D01*
X110726201Y-74266989D01*
X110731537Y-74264999D01*
X110748703Y-74258596D01*
X110863204Y-74215889D01*
X110980261Y-74128261D01*
X111031044Y-74060422D01*
X111086974Y-74018554D01*
X111156665Y-74013570D01*
X111217989Y-74047054D01*
X111229575Y-74060425D01*
X111275813Y-74122190D01*
X111390906Y-74208350D01*
X111390913Y-74208354D01*
X111525620Y-74258596D01*
X111525627Y-74258598D01*
X111585155Y-74264999D01*
X111585172Y-74265000D01*
X112145000Y-74265000D01*
X112145000Y-71515000D01*
X112645000Y-71515000D01*
X112645000Y-74265000D01*
X113204828Y-74265000D01*
X113204844Y-74264999D01*
X113264372Y-74258598D01*
X113264379Y-74258596D01*
X113399086Y-74208354D01*
X113399093Y-74208350D01*
X113514187Y-74122190D01*
X113514190Y-74122187D01*
X113600350Y-74007093D01*
X113600354Y-74007086D01*
X113650596Y-73872379D01*
X113650598Y-73872372D01*
X113656999Y-73812844D01*
X113657000Y-73812827D01*
X113657000Y-71515000D01*
X112645000Y-71515000D01*
X112145000Y-71515000D01*
X112145000Y-68265000D01*
X112645000Y-68265000D01*
X112645000Y-71015000D01*
X113657000Y-71015000D01*
X113657000Y-68717172D01*
X113656999Y-68717155D01*
X113650598Y-68657627D01*
X113650596Y-68657620D01*
X113600354Y-68522913D01*
X113600350Y-68522906D01*
X113514190Y-68407812D01*
X113514187Y-68407809D01*
X113399093Y-68321649D01*
X113399086Y-68321645D01*
X113264379Y-68271403D01*
X113264372Y-68271401D01*
X113204844Y-68265000D01*
X112645000Y-68265000D01*
X112145000Y-68265000D01*
X111585155Y-68265000D01*
X111525627Y-68271401D01*
X111525620Y-68271403D01*
X111390913Y-68321645D01*
X111390906Y-68321649D01*
X111275812Y-68407809D01*
X111229574Y-68469575D01*
X111173640Y-68511445D01*
X111103948Y-68516429D01*
X111042625Y-68482943D01*
X111031046Y-68469580D01*
X110980261Y-68401739D01*
X110863204Y-68314111D01*
X110726203Y-68263011D01*
X110665654Y-68256500D01*
X110665638Y-68256500D01*
X109044362Y-68256500D01*
X109044345Y-68256500D01*
X108983797Y-68263011D01*
X108983795Y-68263011D01*
X108846795Y-68314111D01*
X108729739Y-68401739D01*
X108642111Y-68518795D01*
X108591011Y-68655795D01*
X108591011Y-68655797D01*
X108584500Y-68716345D01*
X108584500Y-73813654D01*
X100672899Y-73813654D01*
X100563567Y-73624285D01*
X100460471Y-73445718D01*
X100443999Y-73377819D01*
X100466852Y-73311792D01*
X100521773Y-73268601D01*
X100591326Y-73261960D01*
X100653429Y-73293976D01*
X100655540Y-73296038D01*
X100755700Y-73396198D01*
X100943251Y-73527523D01*
X101068091Y-73585736D01*
X101150750Y-73624281D01*
X101150752Y-73624281D01*
X101150757Y-73624284D01*
X101371913Y-73683543D01*
X101534832Y-73697796D01*
X101599998Y-73703498D01*
X101600000Y-73703498D01*
X101600002Y-73703498D01*
X101657021Y-73698509D01*
X101828087Y-73683543D01*
X102049243Y-73624284D01*
X102256749Y-73527523D01*
X102444300Y-73396198D01*
X102606198Y-73234300D01*
X102737523Y-73046749D01*
X102834284Y-72839243D01*
X102893543Y-72618087D01*
X102913498Y-72390000D01*
X102893543Y-72161913D01*
X102834284Y-71940757D01*
X102737523Y-71733251D01*
X102606198Y-71545700D01*
X102444300Y-71383802D01*
X102256749Y-71252477D01*
X102256745Y-71252475D01*
X102049249Y-71155718D01*
X102049238Y-71155714D01*
X101828089Y-71096457D01*
X101828081Y-71096456D01*
X101600002Y-71076502D01*
X101599998Y-71076502D01*
X101371918Y-71096456D01*
X101371910Y-71096457D01*
X101150761Y-71155714D01*
X101150750Y-71155718D01*
X100943254Y-71252475D01*
X100943252Y-71252476D01*
X100943251Y-71252477D01*
X100755700Y-71383802D01*
X100755698Y-71383803D01*
X100755695Y-71383806D01*
X100593806Y-71545695D01*
X100593803Y-71545698D01*
X100593802Y-71545700D01*
X100546648Y-71613043D01*
X100462476Y-71733252D01*
X100462475Y-71733254D01*
X100365718Y-71940750D01*
X100365714Y-71940761D01*
X100306457Y-72161910D01*
X100306456Y-72161918D01*
X100286502Y-72389998D01*
X100286502Y-72390001D01*
X100306456Y-72618081D01*
X100306457Y-72618088D01*
X100317629Y-72659780D01*
X100315966Y-72729630D01*
X100276804Y-72787493D01*
X100212575Y-72814997D01*
X100143673Y-72803411D01*
X100091973Y-72756412D01*
X100087965Y-72749323D01*
X100019357Y-72618089D01*
X99937698Y-72461891D01*
X99935410Y-72457281D01*
X99538143Y-71613043D01*
X99536031Y-71608299D01*
X99174479Y-70748201D01*
X99172567Y-70743372D01*
X99073756Y-70477678D01*
X98847338Y-69868860D01*
X98845637Y-69863975D01*
X98557315Y-68976609D01*
X98555829Y-68971689D01*
X98304921Y-68073036D01*
X98303629Y-68068005D01*
X98090575Y-67159646D01*
X98089497Y-67154571D01*
X97914668Y-66238084D01*
X97913802Y-66232963D01*
X97899316Y-66134870D01*
X97777501Y-65309936D01*
X97776859Y-65304861D01*
X97679323Y-64376867D01*
X97678896Y-64371777D01*
X97658567Y-64048654D01*
X106541020Y-64048654D01*
X106547531Y-64109202D01*
X106547531Y-64109204D01*
X106583198Y-64204827D01*
X106598631Y-64246204D01*
X106686259Y-64363261D01*
X106803316Y-64450889D01*
X106940319Y-64501989D01*
X106967570Y-64504918D01*
X107000865Y-64508499D01*
X107000882Y-64508500D01*
X110098158Y-64508500D01*
X110098174Y-64508499D01*
X110125212Y-64505591D01*
X110158721Y-64501989D01*
X110295724Y-64450889D01*
X110412781Y-64363261D01*
X110500409Y-64246204D01*
X110547149Y-64120891D01*
X110551508Y-64109204D01*
X110551508Y-64109203D01*
X110551509Y-64109201D01*
X110555532Y-64071778D01*
X110558019Y-64048654D01*
X110558020Y-64048637D01*
X110558020Y-63540508D01*
X116703271Y-63540508D01*
X116704107Y-63569817D01*
X116704108Y-63569826D01*
X116718629Y-63641482D01*
X116733150Y-63713137D01*
X116733151Y-63713138D01*
X116743525Y-63732800D01*
X116750642Y-63748991D01*
X116753222Y-63756223D01*
X116792808Y-63826308D01*
X116794509Y-63829422D01*
X116801387Y-63842457D01*
X116803724Y-63846210D01*
X116803635Y-63846264D01*
X116807309Y-63851981D01*
X116825134Y-63883540D01*
X116825135Y-63883541D01*
X116841062Y-63899017D01*
X116852848Y-63912232D01*
X116857499Y-63918264D01*
X116911147Y-63967501D01*
X116916934Y-63972812D01*
X116919489Y-63975225D01*
X116930002Y-63985440D01*
X116930005Y-63985442D01*
X116930006Y-63985443D01*
X116933393Y-63988294D01*
X116933323Y-63988376D01*
X116938539Y-63992642D01*
X116965223Y-64017132D01*
X116965225Y-64017132D01*
X116965228Y-64017135D01*
X116985175Y-64026942D01*
X117000450Y-64035857D01*
X117006765Y-64040176D01*
X117080066Y-64073651D01*
X117083208Y-64075141D01*
X117096448Y-64081651D01*
X117096457Y-64081654D01*
X117100559Y-64083319D01*
X117100519Y-64083417D01*
X117106831Y-64085873D01*
X117139774Y-64100919D01*
X117235736Y-64114716D01*
X117236880Y-64114881D01*
X117300436Y-64143906D01*
X117338210Y-64202684D01*
X117340763Y-64212991D01*
X117349719Y-64257187D01*
X117368150Y-64348137D01*
X117368151Y-64348138D01*
X117378525Y-64367800D01*
X117385642Y-64383991D01*
X117388222Y-64391223D01*
X117427808Y-64461308D01*
X117429509Y-64464422D01*
X117436387Y-64477457D01*
X117438724Y-64481210D01*
X117438635Y-64481264D01*
X117442309Y-64486981D01*
X117460134Y-64518540D01*
X117460135Y-64518541D01*
X117476062Y-64534017D01*
X117487848Y-64547232D01*
X117492499Y-64553264D01*
X117551207Y-64607145D01*
X117551934Y-64607812D01*
X117554489Y-64610225D01*
X117565002Y-64620440D01*
X117565005Y-64620442D01*
X117565006Y-64620443D01*
X117568393Y-64623294D01*
X117568323Y-64623376D01*
X117573539Y-64627642D01*
X117600223Y-64652132D01*
X117600225Y-64652132D01*
X117600228Y-64652135D01*
X117620175Y-64661942D01*
X117635450Y-64670857D01*
X117641765Y-64675176D01*
X117715066Y-64708651D01*
X117718208Y-64710141D01*
X117731448Y-64716651D01*
X117731457Y-64716654D01*
X117735559Y-64718319D01*
X117735519Y-64718417D01*
X117741831Y-64720873D01*
X117774774Y-64735919D01*
X117919508Y-64756729D01*
X117919509Y-64756729D01*
X119000509Y-64756729D01*
X119029817Y-64755892D01*
X119029825Y-64755891D01*
X119029827Y-64755891D01*
X119173137Y-64726850D01*
X119192796Y-64716475D01*
X119208996Y-64709355D01*
X119216221Y-64706778D01*
X119216225Y-64706775D01*
X119216227Y-64706775D01*
X119255225Y-64684747D01*
X119286316Y-64667185D01*
X119289376Y-64665514D01*
X119302460Y-64658611D01*
X119302479Y-64658597D01*
X119306225Y-64656266D01*
X119306281Y-64656356D01*
X119311980Y-64652690D01*
X119337632Y-64638201D01*
X119343536Y-64634868D01*
X119343536Y-64634867D01*
X119343539Y-64634866D01*
X119359014Y-64618940D01*
X119372240Y-64607145D01*
X119378264Y-64602501D01*
X119432816Y-64543059D01*
X119435206Y-64540529D01*
X119445440Y-64529998D01*
X119445442Y-64529994D01*
X119445447Y-64529990D01*
X119448291Y-64526611D01*
X119448374Y-64526681D01*
X119452650Y-64521450D01*
X119464536Y-64508499D01*
X119477135Y-64494772D01*
X119486945Y-64474817D01*
X119495856Y-64459551D01*
X119500176Y-64453235D01*
X119533653Y-64379929D01*
X119535157Y-64376759D01*
X119535708Y-64375639D01*
X119541651Y-64363552D01*
X119541653Y-64363544D01*
X119543325Y-64359428D01*
X119543423Y-64359468D01*
X119545879Y-64353155D01*
X119560919Y-64320226D01*
X119560918Y-64320226D01*
X119564605Y-64312156D01*
X119567944Y-64313681D01*
X119596293Y-64269534D01*
X119659838Y-64240485D01*
X119729000Y-64250402D01*
X119751842Y-64263950D01*
X119857906Y-64343350D01*
X119857913Y-64343354D01*
X119992620Y-64393596D01*
X119992627Y-64393598D01*
X120052155Y-64399999D01*
X120052172Y-64400000D01*
X120750000Y-64400000D01*
X120750000Y-63374189D01*
X120802547Y-63410016D01*
X120932173Y-63450000D01*
X121033724Y-63450000D01*
X121134138Y-63434865D01*
X121250000Y-63379068D01*
X121250000Y-64400000D01*
X121947828Y-64400000D01*
X121947844Y-64399999D01*
X122007372Y-64393598D01*
X122007379Y-64393596D01*
X122142086Y-64343354D01*
X122142093Y-64343350D01*
X122257187Y-64257190D01*
X122257190Y-64257187D01*
X122343350Y-64142093D01*
X122343354Y-64142086D01*
X122393596Y-64007379D01*
X122393598Y-64007372D01*
X122399999Y-63947844D01*
X122400000Y-63947827D01*
X122400000Y-63250000D01*
X121375278Y-63250000D01*
X121423625Y-63166260D01*
X121453810Y-63034008D01*
X121443673Y-62898735D01*
X121394113Y-62772459D01*
X121376203Y-62750000D01*
X122400000Y-62750000D01*
X122400000Y-62500001D01*
X126544411Y-62500001D01*
X126564820Y-62785362D01*
X126625629Y-63064895D01*
X126725611Y-63332958D01*
X126862711Y-63584038D01*
X126862716Y-63584046D01*
X126969402Y-63726561D01*
X126969403Y-63726562D01*
X127872323Y-62823641D01*
X127895579Y-62877553D01*
X128000276Y-63018185D01*
X128134582Y-63130882D01*
X128226185Y-63176886D01*
X127322956Y-64080115D01*
X127465480Y-64186807D01*
X127465481Y-64186808D01*
X127716562Y-64323908D01*
X127716561Y-64323908D01*
X127984624Y-64423890D01*
X128264157Y-64484699D01*
X128549519Y-64505109D01*
X128549521Y-64505109D01*
X128834882Y-64484699D01*
X129114415Y-64423890D01*
X129382478Y-64323908D01*
X129633567Y-64186803D01*
X129776081Y-64080116D01*
X129776082Y-64080115D01*
X128875466Y-63179498D01*
X128888411Y-63174787D01*
X129034893Y-63078445D01*
X129155208Y-62950918D01*
X129227967Y-62824894D01*
X130129635Y-63726562D01*
X130129636Y-63726561D01*
X130236323Y-63584047D01*
X130373428Y-63332958D01*
X130473410Y-63064895D01*
X130534219Y-62785362D01*
X130554629Y-62500001D01*
X130554629Y-62499998D01*
X130534219Y-62214637D01*
X130473410Y-61935104D01*
X130373428Y-61667041D01*
X130236328Y-61415961D01*
X130236327Y-61415960D01*
X130129635Y-61273436D01*
X129226715Y-62176356D01*
X129203461Y-62122447D01*
X129098764Y-61981815D01*
X128964458Y-61869118D01*
X128872853Y-61823112D01*
X129776082Y-60919883D01*
X129776081Y-60919882D01*
X129633566Y-60813196D01*
X129633558Y-60813191D01*
X129382477Y-60676091D01*
X129382478Y-60676091D01*
X129114415Y-60576109D01*
X128834882Y-60515300D01*
X128549521Y-60494891D01*
X128549519Y-60494891D01*
X128264157Y-60515300D01*
X127984624Y-60576109D01*
X127716561Y-60676091D01*
X127465481Y-60813191D01*
X127465473Y-60813196D01*
X127322957Y-60919882D01*
X127322956Y-60919883D01*
X128223574Y-61820501D01*
X128210629Y-61825213D01*
X128064147Y-61921555D01*
X127943832Y-62049082D01*
X127871072Y-62175105D01*
X126969403Y-61273436D01*
X126969402Y-61273437D01*
X126862716Y-61415953D01*
X126862711Y-61415961D01*
X126725611Y-61667041D01*
X126625629Y-61935104D01*
X126564820Y-62214637D01*
X126544411Y-62499998D01*
X126544411Y-62500001D01*
X122400000Y-62500001D01*
X122400000Y-62052172D01*
X122399999Y-62052155D01*
X122393598Y-61992627D01*
X122393596Y-61992620D01*
X122343354Y-61857913D01*
X122343350Y-61857906D01*
X122257190Y-61742812D01*
X122257187Y-61742809D01*
X122142093Y-61656649D01*
X122142086Y-61656645D01*
X122007379Y-61606403D01*
X122007372Y-61606401D01*
X121947844Y-61600000D01*
X121250000Y-61600000D01*
X121250000Y-62625810D01*
X121197453Y-62589984D01*
X121067827Y-62550000D01*
X120966276Y-62550000D01*
X120865862Y-62565135D01*
X120750000Y-62620931D01*
X120750000Y-61600000D01*
X120052155Y-61600000D01*
X119992627Y-61606401D01*
X119992620Y-61606403D01*
X119857913Y-61656645D01*
X119857910Y-61656647D01*
X119749917Y-61737491D01*
X119684453Y-61761908D01*
X119616180Y-61747056D01*
X119566774Y-61697651D01*
X119554076Y-61662850D01*
X119551850Y-61651863D01*
X119541472Y-61632196D01*
X119534359Y-61616013D01*
X119531778Y-61608779D01*
X119492188Y-61538686D01*
X119490488Y-61535572D01*
X119483610Y-61522538D01*
X119481267Y-61518774D01*
X119481354Y-61518719D01*
X119477689Y-61513015D01*
X119459867Y-61481463D01*
X119459866Y-61481461D01*
X119451480Y-61473312D01*
X119443936Y-61465981D01*
X119432151Y-61452766D01*
X119427509Y-61446745D01*
X119427503Y-61446738D01*
X119427501Y-61446736D01*
X119427496Y-61446732D01*
X119427491Y-61446726D01*
X119368064Y-61392185D01*
X119365499Y-61389763D01*
X119355002Y-61379564D01*
X119354998Y-61379560D01*
X119354992Y-61379556D01*
X119351606Y-61376705D01*
X119351675Y-61376622D01*
X119346454Y-61372353D01*
X119319773Y-61347866D01*
X119319774Y-61347866D01*
X119311185Y-61343643D01*
X119299819Y-61338055D01*
X119284541Y-61329136D01*
X119278237Y-61324825D01*
X119204976Y-61291367D01*
X119201786Y-61289855D01*
X119188546Y-61283346D01*
X119184440Y-61281680D01*
X119184479Y-61281582D01*
X119178162Y-61279122D01*
X119145230Y-61264082D01*
X119145222Y-61264080D01*
X119058908Y-61251670D01*
X119000492Y-61243271D01*
X117919508Y-61243271D01*
X117919491Y-61243271D01*
X117890182Y-61244107D01*
X117890170Y-61244109D01*
X117746862Y-61273149D01*
X117727203Y-61283523D01*
X117711016Y-61290639D01*
X117703784Y-61293219D01*
X117703774Y-61293224D01*
X117633674Y-61332817D01*
X117630571Y-61334511D01*
X117617545Y-61341385D01*
X117613779Y-61343730D01*
X117613725Y-61343643D01*
X117608030Y-61347300D01*
X117576464Y-61365130D01*
X117576460Y-61365133D01*
X117560979Y-61381065D01*
X117547772Y-61392844D01*
X117541740Y-61397494D01*
X117487173Y-61456949D01*
X117484750Y-61459514D01*
X117474562Y-61469998D01*
X117471716Y-61473380D01*
X117471635Y-61473312D01*
X117467362Y-61478535D01*
X117442863Y-61505230D01*
X117433053Y-61525181D01*
X117424144Y-61540444D01*
X117419829Y-61546755D01*
X117419827Y-61546759D01*
X117386354Y-61620050D01*
X117384843Y-61623237D01*
X117378351Y-61636442D01*
X117376686Y-61640547D01*
X117376589Y-61640507D01*
X117374129Y-61646821D01*
X117359080Y-61679774D01*
X117345118Y-61776881D01*
X117316092Y-61840437D01*
X117257314Y-61878210D01*
X117247008Y-61880763D01*
X117111861Y-61908150D01*
X117092203Y-61918523D01*
X117076016Y-61925639D01*
X117068784Y-61928219D01*
X117068774Y-61928224D01*
X116998674Y-61967817D01*
X116995571Y-61969511D01*
X116982545Y-61976385D01*
X116978779Y-61978730D01*
X116978725Y-61978643D01*
X116973030Y-61982300D01*
X116941464Y-62000130D01*
X116941460Y-62000133D01*
X116925979Y-62016065D01*
X116912772Y-62027844D01*
X116906740Y-62032494D01*
X116852173Y-62091949D01*
X116849750Y-62094514D01*
X116839562Y-62104998D01*
X116836716Y-62108380D01*
X116836635Y-62108312D01*
X116832362Y-62113535D01*
X116807863Y-62140230D01*
X116798053Y-62160181D01*
X116789144Y-62175444D01*
X116784829Y-62181755D01*
X116784827Y-62181759D01*
X116751354Y-62255050D01*
X116749843Y-62258237D01*
X116743351Y-62271442D01*
X116741686Y-62275547D01*
X116741589Y-62275507D01*
X116739129Y-62281821D01*
X116724080Y-62314774D01*
X116703271Y-62459509D01*
X116703271Y-63540508D01*
X110558020Y-63540508D01*
X110558020Y-60951362D01*
X110558019Y-60951345D01*
X110554636Y-60919882D01*
X110551509Y-60890799D01*
X110500409Y-60753796D01*
X110412781Y-60636739D01*
X110295724Y-60549111D01*
X110158723Y-60498011D01*
X110098174Y-60491500D01*
X110098158Y-60491500D01*
X107000882Y-60491500D01*
X107000865Y-60491500D01*
X106940317Y-60498011D01*
X106940315Y-60498011D01*
X106803315Y-60549111D01*
X106686259Y-60636739D01*
X106598631Y-60753795D01*
X106547531Y-60890795D01*
X106547531Y-60890797D01*
X106541020Y-60951345D01*
X106541020Y-64048654D01*
X97658567Y-64048654D01*
X97620309Y-63440558D01*
X97620094Y-63435449D01*
X97600554Y-62502577D01*
X97600554Y-62497403D01*
X97601348Y-62459508D01*
X97620094Y-61564548D01*
X97620309Y-61559443D01*
X97678896Y-60628218D01*
X97679323Y-60623136D01*
X97776860Y-59695133D01*
X97777500Y-59690069D01*
X97913802Y-58767033D01*
X97914668Y-58761915D01*
X98089497Y-57845428D01*
X98090577Y-57840348D01*
X98100027Y-57800061D01*
X98303631Y-56931983D01*
X98304921Y-56926963D01*
X98466431Y-56348500D01*
X98555833Y-56028297D01*
X98557311Y-56023403D01*
X98601093Y-55888654D01*
X129539500Y-55888654D01*
X129546011Y-55949202D01*
X129546011Y-55949204D01*
X129574593Y-56025832D01*
X129597111Y-56086204D01*
X129684739Y-56203261D01*
X129801796Y-56290889D01*
X129916297Y-56333596D01*
X129933463Y-56339999D01*
X129938799Y-56341989D01*
X129966050Y-56344918D01*
X129999345Y-56348499D01*
X129999362Y-56348500D01*
X131620638Y-56348500D01*
X131620654Y-56348499D01*
X131647692Y-56345591D01*
X131681201Y-56341989D01*
X131686537Y-56339999D01*
X131703703Y-56333596D01*
X131818204Y-56290889D01*
X131935261Y-56203261D01*
X131986044Y-56135422D01*
X132041974Y-56093554D01*
X132111665Y-56088570D01*
X132172989Y-56122054D01*
X132184575Y-56135425D01*
X132230813Y-56197190D01*
X132345906Y-56283350D01*
X132345913Y-56283354D01*
X132480620Y-56333596D01*
X132480627Y-56333598D01*
X132540155Y-56339999D01*
X132540172Y-56340000D01*
X133100000Y-56340000D01*
X133100000Y-53590000D01*
X133600000Y-53590000D01*
X133600000Y-56340000D01*
X134159828Y-56340000D01*
X134159844Y-56339999D01*
X134219372Y-56333598D01*
X134219379Y-56333596D01*
X134354086Y-56283354D01*
X134354093Y-56283350D01*
X134469187Y-56197190D01*
X134469190Y-56197187D01*
X134555350Y-56082093D01*
X134555354Y-56082086D01*
X134605596Y-55947379D01*
X134605598Y-55947372D01*
X134611999Y-55887844D01*
X134612000Y-55887827D01*
X134612000Y-53590000D01*
X133600000Y-53590000D01*
X133100000Y-53590000D01*
X133100000Y-50340000D01*
X133600000Y-50340000D01*
X133600000Y-53090000D01*
X134612000Y-53090000D01*
X134612000Y-50792172D01*
X134611999Y-50792155D01*
X134605598Y-50732627D01*
X134605596Y-50732620D01*
X134555354Y-50597913D01*
X134555350Y-50597906D01*
X134469190Y-50482812D01*
X134469187Y-50482809D01*
X134354093Y-50396649D01*
X134354086Y-50396645D01*
X134219379Y-50346403D01*
X134219372Y-50346401D01*
X134159844Y-50340000D01*
X133600000Y-50340000D01*
X133100000Y-50340000D01*
X132540155Y-50340000D01*
X132480627Y-50346401D01*
X132480620Y-50346403D01*
X132345913Y-50396645D01*
X132345906Y-50396649D01*
X132230812Y-50482809D01*
X132184574Y-50544575D01*
X132128640Y-50586445D01*
X132058948Y-50591429D01*
X131997625Y-50557943D01*
X131986046Y-50544580D01*
X131935261Y-50476739D01*
X131818204Y-50389111D01*
X131681203Y-50338011D01*
X131620654Y-50331500D01*
X131620638Y-50331500D01*
X129999362Y-50331500D01*
X129999345Y-50331500D01*
X129938797Y-50338011D01*
X129938795Y-50338011D01*
X129801795Y-50389111D01*
X129684739Y-50476739D01*
X129597111Y-50593795D01*
X129546011Y-50730795D01*
X129546011Y-50730797D01*
X129539500Y-50791345D01*
X129539500Y-55888654D01*
X98601093Y-55888654D01*
X98845648Y-55135989D01*
X98847332Y-55131153D01*
X99172569Y-54256619D01*
X99174479Y-54251798D01*
X99205343Y-54178376D01*
X99536038Y-53391684D01*
X99538143Y-53386956D01*
X99935419Y-52542699D01*
X99937688Y-52538127D01*
X100076672Y-52272276D01*
X100125175Y-52221987D01*
X100193168Y-52205903D01*
X100259063Y-52229132D01*
X100301939Y-52284299D01*
X100306335Y-52297633D01*
X100365714Y-52519237D01*
X100365718Y-52519249D01*
X100462475Y-52726745D01*
X100462477Y-52726749D01*
X100593802Y-52914300D01*
X100755700Y-53076198D01*
X100943251Y-53207523D01*
X101068091Y-53265736D01*
X101150750Y-53304281D01*
X101150752Y-53304281D01*
X101150757Y-53304284D01*
X101371913Y-53363543D01*
X101534832Y-53377796D01*
X101599998Y-53383498D01*
X101600000Y-53383498D01*
X101600002Y-53383498D01*
X101657021Y-53378509D01*
X101828087Y-53363543D01*
X102049243Y-53304284D01*
X102256749Y-53207523D01*
X102444300Y-53076198D01*
X102606198Y-52914300D01*
X102737523Y-52726749D01*
X102834284Y-52519243D01*
X102893543Y-52298087D01*
X102913498Y-52070000D01*
X102893543Y-51841913D01*
X102834284Y-51620757D01*
X102737523Y-51413251D01*
X102606198Y-51225700D01*
X102444300Y-51063802D01*
X102256749Y-50932477D01*
X102256745Y-50932475D01*
X102049249Y-50835718D01*
X102049238Y-50835714D01*
X101828089Y-50776457D01*
X101828081Y-50776456D01*
X101600002Y-50756502D01*
X101599998Y-50756502D01*
X101371918Y-50776456D01*
X101371910Y-50776457D01*
X101150761Y-50835714D01*
X101150742Y-50835721D01*
X101148813Y-50836621D01*
X101147885Y-50836761D01*
X101145676Y-50837566D01*
X101145514Y-50837121D01*
X101079734Y-50847102D01*
X101015955Y-50818573D01*
X100977724Y-50760090D01*
X100977181Y-50690223D01*
X100991726Y-50657794D01*
X101341616Y-50106456D01*
X101344445Y-50102198D01*
X101876963Y-49336005D01*
X101879973Y-49331862D01*
X102444096Y-48588656D01*
X102447288Y-48584628D01*
X103042056Y-47865678D01*
X103045423Y-47861778D01*
X103669761Y-47168380D01*
X103673242Y-47164673D01*
X103794833Y-47040508D01*
X116978271Y-47040508D01*
X116979107Y-47069817D01*
X116979108Y-47069826D01*
X116993629Y-47141482D01*
X117008150Y-47213137D01*
X117008151Y-47213138D01*
X117018525Y-47232800D01*
X117025642Y-47248991D01*
X117028222Y-47256223D01*
X117067808Y-47326308D01*
X117069509Y-47329422D01*
X117076387Y-47342457D01*
X117078724Y-47346210D01*
X117078635Y-47346264D01*
X117082309Y-47351981D01*
X117100134Y-47383540D01*
X117100135Y-47383541D01*
X117116062Y-47399017D01*
X117127848Y-47412232D01*
X117132499Y-47418264D01*
X117186147Y-47467501D01*
X117191934Y-47472812D01*
X117194489Y-47475225D01*
X117205002Y-47485440D01*
X117205005Y-47485442D01*
X117205006Y-47485443D01*
X117208393Y-47488294D01*
X117208323Y-47488376D01*
X117213539Y-47492642D01*
X117240223Y-47517132D01*
X117240225Y-47517132D01*
X117240228Y-47517135D01*
X117260175Y-47526942D01*
X117275450Y-47535857D01*
X117281765Y-47540176D01*
X117355066Y-47573651D01*
X117358208Y-47575141D01*
X117371448Y-47581651D01*
X117371457Y-47581654D01*
X117375559Y-47583319D01*
X117375519Y-47583417D01*
X117381831Y-47585873D01*
X117414774Y-47600919D01*
X117510736Y-47614716D01*
X117511880Y-47614881D01*
X117575436Y-47643906D01*
X117613210Y-47702684D01*
X117615763Y-47712991D01*
X117624719Y-47757187D01*
X117643150Y-47848137D01*
X117643151Y-47848138D01*
X117653525Y-47867800D01*
X117660642Y-47883991D01*
X117663222Y-47891223D01*
X117702808Y-47961308D01*
X117704509Y-47964422D01*
X117711387Y-47977457D01*
X117713724Y-47981210D01*
X117713635Y-47981264D01*
X117717309Y-47986981D01*
X117735134Y-48018540D01*
X117735135Y-48018541D01*
X117751062Y-48034017D01*
X117762848Y-48047232D01*
X117767499Y-48053264D01*
X117826207Y-48107145D01*
X117826934Y-48107812D01*
X117829489Y-48110225D01*
X117840002Y-48120440D01*
X117840005Y-48120442D01*
X117840006Y-48120443D01*
X117843393Y-48123294D01*
X117843323Y-48123376D01*
X117848539Y-48127642D01*
X117875223Y-48152132D01*
X117875225Y-48152132D01*
X117875228Y-48152135D01*
X117895175Y-48161942D01*
X117910450Y-48170857D01*
X117916765Y-48175176D01*
X117990066Y-48208651D01*
X117993208Y-48210141D01*
X118006448Y-48216651D01*
X118006457Y-48216654D01*
X118010559Y-48218319D01*
X118010519Y-48218417D01*
X118016831Y-48220873D01*
X118049774Y-48235919D01*
X118194508Y-48256729D01*
X118194509Y-48256729D01*
X119275509Y-48256729D01*
X119304817Y-48255892D01*
X119304825Y-48255891D01*
X119304827Y-48255891D01*
X119448137Y-48226850D01*
X119467796Y-48216475D01*
X119483996Y-48209355D01*
X119491221Y-48206778D01*
X119491225Y-48206775D01*
X119491227Y-48206775D01*
X119530225Y-48184747D01*
X119561316Y-48167185D01*
X119564376Y-48165514D01*
X119577460Y-48158611D01*
X119577479Y-48158597D01*
X119581225Y-48156266D01*
X119581281Y-48156356D01*
X119586980Y-48152690D01*
X119612632Y-48138201D01*
X119618536Y-48134868D01*
X119618536Y-48134867D01*
X119618539Y-48134866D01*
X119634014Y-48118940D01*
X119647240Y-48107145D01*
X119653264Y-48102501D01*
X119707816Y-48043059D01*
X119710206Y-48040529D01*
X119720440Y-48029998D01*
X119720442Y-48029994D01*
X119720447Y-48029990D01*
X119723291Y-48026611D01*
X119723374Y-48026681D01*
X119727650Y-48021450D01*
X119730322Y-48018539D01*
X119752135Y-47994772D01*
X119761945Y-47974817D01*
X119770856Y-47959551D01*
X119775176Y-47953235D01*
X119808653Y-47879929D01*
X119810157Y-47876759D01*
X119814562Y-47867800D01*
X119816651Y-47863552D01*
X119816653Y-47863544D01*
X119818325Y-47859428D01*
X119818423Y-47859468D01*
X119820879Y-47853155D01*
X119835919Y-47820226D01*
X119835918Y-47820226D01*
X119839605Y-47812156D01*
X119842944Y-47813681D01*
X119871293Y-47769534D01*
X119934838Y-47740485D01*
X120004000Y-47750402D01*
X120026842Y-47763950D01*
X120132906Y-47843350D01*
X120132913Y-47843354D01*
X120267620Y-47893596D01*
X120267627Y-47893598D01*
X120327155Y-47899999D01*
X120327172Y-47900000D01*
X121025000Y-47900000D01*
X121025000Y-46874189D01*
X121077547Y-46910016D01*
X121207173Y-46950000D01*
X121308724Y-46950000D01*
X121409138Y-46934865D01*
X121525000Y-46879068D01*
X121525000Y-47900000D01*
X122222828Y-47900000D01*
X122222844Y-47899999D01*
X122282372Y-47893598D01*
X122282379Y-47893596D01*
X122417086Y-47843354D01*
X122417093Y-47843350D01*
X122532187Y-47757190D01*
X122532190Y-47757187D01*
X122618350Y-47642093D01*
X122618354Y-47642086D01*
X122668596Y-47507379D01*
X122668598Y-47507372D01*
X122674999Y-47447844D01*
X122675000Y-47447827D01*
X122675000Y-46750000D01*
X121650278Y-46750000D01*
X121698625Y-46666260D01*
X121728810Y-46534008D01*
X121718673Y-46398735D01*
X121669113Y-46272459D01*
X121651203Y-46250000D01*
X122675000Y-46250000D01*
X122675000Y-45552172D01*
X122674999Y-45552155D01*
X122668598Y-45492627D01*
X122668596Y-45492620D01*
X122618354Y-45357913D01*
X122618350Y-45357906D01*
X122532190Y-45242812D01*
X122532187Y-45242809D01*
X122417093Y-45156649D01*
X122417086Y-45156645D01*
X122282379Y-45106403D01*
X122282372Y-45106401D01*
X122222844Y-45100000D01*
X121525000Y-45100000D01*
X121525000Y-46125810D01*
X121472453Y-46089984D01*
X121342827Y-46050000D01*
X121241276Y-46050000D01*
X121140862Y-46065135D01*
X121025000Y-46120931D01*
X121025000Y-45100000D01*
X120327155Y-45100000D01*
X120267627Y-45106401D01*
X120267620Y-45106403D01*
X120132913Y-45156645D01*
X120132910Y-45156647D01*
X120024917Y-45237491D01*
X119959453Y-45261908D01*
X119891180Y-45247056D01*
X119841774Y-45197651D01*
X119829076Y-45162850D01*
X119826850Y-45151863D01*
X119816472Y-45132196D01*
X119809359Y-45116013D01*
X119806778Y-45108779D01*
X119767188Y-45038686D01*
X119765488Y-45035572D01*
X119758610Y-45022538D01*
X119756267Y-45018774D01*
X119756354Y-45018719D01*
X119752689Y-45013015D01*
X119734867Y-44981463D01*
X119734866Y-44981461D01*
X119726480Y-44973312D01*
X119718936Y-44965981D01*
X119707151Y-44952766D01*
X119702509Y-44946745D01*
X119702503Y-44946738D01*
X119702501Y-44946736D01*
X119702496Y-44946732D01*
X119702491Y-44946726D01*
X119643064Y-44892185D01*
X119640499Y-44889763D01*
X119630002Y-44879564D01*
X119629998Y-44879560D01*
X119629992Y-44879556D01*
X119626606Y-44876705D01*
X119626675Y-44876622D01*
X119621454Y-44872353D01*
X119594773Y-44847866D01*
X119594774Y-44847866D01*
X119586185Y-44843643D01*
X119574819Y-44838055D01*
X119559541Y-44829136D01*
X119553237Y-44824825D01*
X119479976Y-44791367D01*
X119476786Y-44789855D01*
X119463546Y-44783346D01*
X119459440Y-44781680D01*
X119459479Y-44781582D01*
X119453162Y-44779122D01*
X119420230Y-44764082D01*
X119420222Y-44764080D01*
X119333908Y-44751670D01*
X119275492Y-44743271D01*
X118194508Y-44743271D01*
X118194491Y-44743271D01*
X118165182Y-44744107D01*
X118165170Y-44744109D01*
X118021862Y-44773149D01*
X118002203Y-44783523D01*
X117986016Y-44790639D01*
X117978784Y-44793219D01*
X117978774Y-44793224D01*
X117908674Y-44832817D01*
X117905571Y-44834511D01*
X117892545Y-44841385D01*
X117888779Y-44843730D01*
X117888725Y-44843643D01*
X117883030Y-44847300D01*
X117851464Y-44865130D01*
X117851460Y-44865133D01*
X117835979Y-44881065D01*
X117822772Y-44892844D01*
X117816740Y-44897494D01*
X117762173Y-44956949D01*
X117759750Y-44959514D01*
X117749562Y-44969998D01*
X117746716Y-44973380D01*
X117746635Y-44973312D01*
X117742362Y-44978535D01*
X117717863Y-45005230D01*
X117708053Y-45025181D01*
X117699144Y-45040444D01*
X117694829Y-45046755D01*
X117694827Y-45046759D01*
X117661354Y-45120050D01*
X117659843Y-45123237D01*
X117653351Y-45136442D01*
X117651686Y-45140547D01*
X117651589Y-45140507D01*
X117649129Y-45146821D01*
X117634080Y-45179774D01*
X117620118Y-45276881D01*
X117591092Y-45340437D01*
X117532314Y-45378210D01*
X117522008Y-45380763D01*
X117386861Y-45408150D01*
X117367203Y-45418523D01*
X117351016Y-45425639D01*
X117343784Y-45428219D01*
X117343774Y-45428224D01*
X117273674Y-45467817D01*
X117270571Y-45469511D01*
X117257545Y-45476385D01*
X117253779Y-45478730D01*
X117253725Y-45478643D01*
X117248030Y-45482300D01*
X117216464Y-45500130D01*
X117216460Y-45500133D01*
X117200979Y-45516065D01*
X117187772Y-45527844D01*
X117181740Y-45532494D01*
X117127173Y-45591949D01*
X117124750Y-45594514D01*
X117114562Y-45604998D01*
X117111716Y-45608380D01*
X117111635Y-45608312D01*
X117107362Y-45613535D01*
X117082863Y-45640230D01*
X117073053Y-45660181D01*
X117064144Y-45675444D01*
X117059829Y-45681755D01*
X117059827Y-45681759D01*
X117026354Y-45755050D01*
X117024843Y-45758237D01*
X117018351Y-45771442D01*
X117016686Y-45775547D01*
X117016589Y-45775507D01*
X117014129Y-45781821D01*
X116999080Y-45814774D01*
X116978271Y-45959509D01*
X116978271Y-47040508D01*
X103794833Y-47040508D01*
X104326108Y-46497988D01*
X104329749Y-46494423D01*
X105009948Y-45855674D01*
X105013756Y-45852246D01*
X105720063Y-45242578D01*
X105724039Y-45239288D01*
X106455281Y-44659713D01*
X106459351Y-44656624D01*
X107214243Y-44108162D01*
X107218427Y-44105255D01*
X107995606Y-43588900D01*
X107999940Y-43586148D01*
X108798057Y-43102791D01*
X108802492Y-43100230D01*
X109620154Y-42650717D01*
X109624690Y-42648345D01*
X110460446Y-42233472D01*
X110465099Y-42231282D01*
X111317497Y-41851771D01*
X111322262Y-41849769D01*
X112189745Y-41506308D01*
X112194587Y-41504506D01*
X113075757Y-41197651D01*
X113080614Y-41196073D01*
X113973897Y-40926374D01*
X113978816Y-40925001D01*
X114882562Y-40692958D01*
X114887576Y-40691783D01*
X115800255Y-40497787D01*
X115805235Y-40496836D01*
X116725307Y-40341217D01*
X116730367Y-40340471D01*
X117656083Y-40223526D01*
X117661151Y-40222994D01*
X118590945Y-40144916D01*
X118596116Y-40144591D01*
X119528299Y-40105521D01*
X119533491Y-40105413D01*
X120466509Y-40105413D01*
X120471700Y-40105521D01*
G37*
%TD.AperFunction*%
%TD*%
M02*
