%TF.GenerationSoftware,KiCad,Pcbnew,7.0.10*%
%TF.CreationDate,2024-03-05T20:04:54+01:00*%
%TF.ProjectId,spaceEggs,73706163-6545-4676-9773-2e6b69636164,rev?*%
%TF.SameCoordinates,Original*%
%TF.FileFunction,Legend,Top*%
%TF.FilePolarity,Positive*%
%FSLAX46Y46*%
G04 Gerber Fmt 4.6, Leading zero omitted, Abs format (unit mm)*
G04 Created by KiCad (PCBNEW 7.0.10) date 2024-03-05 20:04:54*
%MOMM*%
%LPD*%
G01*
G04 APERTURE LIST*
%ADD10C,0.150000*%
%ADD11C,0.120000*%
G04 APERTURE END LIST*
D10*
X115812969Y-67814819D02*
X115336779Y-67814819D01*
X115336779Y-67814819D02*
X115336779Y-66814819D01*
X116146303Y-67291009D02*
X116479636Y-67291009D01*
X116622493Y-67814819D02*
X116146303Y-67814819D01*
X116146303Y-67814819D02*
X116146303Y-66814819D01*
X116146303Y-66814819D02*
X116622493Y-66814819D01*
X117051065Y-67814819D02*
X117051065Y-66814819D01*
X117051065Y-66814819D02*
X117289160Y-66814819D01*
X117289160Y-66814819D02*
X117432017Y-66862438D01*
X117432017Y-66862438D02*
X117527255Y-66957676D01*
X117527255Y-66957676D02*
X117574874Y-67052914D01*
X117574874Y-67052914D02*
X117622493Y-67243390D01*
X117622493Y-67243390D02*
X117622493Y-67386247D01*
X117622493Y-67386247D02*
X117574874Y-67576723D01*
X117574874Y-67576723D02*
X117527255Y-67671961D01*
X117527255Y-67671961D02*
X117432017Y-67767200D01*
X117432017Y-67767200D02*
X117289160Y-67814819D01*
X117289160Y-67814819D02*
X117051065Y-67814819D01*
X118574874Y-67814819D02*
X118003446Y-67814819D01*
X118289160Y-67814819D02*
X118289160Y-66814819D01*
X118289160Y-66814819D02*
X118193922Y-66957676D01*
X118193922Y-66957676D02*
X118098684Y-67052914D01*
X118098684Y-67052914D02*
X118003446Y-67100533D01*
X120098684Y-67291009D02*
X120241541Y-67338628D01*
X120241541Y-67338628D02*
X120289160Y-67386247D01*
X120289160Y-67386247D02*
X120336779Y-67481485D01*
X120336779Y-67481485D02*
X120336779Y-67624342D01*
X120336779Y-67624342D02*
X120289160Y-67719580D01*
X120289160Y-67719580D02*
X120241541Y-67767200D01*
X120241541Y-67767200D02*
X120146303Y-67814819D01*
X120146303Y-67814819D02*
X119765351Y-67814819D01*
X119765351Y-67814819D02*
X119765351Y-66814819D01*
X119765351Y-66814819D02*
X120098684Y-66814819D01*
X120098684Y-66814819D02*
X120193922Y-66862438D01*
X120193922Y-66862438D02*
X120241541Y-66910057D01*
X120241541Y-66910057D02*
X120289160Y-67005295D01*
X120289160Y-67005295D02*
X120289160Y-67100533D01*
X120289160Y-67100533D02*
X120241541Y-67195771D01*
X120241541Y-67195771D02*
X120193922Y-67243390D01*
X120193922Y-67243390D02*
X120098684Y-67291009D01*
X120098684Y-67291009D02*
X119765351Y-67291009D01*
X120908208Y-67814819D02*
X120812970Y-67767200D01*
X120812970Y-67767200D02*
X120765351Y-67719580D01*
X120765351Y-67719580D02*
X120717732Y-67624342D01*
X120717732Y-67624342D02*
X120717732Y-67338628D01*
X120717732Y-67338628D02*
X120765351Y-67243390D01*
X120765351Y-67243390D02*
X120812970Y-67195771D01*
X120812970Y-67195771D02*
X120908208Y-67148152D01*
X120908208Y-67148152D02*
X121051065Y-67148152D01*
X121051065Y-67148152D02*
X121146303Y-67195771D01*
X121146303Y-67195771D02*
X121193922Y-67243390D01*
X121193922Y-67243390D02*
X121241541Y-67338628D01*
X121241541Y-67338628D02*
X121241541Y-67624342D01*
X121241541Y-67624342D02*
X121193922Y-67719580D01*
X121193922Y-67719580D02*
X121146303Y-67767200D01*
X121146303Y-67767200D02*
X121051065Y-67814819D01*
X121051065Y-67814819D02*
X120908208Y-67814819D01*
X121527256Y-67148152D02*
X121908208Y-67148152D01*
X121670113Y-66814819D02*
X121670113Y-67671961D01*
X121670113Y-67671961D02*
X121717732Y-67767200D01*
X121717732Y-67767200D02*
X121812970Y-67814819D01*
X121812970Y-67814819D02*
X121908208Y-67814819D01*
X122098685Y-67148152D02*
X122479637Y-67148152D01*
X122241542Y-66814819D02*
X122241542Y-67671961D01*
X122241542Y-67671961D02*
X122289161Y-67767200D01*
X122289161Y-67767200D02*
X122384399Y-67814819D01*
X122384399Y-67814819D02*
X122479637Y-67814819D01*
X122955828Y-67814819D02*
X122860590Y-67767200D01*
X122860590Y-67767200D02*
X122812971Y-67719580D01*
X122812971Y-67719580D02*
X122765352Y-67624342D01*
X122765352Y-67624342D02*
X122765352Y-67338628D01*
X122765352Y-67338628D02*
X122812971Y-67243390D01*
X122812971Y-67243390D02*
X122860590Y-67195771D01*
X122860590Y-67195771D02*
X122955828Y-67148152D01*
X122955828Y-67148152D02*
X123098685Y-67148152D01*
X123098685Y-67148152D02*
X123193923Y-67195771D01*
X123193923Y-67195771D02*
X123241542Y-67243390D01*
X123241542Y-67243390D02*
X123289161Y-67338628D01*
X123289161Y-67338628D02*
X123289161Y-67624342D01*
X123289161Y-67624342D02*
X123241542Y-67719580D01*
X123241542Y-67719580D02*
X123193923Y-67767200D01*
X123193923Y-67767200D02*
X123098685Y-67814819D01*
X123098685Y-67814819D02*
X122955828Y-67814819D01*
X123717733Y-67814819D02*
X123717733Y-67148152D01*
X123717733Y-67243390D02*
X123765352Y-67195771D01*
X123765352Y-67195771D02*
X123860590Y-67148152D01*
X123860590Y-67148152D02*
X124003447Y-67148152D01*
X124003447Y-67148152D02*
X124098685Y-67195771D01*
X124098685Y-67195771D02*
X124146304Y-67291009D01*
X124146304Y-67291009D02*
X124146304Y-67814819D01*
X124146304Y-67291009D02*
X124193923Y-67195771D01*
X124193923Y-67195771D02*
X124289161Y-67148152D01*
X124289161Y-67148152D02*
X124432018Y-67148152D01*
X124432018Y-67148152D02*
X124527257Y-67195771D01*
X124527257Y-67195771D02*
X124574876Y-67291009D01*
X124574876Y-67291009D02*
X124574876Y-67814819D01*
X130162493Y-58670771D02*
X130114874Y-58623152D01*
X130114874Y-58623152D02*
X130019636Y-58480295D01*
X130019636Y-58480295D02*
X129972017Y-58385057D01*
X129972017Y-58385057D02*
X129924398Y-58242200D01*
X129924398Y-58242200D02*
X129876779Y-58004104D01*
X129876779Y-58004104D02*
X129876779Y-57813628D01*
X129876779Y-57813628D02*
X129924398Y-57575533D01*
X129924398Y-57575533D02*
X129972017Y-57432676D01*
X129972017Y-57432676D02*
X130019636Y-57337438D01*
X130019636Y-57337438D02*
X130114874Y-57194580D01*
X130114874Y-57194580D02*
X130162493Y-57146961D01*
X131019636Y-58289819D02*
X130543446Y-58289819D01*
X130543446Y-58289819D02*
X130543446Y-57289819D01*
X131352970Y-57766009D02*
X131686303Y-57766009D01*
X131829160Y-58289819D02*
X131352970Y-58289819D01*
X131352970Y-58289819D02*
X131352970Y-57289819D01*
X131352970Y-57289819D02*
X131829160Y-57289819D01*
X132257732Y-58289819D02*
X132257732Y-57289819D01*
X132257732Y-57289819D02*
X132495827Y-57289819D01*
X132495827Y-57289819D02*
X132638684Y-57337438D01*
X132638684Y-57337438D02*
X132733922Y-57432676D01*
X132733922Y-57432676D02*
X132781541Y-57527914D01*
X132781541Y-57527914D02*
X132829160Y-57718390D01*
X132829160Y-57718390D02*
X132829160Y-57861247D01*
X132829160Y-57861247D02*
X132781541Y-58051723D01*
X132781541Y-58051723D02*
X132733922Y-58146961D01*
X132733922Y-58146961D02*
X132638684Y-58242200D01*
X132638684Y-58242200D02*
X132495827Y-58289819D01*
X132495827Y-58289819D02*
X132257732Y-58289819D01*
X133686303Y-57623152D02*
X133686303Y-58289819D01*
X133448208Y-57242200D02*
X133210113Y-57956485D01*
X133210113Y-57956485D02*
X133829160Y-57956485D01*
X134114875Y-58670771D02*
X134162494Y-58623152D01*
X134162494Y-58623152D02*
X134257732Y-58480295D01*
X134257732Y-58480295D02*
X134305351Y-58385057D01*
X134305351Y-58385057D02*
X134352970Y-58242200D01*
X134352970Y-58242200D02*
X134400589Y-58004104D01*
X134400589Y-58004104D02*
X134400589Y-57813628D01*
X134400589Y-57813628D02*
X134352970Y-57575533D01*
X134352970Y-57575533D02*
X134305351Y-57432676D01*
X134305351Y-57432676D02*
X134257732Y-57337438D01*
X134257732Y-57337438D02*
X134162494Y-57194580D01*
X134162494Y-57194580D02*
X134114875Y-57146961D01*
X109207493Y-76450771D02*
X109159874Y-76403152D01*
X109159874Y-76403152D02*
X109064636Y-76260295D01*
X109064636Y-76260295D02*
X109017017Y-76165057D01*
X109017017Y-76165057D02*
X108969398Y-76022200D01*
X108969398Y-76022200D02*
X108921779Y-75784104D01*
X108921779Y-75784104D02*
X108921779Y-75593628D01*
X108921779Y-75593628D02*
X108969398Y-75355533D01*
X108969398Y-75355533D02*
X109017017Y-75212676D01*
X109017017Y-75212676D02*
X109064636Y-75117438D01*
X109064636Y-75117438D02*
X109159874Y-74974580D01*
X109159874Y-74974580D02*
X109207493Y-74926961D01*
X110064636Y-76069819D02*
X109588446Y-76069819D01*
X109588446Y-76069819D02*
X109588446Y-75069819D01*
X110397970Y-75546009D02*
X110731303Y-75546009D01*
X110874160Y-76069819D02*
X110397970Y-76069819D01*
X110397970Y-76069819D02*
X110397970Y-75069819D01*
X110397970Y-75069819D02*
X110874160Y-75069819D01*
X111302732Y-76069819D02*
X111302732Y-75069819D01*
X111302732Y-75069819D02*
X111540827Y-75069819D01*
X111540827Y-75069819D02*
X111683684Y-75117438D01*
X111683684Y-75117438D02*
X111778922Y-75212676D01*
X111778922Y-75212676D02*
X111826541Y-75307914D01*
X111826541Y-75307914D02*
X111874160Y-75498390D01*
X111874160Y-75498390D02*
X111874160Y-75641247D01*
X111874160Y-75641247D02*
X111826541Y-75831723D01*
X111826541Y-75831723D02*
X111778922Y-75926961D01*
X111778922Y-75926961D02*
X111683684Y-76022200D01*
X111683684Y-76022200D02*
X111540827Y-76069819D01*
X111540827Y-76069819D02*
X111302732Y-76069819D01*
X112778922Y-75069819D02*
X112302732Y-75069819D01*
X112302732Y-75069819D02*
X112255113Y-75546009D01*
X112255113Y-75546009D02*
X112302732Y-75498390D01*
X112302732Y-75498390D02*
X112397970Y-75450771D01*
X112397970Y-75450771D02*
X112636065Y-75450771D01*
X112636065Y-75450771D02*
X112731303Y-75498390D01*
X112731303Y-75498390D02*
X112778922Y-75546009D01*
X112778922Y-75546009D02*
X112826541Y-75641247D01*
X112826541Y-75641247D02*
X112826541Y-75879342D01*
X112826541Y-75879342D02*
X112778922Y-75974580D01*
X112778922Y-75974580D02*
X112731303Y-76022200D01*
X112731303Y-76022200D02*
X112636065Y-76069819D01*
X112636065Y-76069819D02*
X112397970Y-76069819D01*
X112397970Y-76069819D02*
X112302732Y-76022200D01*
X112302732Y-76022200D02*
X112255113Y-75974580D01*
X113159875Y-76450771D02*
X113207494Y-76403152D01*
X113207494Y-76403152D02*
X113302732Y-76260295D01*
X113302732Y-76260295D02*
X113350351Y-76165057D01*
X113350351Y-76165057D02*
X113397970Y-76022200D01*
X113397970Y-76022200D02*
X113445589Y-75784104D01*
X113445589Y-75784104D02*
X113445589Y-75593628D01*
X113445589Y-75593628D02*
X113397970Y-75355533D01*
X113397970Y-75355533D02*
X113350351Y-75212676D01*
X113350351Y-75212676D02*
X113302732Y-75117438D01*
X113302732Y-75117438D02*
X113207494Y-74974580D01*
X113207494Y-74974580D02*
X113159875Y-74926961D01*
X115271779Y-62988866D02*
X116033684Y-62988866D01*
X115652731Y-63369819D02*
X115652731Y-62607914D01*
X107569048Y-71588866D02*
X108330953Y-71588866D01*
X107950000Y-71969819D02*
X107950000Y-71207914D01*
X128524048Y-53663866D02*
X129285953Y-53663866D01*
X128905000Y-54044819D02*
X128905000Y-53282914D01*
X102007200Y-63563332D02*
X102054819Y-63420475D01*
X102054819Y-63420475D02*
X102054819Y-63182380D01*
X102054819Y-63182380D02*
X102007200Y-63087142D01*
X102007200Y-63087142D02*
X101959580Y-63039523D01*
X101959580Y-63039523D02*
X101864342Y-62991904D01*
X101864342Y-62991904D02*
X101769104Y-62991904D01*
X101769104Y-62991904D02*
X101673866Y-63039523D01*
X101673866Y-63039523D02*
X101626247Y-63087142D01*
X101626247Y-63087142D02*
X101578628Y-63182380D01*
X101578628Y-63182380D02*
X101531009Y-63372856D01*
X101531009Y-63372856D02*
X101483390Y-63468094D01*
X101483390Y-63468094D02*
X101435771Y-63515713D01*
X101435771Y-63515713D02*
X101340533Y-63563332D01*
X101340533Y-63563332D02*
X101245295Y-63563332D01*
X101245295Y-63563332D02*
X101150057Y-63515713D01*
X101150057Y-63515713D02*
X101102438Y-63468094D01*
X101102438Y-63468094D02*
X101054819Y-63372856D01*
X101054819Y-63372856D02*
X101054819Y-63134761D01*
X101054819Y-63134761D02*
X101102438Y-62991904D01*
X101054819Y-62658570D02*
X102054819Y-62420475D01*
X102054819Y-62420475D02*
X101340533Y-62229999D01*
X101340533Y-62229999D02*
X102054819Y-62039523D01*
X102054819Y-62039523D02*
X101054819Y-61801428D01*
X102054819Y-60896666D02*
X102054819Y-61468094D01*
X102054819Y-61182380D02*
X101054819Y-61182380D01*
X101054819Y-61182380D02*
X101197676Y-61277618D01*
X101197676Y-61277618D02*
X101292914Y-61372856D01*
X101292914Y-61372856D02*
X101340533Y-61468094D01*
D11*
%TO.C,D2*%
X122290000Y-64545000D02*
X122290000Y-61455000D01*
X116740001Y-62999538D02*
G75*
G03*
X122289999Y-64544830I2989999J-462D01*
G01*
X122290000Y-61455170D02*
G75*
G03*
X116740000Y-63000462I-2560000J-1544830D01*
G01*
X122230000Y-63000000D02*
G75*
G03*
X117230000Y-63000000I-2500000J0D01*
G01*
X117230000Y-63000000D02*
G75*
G03*
X122230000Y-63000000I2500000J0D01*
G01*
%TO.C,SW1*%
X101600000Y-53110000D02*
X101600000Y-57610000D01*
X103320000Y-57610000D02*
X99880000Y-57610000D01*
X99880000Y-57610000D02*
X99880000Y-66850000D01*
X103320000Y-66850000D02*
X103320000Y-57610000D01*
X99880000Y-66850000D02*
X103320000Y-66850000D01*
X101600000Y-71350000D02*
X101600000Y-66850000D01*
%TD*%
M02*
