%TF.GenerationSoftware,KiCad,Pcbnew,9.0.0*%
%TF.CreationDate,2025-03-06T09:18:45+01:00*%
%TF.ProjectId,spaceEggs,73706163-6545-4676-9773-2e6b69636164,rev?*%
%TF.SameCoordinates,Original*%
%TF.FileFunction,Soldermask,Bot*%
%TF.FilePolarity,Negative*%
%FSLAX46Y46*%
G04 Gerber Fmt 4.6, Leading zero omitted, Abs format (unit mm)*
G04 Created by KiCad (PCBNEW 9.0.0) date 2025-03-06 09:18:45*
%MOMM*%
%LPD*%
G01*
G04 APERTURE LIST*
G04 Aperture macros list*
%AMFreePoly0*
4,1,45,0.566779,1.223902,0.603106,1.173902,0.608000,1.143000,0.608000,0.609600,0.609600,0.609600,0.609600,0.608000,1.143000,0.608000,1.201779,0.588902,1.238106,0.538902,1.243000,0.508000,1.243000,-0.508000,1.223902,-0.566779,1.173902,-0.603106,1.143000,-0.608000,0.609600,-0.608000,0.609600,-0.609600,0.608000,-0.609600,0.608000,-1.143000,0.588902,-1.201779,0.538902,-1.238106,
0.508000,-1.243000,-0.508000,-1.243000,-0.566779,-1.223902,-0.603106,-1.173902,-0.608000,-1.143000,-0.608000,-0.609600,-0.609600,-0.609600,-0.609600,-0.608000,-1.143000,-0.608000,-1.201779,-0.588902,-1.238106,-0.538902,-1.243000,-0.508000,-1.243000,0.508000,-1.223902,0.566779,-1.173902,0.603106,-1.143000,0.608000,-0.609600,0.608000,-0.609600,0.609600,-0.608000,0.609600,-0.608000,1.143000,
-0.588902,1.201779,-0.538902,1.238106,-0.508000,1.243000,0.508000,1.243000,0.566779,1.223902,0.566779,1.223902,$1*%
G04 Aperture macros list end*
%ADD10C,0.187500*%
%ADD11C,0.250000*%
%ADD12R,1.800000X1.800000*%
%ADD13FreePoly0,180.000000*%
%ADD14C,1.600000*%
%ADD15O,1.600000X1.600000*%
%ADD16R,3.000000X3.000000*%
%ADD17C,3.000000*%
G04 APERTURE END LIST*
D10*
G36*
X132223058Y-73660000D02*
G01*
X132223058Y-73820421D01*
X132383342Y-73820421D01*
X132383342Y-73660000D01*
X132223058Y-73660000D01*
G37*
G36*
X132432069Y-73660000D02*
G01*
X132432069Y-73820421D01*
X132592353Y-73820421D01*
X132592353Y-73660000D01*
X132432069Y-73660000D01*
G37*
G36*
X132642178Y-73660000D02*
G01*
X132642178Y-73820421D01*
X132802463Y-73820421D01*
X132802463Y-73660000D01*
X132642178Y-73660000D01*
G37*
G36*
X133062215Y-73974386D02*
G01*
X133062215Y-74134808D01*
X133222500Y-74134808D01*
X133222500Y-73974386D01*
X133062215Y-73974386D01*
G37*
G36*
X132642178Y-74290146D02*
G01*
X132642178Y-74450568D01*
X132802463Y-74450568D01*
X132802463Y-74290146D01*
X132642178Y-74290146D01*
G37*
G36*
X132223058Y-74290146D02*
G01*
X132223058Y-74450568D01*
X132383342Y-74450568D01*
X132383342Y-74290146D01*
X132223058Y-74290146D01*
G37*
G36*
X132432069Y-74290146D02*
G01*
X132432069Y-74450568D01*
X132592353Y-74450568D01*
X132592353Y-74290146D01*
X132432069Y-74290146D01*
G37*
G36*
X132853204Y-73765512D02*
G01*
X132853204Y-73925934D01*
X133013489Y-73925934D01*
X133013489Y-73765512D01*
X132853204Y-73765512D01*
G37*
G36*
X132853204Y-74184633D02*
G01*
X132853204Y-74345055D01*
X133013489Y-74345055D01*
X133013489Y-74184633D01*
X132853204Y-74184633D01*
G37*
G36*
X131803937Y-75129899D02*
G01*
X131803937Y-75290321D01*
X131964221Y-75290321D01*
X131964221Y-75129899D01*
X131803937Y-75129899D01*
G37*
G36*
X131960191Y-74710000D02*
G01*
X131960191Y-74870421D01*
X132120476Y-74870421D01*
X132120476Y-74710000D01*
X131960191Y-74710000D01*
G37*
G36*
X132853204Y-75129899D02*
G01*
X132853204Y-75290321D01*
X133013489Y-75290321D01*
X133013489Y-75129899D01*
X132853204Y-75129899D01*
G37*
G36*
X133062215Y-74710000D02*
G01*
X133062215Y-74870421D01*
X133222500Y-74870421D01*
X133222500Y-74710000D01*
X133062215Y-74710000D01*
G37*
G36*
X132223058Y-75129899D02*
G01*
X132223058Y-75290321D01*
X132383342Y-75290321D01*
X132383342Y-75129899D01*
X132223058Y-75129899D01*
G37*
G36*
X133062215Y-74921025D02*
G01*
X133062215Y-75081447D01*
X133222500Y-75081447D01*
X133222500Y-74921025D01*
X133062215Y-74921025D01*
G37*
G36*
X133062215Y-75129899D02*
G01*
X133062215Y-75290321D01*
X133222500Y-75290321D01*
X133222500Y-75129899D01*
X133062215Y-75129899D01*
G37*
G36*
X133062215Y-75340146D02*
G01*
X133062215Y-75500568D01*
X133222500Y-75500568D01*
X133222500Y-75340146D01*
X133062215Y-75340146D01*
G37*
G36*
X133062215Y-75549019D02*
G01*
X133062215Y-75709441D01*
X133222500Y-75709441D01*
X133222500Y-75549019D01*
X133062215Y-75549019D01*
G37*
G36*
X131856693Y-74921025D02*
G01*
X131856693Y-75081447D01*
X132015879Y-75081447D01*
X132015879Y-74921025D01*
X131856693Y-74921025D01*
G37*
G36*
X132432069Y-75129899D02*
G01*
X132432069Y-75290321D01*
X132592353Y-75290321D01*
X132592353Y-75129899D01*
X132432069Y-75129899D01*
G37*
G36*
X132012948Y-75129899D02*
G01*
X132012948Y-75290321D01*
X132173232Y-75290321D01*
X132173232Y-75129899D01*
X132012948Y-75129899D01*
G37*
G36*
X132642178Y-75129899D02*
G01*
X132642178Y-75290321D01*
X132802463Y-75290321D01*
X132802463Y-75129899D01*
X132642178Y-75129899D01*
G37*
G36*
X133062215Y-75969560D02*
G01*
X133062215Y-76129982D01*
X133222500Y-76129982D01*
X133222500Y-75969560D01*
X133062215Y-75969560D01*
G37*
G36*
X131803937Y-76600439D02*
G01*
X131803937Y-76760861D01*
X131964221Y-76760861D01*
X131964221Y-76600439D01*
X131803937Y-76600439D01*
G37*
G36*
X131803937Y-77019560D02*
G01*
X131803937Y-77179982D01*
X131964221Y-77179982D01*
X131964221Y-77019560D01*
X131803937Y-77019560D01*
G37*
G36*
X131907435Y-77228433D02*
G01*
X131907435Y-77388855D01*
X132067719Y-77388855D01*
X132067719Y-77228433D01*
X131907435Y-77228433D01*
G37*
G36*
X132432069Y-76600439D02*
G01*
X132432069Y-76760861D01*
X132592353Y-76760861D01*
X132592353Y-76600439D01*
X132432069Y-76600439D01*
G37*
G36*
X133062215Y-77228433D02*
G01*
X133062215Y-77388855D01*
X133222500Y-77388855D01*
X133222500Y-77228433D01*
X133062215Y-77228433D01*
G37*
G36*
X132432069Y-76809313D02*
G01*
X132432069Y-76969734D01*
X132592353Y-76969734D01*
X132592353Y-76809313D01*
X132432069Y-76809313D01*
G37*
G36*
X132432069Y-77019560D02*
G01*
X132432069Y-77179982D01*
X132592353Y-77179982D01*
X132592353Y-77019560D01*
X132432069Y-77019560D01*
G37*
G36*
X132642178Y-76389413D02*
G01*
X132642178Y-76549835D01*
X132802463Y-76549835D01*
X132802463Y-76389413D01*
X132642178Y-76389413D01*
G37*
G36*
X131803937Y-76809313D02*
G01*
X131803937Y-76969734D01*
X131964221Y-76969734D01*
X131964221Y-76809313D01*
X131803937Y-76809313D01*
G37*
G36*
X131907435Y-76389413D02*
G01*
X131907435Y-76549835D01*
X132067719Y-76549835D01*
X132067719Y-76389413D01*
X131907435Y-76389413D01*
G37*
G36*
X132118461Y-77228433D02*
G01*
X132118461Y-77388855D01*
X132278745Y-77388855D01*
X132278745Y-77228433D01*
X132118461Y-77228433D01*
G37*
G36*
X132853204Y-76389413D02*
G01*
X132853204Y-76549835D01*
X133013489Y-76549835D01*
X133013489Y-76389413D01*
X132853204Y-76389413D01*
G37*
G36*
X132328571Y-77228433D02*
G01*
X132328571Y-77388855D01*
X132488855Y-77388855D01*
X132488855Y-77228433D01*
X132328571Y-77228433D01*
G37*
G36*
X133062215Y-76389413D02*
G01*
X133062215Y-76549835D01*
X133222500Y-76549835D01*
X133222500Y-76389413D01*
X133062215Y-76389413D01*
G37*
G36*
X133062215Y-76600439D02*
G01*
X133062215Y-76760861D01*
X133222500Y-76760861D01*
X133222500Y-76600439D01*
X133062215Y-76600439D01*
G37*
G36*
X133062215Y-76809313D02*
G01*
X133062215Y-76969734D01*
X133222500Y-76969734D01*
X133222500Y-76809313D01*
X133062215Y-76809313D01*
G37*
G36*
X133062215Y-77019560D02*
G01*
X133062215Y-77179982D01*
X133222500Y-77179982D01*
X133222500Y-77019560D01*
X133062215Y-77019560D01*
G37*
D11*
G36*
X133037166Y-49457735D02*
G01*
X133037166Y-49877833D01*
X133456775Y-49877833D01*
X133456775Y-49457735D01*
X133037166Y-49457735D01*
G37*
G36*
X133037166Y-50569528D02*
G01*
X133037166Y-50989626D01*
X133456775Y-50989626D01*
X133456775Y-50569528D01*
X133037166Y-50569528D01*
G37*
G36*
X133318534Y-51132264D02*
G01*
X133318534Y-51552362D01*
X133738143Y-51552362D01*
X133738143Y-51132264D01*
X133318534Y-51132264D01*
G37*
G36*
X134725373Y-49457735D02*
G01*
X134725373Y-49877833D01*
X135144982Y-49877833D01*
X135144982Y-49457735D01*
X134725373Y-49457735D01*
G37*
G36*
X136400390Y-49457735D02*
G01*
X136400390Y-49877833D01*
X136820000Y-49877833D01*
X136820000Y-49457735D01*
X136400390Y-49457735D01*
G37*
G36*
X136400390Y-50020471D02*
G01*
X136400390Y-50440568D01*
X136820000Y-50440568D01*
X136820000Y-50020471D01*
X136400390Y-50020471D01*
G37*
G36*
X134725373Y-50020471D02*
G01*
X134725373Y-50440568D01*
X135144982Y-50440568D01*
X135144982Y-50020471D01*
X134725373Y-50020471D01*
G37*
G36*
X136400390Y-50569528D02*
G01*
X136400390Y-50989626D01*
X136820000Y-50989626D01*
X136820000Y-50569528D01*
X136400390Y-50569528D01*
G37*
G36*
X134725373Y-50569528D02*
G01*
X134725373Y-50989626D01*
X135144982Y-50989626D01*
X135144982Y-50569528D01*
X134725373Y-50569528D01*
G37*
G36*
X133037166Y-50020471D02*
G01*
X133037166Y-50440568D01*
X133456775Y-50440568D01*
X133456775Y-50020471D01*
X133037166Y-50020471D01*
G37*
G36*
X133318534Y-48895000D02*
G01*
X133318534Y-49315097D01*
X133738143Y-49315097D01*
X133738143Y-48895000D01*
X133318534Y-48895000D01*
G37*
G36*
X133881270Y-48895000D02*
G01*
X133881270Y-49315097D01*
X134300879Y-49315097D01*
X134300879Y-48895000D01*
X133881270Y-48895000D01*
G37*
G36*
X135006741Y-51132264D02*
G01*
X135006741Y-51552362D01*
X135426350Y-51552362D01*
X135426350Y-51132264D01*
X135006741Y-51132264D01*
G37*
G36*
X135556287Y-51132264D02*
G01*
X135556287Y-51552362D01*
X135975896Y-51552362D01*
X135975896Y-51132264D01*
X135556287Y-51132264D01*
G37*
G36*
X134444005Y-48895000D02*
G01*
X134444005Y-49315097D01*
X134863614Y-49315097D01*
X134863614Y-48895000D01*
X134444005Y-48895000D01*
G37*
G36*
X136119023Y-48895000D02*
G01*
X136119023Y-49315097D01*
X136538632Y-49315097D01*
X136538632Y-48895000D01*
X136119023Y-48895000D01*
G37*
G36*
X136119023Y-51132264D02*
G01*
X136119023Y-51552362D01*
X136538632Y-51552362D01*
X136538632Y-51132264D01*
X136119023Y-51132264D01*
G37*
G36*
X134162637Y-52253827D02*
G01*
X134162637Y-52673925D01*
X134582247Y-52673925D01*
X134582247Y-52253827D01*
X134162637Y-52253827D01*
G37*
G36*
X134162637Y-53379298D02*
G01*
X134162637Y-53799396D01*
X134582247Y-53799396D01*
X134582247Y-53379298D01*
X134162637Y-53379298D01*
G37*
G36*
X134444005Y-53928356D02*
G01*
X134444005Y-54348454D01*
X134863614Y-54348454D01*
X134863614Y-53928356D01*
X134444005Y-53928356D01*
G37*
G36*
X135569476Y-53928356D02*
G01*
X135569476Y-54348454D01*
X135989085Y-54348454D01*
X135989085Y-53928356D01*
X135569476Y-53928356D01*
G37*
G36*
X137525861Y-52253827D02*
G01*
X137525861Y-52673925D01*
X137945471Y-52673925D01*
X137945471Y-52253827D01*
X137525861Y-52253827D01*
G37*
G36*
X135850844Y-52253827D02*
G01*
X135850844Y-52673925D01*
X136270453Y-52673925D01*
X136270453Y-52253827D01*
X135850844Y-52253827D01*
G37*
G36*
X134725373Y-52253827D02*
G01*
X134725373Y-52673925D01*
X135144982Y-52673925D01*
X135144982Y-52253827D01*
X134725373Y-52253827D01*
G37*
G36*
X136132212Y-53928356D02*
G01*
X136132212Y-54348454D01*
X136551821Y-54348454D01*
X136551821Y-53928356D01*
X136132212Y-53928356D01*
G37*
G36*
X134162637Y-52816563D02*
G01*
X134162637Y-53236660D01*
X134582247Y-53236660D01*
X134582247Y-52816563D01*
X134162637Y-52816563D01*
G37*
G36*
X135006741Y-53928356D02*
G01*
X135006741Y-54348454D01*
X135426350Y-54348454D01*
X135426350Y-53928356D01*
X135006741Y-53928356D01*
G37*
G36*
X136400390Y-52253827D02*
G01*
X136400390Y-52673925D01*
X136820000Y-52673925D01*
X136820000Y-52253827D01*
X136400390Y-52253827D01*
G37*
G36*
X136400390Y-52816563D02*
G01*
X136400390Y-53236660D01*
X136820000Y-53236660D01*
X136820000Y-52816563D01*
X136400390Y-52816563D01*
G37*
G36*
X136400390Y-53379298D02*
G01*
X136400390Y-53799396D01*
X136820000Y-53799396D01*
X136820000Y-53379298D01*
X136400390Y-53379298D01*
G37*
G36*
X135288108Y-52253827D02*
G01*
X135288108Y-52673925D01*
X135707718Y-52673925D01*
X135707718Y-52253827D01*
X135288108Y-52253827D01*
G37*
G36*
X136963126Y-52253827D02*
G01*
X136963126Y-52673925D01*
X137382735Y-52673925D01*
X137382735Y-52253827D01*
X136963126Y-52253827D01*
G37*
G36*
X134162637Y-55616563D02*
G01*
X134162637Y-56036660D01*
X134582247Y-56036660D01*
X134582247Y-55616563D01*
X134162637Y-55616563D01*
G37*
G36*
X134444005Y-55053827D02*
G01*
X134444005Y-55473925D01*
X134863614Y-55473925D01*
X134863614Y-55053827D01*
X134444005Y-55053827D01*
G37*
G36*
X135556287Y-55053827D02*
G01*
X135556287Y-55473925D01*
X135975896Y-55473925D01*
X135975896Y-55053827D01*
X135556287Y-55053827D01*
G37*
G36*
X135556287Y-56728356D02*
G01*
X135556287Y-57148454D01*
X135975896Y-57148454D01*
X135975896Y-56728356D01*
X135556287Y-56728356D01*
G37*
G36*
X135006741Y-56728356D02*
G01*
X135006741Y-57148454D01*
X135426350Y-57148454D01*
X135426350Y-56728356D01*
X135006741Y-56728356D01*
G37*
G36*
X136119023Y-55053827D02*
G01*
X136119023Y-55473925D01*
X136538632Y-55473925D01*
X136538632Y-55053827D01*
X136119023Y-55053827D01*
G37*
G36*
X136119023Y-56728356D02*
G01*
X136119023Y-57148454D01*
X136538632Y-57148454D01*
X136538632Y-56728356D01*
X136119023Y-56728356D01*
G37*
G36*
X134162637Y-56179298D02*
G01*
X134162637Y-56599396D01*
X134582247Y-56599396D01*
X134582247Y-56179298D01*
X134162637Y-56179298D01*
G37*
G36*
X134444005Y-56728356D02*
G01*
X134444005Y-57148454D01*
X134863614Y-57148454D01*
X134863614Y-56728356D01*
X134444005Y-56728356D01*
G37*
G36*
X135274919Y-55616563D02*
G01*
X135274919Y-56036660D01*
X135694528Y-56036660D01*
X135694528Y-55616563D01*
X135274919Y-55616563D01*
G37*
G36*
X135274919Y-56179298D02*
G01*
X135274919Y-56599396D01*
X135694528Y-56599396D01*
X135694528Y-56179298D01*
X135274919Y-56179298D01*
G37*
G36*
X136400390Y-55616563D02*
G01*
X136400390Y-56036660D01*
X136820000Y-56036660D01*
X136820000Y-55616563D01*
X136400390Y-55616563D01*
G37*
G36*
X136400390Y-56179298D02*
G01*
X136400390Y-56599396D01*
X136820000Y-56599396D01*
X136820000Y-56179298D01*
X136400390Y-56179298D01*
G37*
G36*
X134162637Y-58416563D02*
G01*
X134162637Y-58836660D01*
X134582247Y-58836660D01*
X134582247Y-58416563D01*
X134162637Y-58416563D01*
G37*
G36*
X134444005Y-57853827D02*
G01*
X134444005Y-58273925D01*
X134863614Y-58273925D01*
X134863614Y-57853827D01*
X134444005Y-57853827D01*
G37*
G36*
X136119023Y-59528356D02*
G01*
X136119023Y-59948454D01*
X136538632Y-59948454D01*
X136538632Y-59528356D01*
X136119023Y-59528356D01*
G37*
G36*
X136400390Y-58416563D02*
G01*
X136400390Y-58836660D01*
X136820000Y-58836660D01*
X136820000Y-58416563D01*
X136400390Y-58416563D01*
G37*
G36*
X135006741Y-57853827D02*
G01*
X135006741Y-58273925D01*
X135426350Y-58273925D01*
X135426350Y-57853827D01*
X135006741Y-57853827D01*
G37*
G36*
X136400390Y-58979298D02*
G01*
X136400390Y-59399396D01*
X136820000Y-59399396D01*
X136820000Y-58979298D01*
X136400390Y-58979298D01*
G37*
G36*
X134162637Y-58979298D02*
G01*
X134162637Y-59399396D01*
X134582247Y-59399396D01*
X134582247Y-58979298D01*
X134162637Y-58979298D01*
G37*
G36*
X134444005Y-59528356D02*
G01*
X134444005Y-59948454D01*
X134863614Y-59948454D01*
X134863614Y-59528356D01*
X134444005Y-59528356D01*
G37*
G36*
X135556287Y-57853827D02*
G01*
X135556287Y-58273925D01*
X135975896Y-58273925D01*
X135975896Y-57853827D01*
X135556287Y-57853827D01*
G37*
G36*
X136119023Y-57853827D02*
G01*
X136119023Y-58273925D01*
X136538632Y-58273925D01*
X136538632Y-57853827D01*
X136119023Y-57853827D01*
G37*
G36*
X134162637Y-61216563D02*
G01*
X134162637Y-61636660D01*
X134582247Y-61636660D01*
X134582247Y-61216563D01*
X134162637Y-61216563D01*
G37*
G36*
X134444005Y-60653827D02*
G01*
X134444005Y-61073925D01*
X134863614Y-61073925D01*
X134863614Y-60653827D01*
X134444005Y-60653827D01*
G37*
G36*
X135556287Y-60653827D02*
G01*
X135556287Y-61073925D01*
X135975896Y-61073925D01*
X135975896Y-60653827D01*
X135556287Y-60653827D01*
G37*
G36*
X135006741Y-60653827D02*
G01*
X135006741Y-61073925D01*
X135426350Y-61073925D01*
X135426350Y-60653827D01*
X135006741Y-60653827D01*
G37*
G36*
X135006741Y-62328356D02*
G01*
X135006741Y-62748454D01*
X135426350Y-62748454D01*
X135426350Y-62328356D01*
X135006741Y-62328356D01*
G37*
G36*
X136119023Y-60653827D02*
G01*
X136119023Y-61073925D01*
X136538632Y-61073925D01*
X136538632Y-60653827D01*
X136119023Y-60653827D01*
G37*
G36*
X136119023Y-62328356D02*
G01*
X136119023Y-62748454D01*
X136538632Y-62748454D01*
X136538632Y-62328356D01*
X136119023Y-62328356D01*
G37*
G36*
X134162637Y-61779298D02*
G01*
X134162637Y-62199396D01*
X134582247Y-62199396D01*
X134582247Y-61779298D01*
X134162637Y-61779298D01*
G37*
G36*
X134444005Y-62328356D02*
G01*
X134444005Y-62748454D01*
X134863614Y-62748454D01*
X134863614Y-62328356D01*
X134444005Y-62328356D01*
G37*
G36*
X136400390Y-61216563D02*
G01*
X136400390Y-61636660D01*
X136820000Y-61636660D01*
X136820000Y-61216563D01*
X136400390Y-61216563D01*
G37*
G36*
X136400390Y-61779298D02*
G01*
X136400390Y-62199396D01*
X136820000Y-62199396D01*
X136820000Y-61779298D01*
X136400390Y-61779298D01*
G37*
G36*
X135274919Y-61216563D02*
G01*
X135274919Y-61636660D01*
X135694528Y-61636660D01*
X135694528Y-61216563D01*
X135274919Y-61216563D01*
G37*
G36*
X135274919Y-61779298D02*
G01*
X135274919Y-62199396D01*
X135694528Y-62199396D01*
X135694528Y-61779298D01*
X135274919Y-61779298D01*
G37*
G36*
X133037166Y-64016563D02*
G01*
X133037166Y-64436660D01*
X133456775Y-64436660D01*
X133456775Y-64016563D01*
X133037166Y-64016563D01*
G37*
G36*
X133037166Y-65128356D02*
G01*
X133037166Y-65548454D01*
X133456775Y-65548454D01*
X133456775Y-65128356D01*
X133037166Y-65128356D01*
G37*
G36*
X133318534Y-63453827D02*
G01*
X133318534Y-63873925D01*
X133738143Y-63873925D01*
X133738143Y-63453827D01*
X133318534Y-63453827D01*
G37*
G36*
X134725373Y-64016563D02*
G01*
X134725373Y-64436660D01*
X135144982Y-64436660D01*
X135144982Y-64016563D01*
X134725373Y-64016563D01*
G37*
G36*
X136400390Y-64016563D02*
G01*
X136400390Y-64436660D01*
X136820000Y-64436660D01*
X136820000Y-64016563D01*
X136400390Y-64016563D01*
G37*
G36*
X136400390Y-64579298D02*
G01*
X136400390Y-64999396D01*
X136820000Y-64999396D01*
X136820000Y-64579298D01*
X136400390Y-64579298D01*
G37*
G36*
X136400390Y-65128356D02*
G01*
X136400390Y-65548454D01*
X136820000Y-65548454D01*
X136820000Y-65128356D01*
X136400390Y-65128356D01*
G37*
G36*
X136400390Y-65691092D02*
G01*
X136400390Y-66111189D01*
X136820000Y-66111189D01*
X136820000Y-65691092D01*
X136400390Y-65691092D01*
G37*
G36*
X134725373Y-64579298D02*
G01*
X134725373Y-64999396D01*
X135144982Y-64999396D01*
X135144982Y-64579298D01*
X134725373Y-64579298D01*
G37*
G36*
X134725373Y-65128356D02*
G01*
X134725373Y-65548454D01*
X135144982Y-65548454D01*
X135144982Y-65128356D01*
X134725373Y-65128356D01*
G37*
G36*
X135006741Y-63453827D02*
G01*
X135006741Y-63873925D01*
X135426350Y-63873925D01*
X135426350Y-63453827D01*
X135006741Y-63453827D01*
G37*
G36*
X133037166Y-64579298D02*
G01*
X133037166Y-64999396D01*
X133456775Y-64999396D01*
X133456775Y-64579298D01*
X133037166Y-64579298D01*
G37*
G36*
X133881270Y-63453827D02*
G01*
X133881270Y-63873925D01*
X134300879Y-63873925D01*
X134300879Y-63453827D01*
X133881270Y-63453827D01*
G37*
G36*
X135556287Y-63453827D02*
G01*
X135556287Y-63873925D01*
X135975896Y-63873925D01*
X135975896Y-63453827D01*
X135556287Y-63453827D01*
G37*
G36*
X133037166Y-65691092D02*
G01*
X133037166Y-66111189D01*
X133456775Y-66111189D01*
X133456775Y-65691092D01*
X133037166Y-65691092D01*
G37*
G36*
X134444005Y-63453827D02*
G01*
X134444005Y-63873925D01*
X134863614Y-63873925D01*
X134863614Y-63453827D01*
X134444005Y-63453827D01*
G37*
G36*
X136119023Y-63453827D02*
G01*
X136119023Y-63873925D01*
X136538632Y-63873925D01*
X136538632Y-63453827D01*
X136119023Y-63453827D01*
G37*
G36*
X134162637Y-67375390D02*
G01*
X134162637Y-67795488D01*
X134582247Y-67795488D01*
X134582247Y-67375390D01*
X134162637Y-67375390D01*
G37*
G36*
X134162637Y-68487184D02*
G01*
X134162637Y-68907281D01*
X134582247Y-68907281D01*
X134582247Y-68487184D01*
X134162637Y-68487184D01*
G37*
G36*
X135569476Y-66812655D02*
G01*
X135569476Y-67232752D01*
X135989085Y-67232752D01*
X135989085Y-66812655D01*
X135569476Y-66812655D01*
G37*
G36*
X137525861Y-67375390D02*
G01*
X137525861Y-67795488D01*
X137945471Y-67795488D01*
X137945471Y-67375390D01*
X137525861Y-67375390D01*
G37*
G36*
X137525861Y-67938126D02*
G01*
X137525861Y-68358224D01*
X137945471Y-68358224D01*
X137945471Y-67938126D01*
X137525861Y-67938126D01*
G37*
G36*
X135850844Y-68487184D02*
G01*
X135850844Y-68907281D01*
X136270453Y-68907281D01*
X136270453Y-68487184D01*
X135850844Y-68487184D01*
G37*
G36*
X134725373Y-68487184D02*
G01*
X134725373Y-68907281D01*
X135144982Y-68907281D01*
X135144982Y-68487184D01*
X134725373Y-68487184D01*
G37*
G36*
X136132212Y-66812655D02*
G01*
X136132212Y-67232752D01*
X136551821Y-67232752D01*
X136551821Y-66812655D01*
X136132212Y-66812655D01*
G37*
G36*
X135006741Y-66812655D02*
G01*
X135006741Y-67232752D01*
X135426350Y-67232752D01*
X135426350Y-66812655D01*
X135006741Y-66812655D01*
G37*
G36*
X134162637Y-67938126D02*
G01*
X134162637Y-68358224D01*
X134582247Y-68358224D01*
X134582247Y-67938126D01*
X134162637Y-67938126D01*
G37*
G36*
X134444005Y-66812655D02*
G01*
X134444005Y-67232752D01*
X134863614Y-67232752D01*
X134863614Y-66812655D01*
X134444005Y-66812655D01*
G37*
G36*
X136400390Y-67375390D02*
G01*
X136400390Y-67795488D01*
X136820000Y-67795488D01*
X136820000Y-67375390D01*
X136400390Y-67375390D01*
G37*
G36*
X136400390Y-67938126D02*
G01*
X136400390Y-68358224D01*
X136820000Y-68358224D01*
X136820000Y-67938126D01*
X136400390Y-67938126D01*
G37*
G36*
X136400390Y-68487184D02*
G01*
X136400390Y-68907281D01*
X136820000Y-68907281D01*
X136820000Y-68487184D01*
X136400390Y-68487184D01*
G37*
G36*
X135288108Y-68487184D02*
G01*
X135288108Y-68907281D01*
X135707718Y-68907281D01*
X135707718Y-68487184D01*
X135288108Y-68487184D01*
G37*
G36*
X136963126Y-68487184D02*
G01*
X136963126Y-68907281D01*
X137382735Y-68907281D01*
X137382735Y-68487184D01*
X136963126Y-68487184D01*
G37*
G36*
X134162637Y-70175390D02*
G01*
X134162637Y-70595488D01*
X134582247Y-70595488D01*
X134582247Y-70175390D01*
X134162637Y-70175390D01*
G37*
G36*
X134162637Y-71287184D02*
G01*
X134162637Y-71707281D01*
X134582247Y-71707281D01*
X134582247Y-71287184D01*
X134162637Y-71287184D01*
G37*
G36*
X135569476Y-69612655D02*
G01*
X135569476Y-70032752D01*
X135989085Y-70032752D01*
X135989085Y-69612655D01*
X135569476Y-69612655D01*
G37*
G36*
X137525861Y-70175390D02*
G01*
X137525861Y-70595488D01*
X137945471Y-70595488D01*
X137945471Y-70175390D01*
X137525861Y-70175390D01*
G37*
G36*
X137525861Y-70738126D02*
G01*
X137525861Y-71158224D01*
X137945471Y-71158224D01*
X137945471Y-70738126D01*
X137525861Y-70738126D01*
G37*
G36*
X135850844Y-71287184D02*
G01*
X135850844Y-71707281D01*
X136270453Y-71707281D01*
X136270453Y-71287184D01*
X135850844Y-71287184D01*
G37*
G36*
X134725373Y-71287184D02*
G01*
X134725373Y-71707281D01*
X135144982Y-71707281D01*
X135144982Y-71287184D01*
X134725373Y-71287184D01*
G37*
G36*
X136132212Y-69612655D02*
G01*
X136132212Y-70032752D01*
X136551821Y-70032752D01*
X136551821Y-69612655D01*
X136132212Y-69612655D01*
G37*
G36*
X135006741Y-69612655D02*
G01*
X135006741Y-70032752D01*
X135426350Y-70032752D01*
X135426350Y-69612655D01*
X135006741Y-69612655D01*
G37*
G36*
X134162637Y-70738126D02*
G01*
X134162637Y-71158224D01*
X134582247Y-71158224D01*
X134582247Y-70738126D01*
X134162637Y-70738126D01*
G37*
G36*
X134444005Y-69612655D02*
G01*
X134444005Y-70032752D01*
X134863614Y-70032752D01*
X134863614Y-69612655D01*
X134444005Y-69612655D01*
G37*
G36*
X136400390Y-70175390D02*
G01*
X136400390Y-70595488D01*
X136820000Y-70595488D01*
X136820000Y-70175390D01*
X136400390Y-70175390D01*
G37*
G36*
X136400390Y-70738126D02*
G01*
X136400390Y-71158224D01*
X136820000Y-71158224D01*
X136820000Y-70738126D01*
X136400390Y-70738126D01*
G37*
G36*
X136400390Y-71287184D02*
G01*
X136400390Y-71707281D01*
X136820000Y-71707281D01*
X136820000Y-71287184D01*
X136400390Y-71287184D01*
G37*
G36*
X135288108Y-71287184D02*
G01*
X135288108Y-71707281D01*
X135707718Y-71707281D01*
X135707718Y-71287184D01*
X135288108Y-71287184D01*
G37*
G36*
X136963126Y-71287184D02*
G01*
X136963126Y-71707281D01*
X137382735Y-71707281D01*
X137382735Y-71287184D01*
X136963126Y-71287184D01*
G37*
G36*
X134162637Y-72975390D02*
G01*
X134162637Y-73395488D01*
X134582247Y-73395488D01*
X134582247Y-72975390D01*
X134162637Y-72975390D01*
G37*
G36*
X134444005Y-72412655D02*
G01*
X134444005Y-72832752D01*
X134863614Y-72832752D01*
X134863614Y-72412655D01*
X134444005Y-72412655D01*
G37*
G36*
X135556287Y-74087184D02*
G01*
X135556287Y-74507281D01*
X135975896Y-74507281D01*
X135975896Y-74087184D01*
X135556287Y-74087184D01*
G37*
G36*
X135006741Y-72412655D02*
G01*
X135006741Y-72832752D01*
X135426350Y-72832752D01*
X135426350Y-72412655D01*
X135006741Y-72412655D01*
G37*
G36*
X136119023Y-72412655D02*
G01*
X136119023Y-72832752D01*
X136538632Y-72832752D01*
X136538632Y-72412655D01*
X136119023Y-72412655D01*
G37*
G36*
X136119023Y-74087184D02*
G01*
X136119023Y-74507281D01*
X136538632Y-74507281D01*
X136538632Y-74087184D01*
X136119023Y-74087184D01*
G37*
G36*
X134162637Y-73538126D02*
G01*
X134162637Y-73958224D01*
X134582247Y-73958224D01*
X134582247Y-73538126D01*
X134162637Y-73538126D01*
G37*
G36*
X134444005Y-74087184D02*
G01*
X134444005Y-74507281D01*
X134863614Y-74507281D01*
X134863614Y-74087184D01*
X134444005Y-74087184D01*
G37*
G36*
X136400390Y-72975390D02*
G01*
X136400390Y-73395488D01*
X136820000Y-73395488D01*
X136820000Y-72975390D01*
X136400390Y-72975390D01*
G37*
G36*
X136400390Y-73538126D02*
G01*
X136400390Y-73958224D01*
X136820000Y-73958224D01*
X136820000Y-73538126D01*
X136400390Y-73538126D01*
G37*
G36*
X135274919Y-72975390D02*
G01*
X135274919Y-73395488D01*
X135694528Y-73395488D01*
X135694528Y-72975390D01*
X135274919Y-72975390D01*
G37*
G36*
X135274919Y-73538126D02*
G01*
X135274919Y-73958224D01*
X135694528Y-73958224D01*
X135694528Y-73538126D01*
X135274919Y-73538126D01*
G37*
D12*
%TO.C,D2*%
X121000000Y-63000000D03*
D13*
X118460000Y-63000000D03*
%TD*%
D14*
%TO.C,SW1*%
X101600000Y-52070000D03*
D15*
X101600000Y-72390000D03*
%TD*%
D12*
%TO.C,D3*%
X121275000Y-46500000D03*
D13*
X118735000Y-46500000D03*
%TD*%
D16*
%TO.C,BT1*%
X108549520Y-62500000D03*
D17*
X128549520Y-62500000D03*
%TD*%
D12*
%TO.C,D1*%
X121500000Y-79500000D03*
D13*
X118960000Y-79500000D03*
%TD*%
M02*
