%TF.GenerationSoftware,KiCad,Pcbnew,9.0.0*%
%TF.CreationDate,2025-03-06T09:18:45+01:00*%
%TF.ProjectId,spaceEggs,73706163-6545-4676-9773-2e6b69636164,rev?*%
%TF.SameCoordinates,Original*%
%TF.FileFunction,Copper,L2,Bot*%
%TF.FilePolarity,Positive*%
%FSLAX46Y46*%
G04 Gerber Fmt 4.6, Leading zero omitted, Abs format (unit mm)*
G04 Created by KiCad (PCBNEW 9.0.0) date 2025-03-06 09:18:45*
%MOMM*%
%LPD*%
G01*
G04 APERTURE LIST*
G04 Aperture macros list*
%AMFreePoly0*
4,1,45,0.566779,1.223902,0.603106,1.173902,0.608000,1.143000,0.608000,0.609600,0.609600,0.609600,0.609600,0.608000,1.143000,0.608000,1.201779,0.588902,1.238106,0.538902,1.243000,0.508000,1.243000,-0.508000,1.223902,-0.566779,1.173902,-0.603106,1.143000,-0.608000,0.609600,-0.608000,0.609600,-0.609600,0.608000,-0.609600,0.608000,-1.143000,0.588902,-1.201779,0.538902,-1.238106,
0.508000,-1.243000,-0.508000,-1.243000,-0.566779,-1.223902,-0.603106,-1.173902,-0.608000,-1.143000,-0.608000,-0.609600,-0.609600,-0.609600,-0.609600,-0.608000,-1.143000,-0.608000,-1.201779,-0.588902,-1.238106,-0.538902,-1.243000,-0.508000,-1.243000,0.508000,-1.223902,0.566779,-1.173902,0.603106,-1.143000,0.608000,-0.609600,0.608000,-0.609600,0.609600,-0.608000,0.609600,-0.608000,1.143000,
-0.588902,1.201779,-0.538902,1.238106,-0.508000,1.243000,0.508000,1.243000,0.566779,1.223902,0.566779,1.223902,$1*%
G04 Aperture macros list end*
%TA.AperFunction,ComponentPad*%
%ADD10R,1.800000X1.800000*%
%TD*%
%TA.AperFunction,ComponentPad*%
%ADD11FreePoly0,180.000000*%
%TD*%
%TA.AperFunction,ComponentPad*%
%ADD12C,1.600000*%
%TD*%
%TA.AperFunction,ComponentPad*%
%ADD13O,1.600000X1.600000*%
%TD*%
%TA.AperFunction,ComponentPad*%
%ADD14R,3.000000X3.000000*%
%TD*%
%TA.AperFunction,ComponentPad*%
%ADD15C,3.000000*%
%TD*%
%TA.AperFunction,ViaPad*%
%ADD16C,0.800000*%
%TD*%
%TA.AperFunction,Conductor*%
%ADD17C,1.000000*%
%TD*%
G04 APERTURE END LIST*
D10*
%TO.P,D2,1,K*%
%TO.N,GND*%
X121000000Y-63000000D03*
D11*
%TO.P,D2,2,A*%
%TO.N,VCC*%
X118460000Y-63000000D03*
%TD*%
D12*
%TO.P,SW1,1,1*%
%TO.N,VCC*%
X101600000Y-52070000D03*
D13*
%TO.P,SW1,2,2*%
%TO.N,+3V0*%
X101600000Y-72390000D03*
%TD*%
D10*
%TO.P,D3,1,K*%
%TO.N,GND*%
X121275000Y-46500000D03*
D11*
%TO.P,D3,2,A*%
%TO.N,VCC*%
X118735000Y-46500000D03*
%TD*%
D14*
%TO.P,BT1,1,+*%
%TO.N,+3V0*%
X108549520Y-62500000D03*
D15*
%TO.P,BT1,2,-*%
%TO.N,GND*%
X128549520Y-62500000D03*
%TD*%
D10*
%TO.P,D1,1,K*%
%TO.N,GND*%
X121500000Y-79500000D03*
D11*
%TO.P,D1,2,A*%
%TO.N,VCC*%
X118960000Y-79500000D03*
%TD*%
D16*
%TO.N,VCC*%
X130810000Y-53340000D03*
X109855000Y-71120000D03*
%TD*%
D17*
%TO.N,+3V0*%
X101600000Y-72390000D02*
X105500000Y-68490000D01*
X105500000Y-66500000D02*
X109500000Y-62500000D01*
X105500000Y-68490000D02*
X105500000Y-66500000D01*
%TD*%
%TA.AperFunction,Conductor*%
%TO.N,VCC*%
G36*
X120465490Y-40105389D02*
G01*
X121385460Y-40143440D01*
X121390538Y-40143755D01*
X122308158Y-40219792D01*
X122313173Y-40220311D01*
X123226892Y-40334206D01*
X123231963Y-40334944D01*
X124140151Y-40486494D01*
X124145160Y-40487437D01*
X125046316Y-40676390D01*
X125051283Y-40677539D01*
X125875737Y-40886319D01*
X125943861Y-40903571D01*
X125948804Y-40904932D01*
X126831283Y-41167657D01*
X126836113Y-41169205D01*
X127514302Y-41402027D01*
X127706974Y-41468172D01*
X127711786Y-41469936D01*
X127968608Y-41570148D01*
X128569542Y-41804633D01*
X128574240Y-41806578D01*
X128994062Y-41990730D01*
X129417457Y-42176449D01*
X129422078Y-42178590D01*
X130249325Y-42583007D01*
X130253765Y-42585292D01*
X131063589Y-43023546D01*
X131068033Y-43026072D01*
X131858996Y-43497383D01*
X131863344Y-43500097D01*
X132634160Y-44003696D01*
X132638391Y-44006588D01*
X133387730Y-44541605D01*
X133391788Y-44544630D01*
X134098870Y-45094974D01*
X134118409Y-45110182D01*
X134122387Y-45113413D01*
X134824973Y-45708472D01*
X134828815Y-45711864D01*
X135506240Y-46335478D01*
X135509938Y-46339027D01*
X136160972Y-46990061D01*
X136164521Y-46993759D01*
X136788135Y-47671184D01*
X136791527Y-47675026D01*
X137386586Y-48377612D01*
X137389817Y-48381590D01*
X137955363Y-49108203D01*
X137958394Y-49112269D01*
X138493411Y-49861608D01*
X138496303Y-49865839D01*
X138999902Y-50636655D01*
X139002616Y-50641003D01*
X139473927Y-51431966D01*
X139476459Y-51436422D01*
X139914697Y-52246216D01*
X139917001Y-52250693D01*
X140306662Y-53047755D01*
X140321395Y-53077892D01*
X140323550Y-53082542D01*
X140693413Y-53925741D01*
X140695374Y-53930476D01*
X141030063Y-54788213D01*
X141031827Y-54793025D01*
X141330786Y-55663861D01*
X141332350Y-55668742D01*
X141595067Y-56551196D01*
X141596428Y-56556138D01*
X141822457Y-57448703D01*
X141823612Y-57453696D01*
X142012559Y-58354825D01*
X142013507Y-58359862D01*
X142165054Y-59268035D01*
X142165793Y-59273107D01*
X142279683Y-60186785D01*
X142280211Y-60191883D01*
X142356242Y-61109442D01*
X142356560Y-61114558D01*
X142394610Y-62034509D01*
X142394716Y-62039633D01*
X142394716Y-62960366D01*
X142394610Y-62965490D01*
X142356560Y-63885441D01*
X142356242Y-63890557D01*
X142280211Y-64808116D01*
X142279683Y-64813214D01*
X142165793Y-65726892D01*
X142165054Y-65731964D01*
X142013507Y-66640137D01*
X142012559Y-66645174D01*
X141823612Y-67546303D01*
X141822457Y-67551296D01*
X141596428Y-68443861D01*
X141595067Y-68448803D01*
X141332350Y-69331257D01*
X141330786Y-69336138D01*
X141031827Y-70206974D01*
X141030063Y-70211786D01*
X140695374Y-71069523D01*
X140693413Y-71074258D01*
X140323550Y-71917457D01*
X140321395Y-71922107D01*
X140242450Y-72083592D01*
X139917011Y-72749287D01*
X139914687Y-72753803D01*
X139839742Y-72892290D01*
X139476459Y-73563577D01*
X139473927Y-73568033D01*
X139002616Y-74358996D01*
X138999902Y-74363344D01*
X138496303Y-75134160D01*
X138493411Y-75138391D01*
X137958394Y-75887730D01*
X137955345Y-75891819D01*
X137861150Y-76012842D01*
X137389817Y-76618409D01*
X137386586Y-76622387D01*
X136791527Y-77324973D01*
X136788135Y-77328815D01*
X136164521Y-78006240D01*
X136160972Y-78009938D01*
X135509938Y-78660972D01*
X135506240Y-78664521D01*
X134828815Y-79288135D01*
X134824973Y-79291527D01*
X134122387Y-79886586D01*
X134118409Y-79889817D01*
X133706844Y-80210152D01*
X133391819Y-80455345D01*
X133387730Y-80458394D01*
X132638391Y-80993411D01*
X132634160Y-80996303D01*
X131863344Y-81499902D01*
X131858996Y-81502616D01*
X131068033Y-81973927D01*
X131063577Y-81976459D01*
X130735156Y-82154192D01*
X130253803Y-82414687D01*
X130249287Y-82417011D01*
X129632771Y-82718407D01*
X129422107Y-82821395D01*
X129417457Y-82823550D01*
X128574258Y-83193413D01*
X128569523Y-83195374D01*
X127711786Y-83530063D01*
X127706974Y-83531827D01*
X126836138Y-83830786D01*
X126831257Y-83832350D01*
X125948803Y-84095067D01*
X125943861Y-84096428D01*
X125051296Y-84322457D01*
X125046303Y-84323612D01*
X124145174Y-84512559D01*
X124140137Y-84513507D01*
X123231964Y-84665054D01*
X123226892Y-84665793D01*
X122313214Y-84779683D01*
X122308116Y-84780211D01*
X121390557Y-84856242D01*
X121385441Y-84856560D01*
X120465491Y-84894610D01*
X120460367Y-84894716D01*
X119539633Y-84894716D01*
X119534509Y-84894610D01*
X118614558Y-84856560D01*
X118609442Y-84856242D01*
X117691883Y-84780211D01*
X117686785Y-84779683D01*
X116773107Y-84665793D01*
X116768035Y-84665054D01*
X115859862Y-84513507D01*
X115854825Y-84512559D01*
X114953696Y-84323612D01*
X114948703Y-84322457D01*
X114056138Y-84096428D01*
X114051196Y-84095067D01*
X113168742Y-83832350D01*
X113163861Y-83830786D01*
X112293025Y-83531827D01*
X112288213Y-83530063D01*
X111430476Y-83195374D01*
X111425741Y-83193413D01*
X110582542Y-82823550D01*
X110577892Y-82821395D01*
X109750693Y-82417001D01*
X109746216Y-82414697D01*
X108936422Y-81976459D01*
X108931966Y-81973927D01*
X108141003Y-81502616D01*
X108136655Y-81499902D01*
X107418812Y-81030912D01*
X107365839Y-80996303D01*
X107361608Y-80993411D01*
X106612269Y-80458394D01*
X106608203Y-80455363D01*
X105881590Y-79889817D01*
X105877612Y-79886586D01*
X105175026Y-79291527D01*
X105171184Y-79288135D01*
X104943787Y-79078801D01*
X104849497Y-78992001D01*
X117207000Y-78992001D01*
X117207000Y-80008007D01*
X117213215Y-80086985D01*
X117218358Y-80119454D01*
X117241507Y-80210152D01*
X117308587Y-80337280D01*
X117346730Y-80389780D01*
X117364340Y-80412616D01*
X117470240Y-80509811D01*
X117554974Y-80551472D01*
X117554976Y-80551471D01*
X118517862Y-79588585D01*
X118540667Y-79673694D01*
X118599910Y-79776306D01*
X118683694Y-79860090D01*
X118786306Y-79919333D01*
X118871414Y-79942137D01*
X117908247Y-80905303D01*
X117908247Y-80905304D01*
X117943585Y-80972278D01*
X117981730Y-81024780D01*
X117999340Y-81047616D01*
X118105239Y-81144810D01*
X118105241Y-81144811D01*
X118234227Y-81208229D01*
X118234241Y-81208235D01*
X118295956Y-81228287D01*
X118309716Y-81232541D01*
X118309729Y-81232544D01*
X118452001Y-81252999D01*
X118452003Y-81253000D01*
X119467992Y-81253000D01*
X119468007Y-81252999D01*
X119546985Y-81246784D01*
X119579454Y-81241641D01*
X119670152Y-81218492D01*
X119797280Y-81151412D01*
X119849780Y-81113269D01*
X119872616Y-81095660D01*
X119969811Y-80989759D01*
X120011471Y-80905023D01*
X120011471Y-80905022D01*
X119048585Y-79942137D01*
X119133694Y-79919333D01*
X119236306Y-79860090D01*
X119320090Y-79776306D01*
X119379333Y-79673694D01*
X119402137Y-79588585D01*
X120055181Y-80241629D01*
X120088666Y-80302952D01*
X120091500Y-80329310D01*
X120091500Y-80448654D01*
X120098011Y-80509202D01*
X120098011Y-80509204D01*
X120113777Y-80551472D01*
X120149111Y-80646204D01*
X120236739Y-80763261D01*
X120353796Y-80850889D01*
X120490799Y-80901989D01*
X120518050Y-80904918D01*
X120551345Y-80908499D01*
X120551362Y-80908500D01*
X122448638Y-80908500D01*
X122448654Y-80908499D01*
X122475692Y-80905591D01*
X122509201Y-80901989D01*
X122646204Y-80850889D01*
X122763261Y-80763261D01*
X122850889Y-80646204D01*
X122896555Y-80523768D01*
X122901988Y-80509204D01*
X122901988Y-80509203D01*
X122901989Y-80509201D01*
X122905591Y-80475692D01*
X122908499Y-80448654D01*
X122908500Y-80448637D01*
X122908500Y-78551362D01*
X122908499Y-78551345D01*
X122905157Y-78520270D01*
X122901989Y-78490799D01*
X122850889Y-78353796D01*
X122763261Y-78236739D01*
X122646204Y-78149111D01*
X122509203Y-78098011D01*
X122448654Y-78091500D01*
X122448638Y-78091500D01*
X120551362Y-78091500D01*
X120551345Y-78091500D01*
X120490797Y-78098011D01*
X120490795Y-78098011D01*
X120353795Y-78149111D01*
X120236739Y-78236739D01*
X120149111Y-78353795D01*
X120098011Y-78490795D01*
X120098011Y-78490797D01*
X120091500Y-78551345D01*
X120091500Y-78670690D01*
X120071815Y-78737729D01*
X120055181Y-78758371D01*
X119402137Y-79411414D01*
X119379333Y-79326306D01*
X119320090Y-79223694D01*
X119236306Y-79139910D01*
X119133694Y-79080667D01*
X119048586Y-79057862D01*
X120011751Y-78094696D01*
X120011751Y-78094694D01*
X119976414Y-78027721D01*
X119976410Y-78027716D01*
X119938269Y-77975219D01*
X119920659Y-77952383D01*
X119814760Y-77855189D01*
X119814758Y-77855188D01*
X119685772Y-77791770D01*
X119685758Y-77791764D01*
X119624043Y-77771712D01*
X119610283Y-77767458D01*
X119610270Y-77767455D01*
X119467998Y-77747000D01*
X118451992Y-77747000D01*
X118373014Y-77753215D01*
X118340545Y-77758358D01*
X118249847Y-77781507D01*
X118122719Y-77848587D01*
X118070219Y-77886730D01*
X118047383Y-77904340D01*
X117950188Y-78010240D01*
X117908527Y-78094974D01*
X117908527Y-78094975D01*
X118871414Y-79057862D01*
X118786306Y-79080667D01*
X118683694Y-79139910D01*
X118599910Y-79223694D01*
X118540667Y-79326306D01*
X118517862Y-79411413D01*
X117554695Y-78448247D01*
X117487719Y-78483587D01*
X117435219Y-78521730D01*
X117412383Y-78539340D01*
X117315189Y-78645239D01*
X117315188Y-78645241D01*
X117251770Y-78774227D01*
X117251764Y-78774241D01*
X117231712Y-78835956D01*
X117227458Y-78849716D01*
X117227455Y-78849729D01*
X117207000Y-78992001D01*
X104849497Y-78992001D01*
X104493759Y-78664521D01*
X104490061Y-78660972D01*
X103839027Y-78009938D01*
X103835478Y-78006240D01*
X103211864Y-77328815D01*
X103208472Y-77324973D01*
X102613413Y-76622387D01*
X102610182Y-76618409D01*
X102044630Y-75891788D01*
X102041605Y-75887730D01*
X101506588Y-75138391D01*
X101503696Y-75134160D01*
X101000097Y-74363344D01*
X100997383Y-74358996D01*
X100526072Y-73568033D01*
X100523540Y-73563577D01*
X100457365Y-73441296D01*
X100442771Y-73372971D01*
X100467434Y-73307598D01*
X100523524Y-73265937D01*
X100593234Y-73261215D01*
X100654102Y-73294600D01*
X100747571Y-73388069D01*
X100747576Y-73388073D01*
X100892908Y-73493661D01*
X100914197Y-73509129D01*
X101021057Y-73563577D01*
X101097705Y-73602632D01*
X101097707Y-73602632D01*
X101097710Y-73602634D01*
X101202707Y-73636749D01*
X101293591Y-73666280D01*
X101395305Y-73682390D01*
X101497019Y-73698500D01*
X101497020Y-73698500D01*
X101702980Y-73698500D01*
X101702981Y-73698500D01*
X101906408Y-73666280D01*
X102102290Y-73602634D01*
X102285803Y-73509129D01*
X102452430Y-73388068D01*
X102598068Y-73242430D01*
X102719129Y-73075803D01*
X102812634Y-72892290D01*
X102876280Y-72696408D01*
X102899420Y-72550302D01*
X102929349Y-72487169D01*
X102934194Y-72482038D01*
X106283353Y-69132881D01*
X106393722Y-68967704D01*
X106469744Y-68784168D01*
X106508500Y-68589329D01*
X106508500Y-68390671D01*
X106508500Y-66969096D01*
X106528185Y-66902057D01*
X106544819Y-66881415D01*
X108881415Y-64544819D01*
X108942738Y-64511334D01*
X108969096Y-64508500D01*
X110098158Y-64508500D01*
X110098174Y-64508499D01*
X110125212Y-64505591D01*
X110158721Y-64501989D01*
X110295724Y-64450889D01*
X110412781Y-64363261D01*
X110500409Y-64246204D01*
X110551509Y-64109201D01*
X110555824Y-64069065D01*
X110558019Y-64048654D01*
X110558020Y-64048637D01*
X110558020Y-62492001D01*
X116707000Y-62492001D01*
X116707000Y-63508007D01*
X116713215Y-63586985D01*
X116718358Y-63619454D01*
X116741507Y-63710152D01*
X116808587Y-63837280D01*
X116846730Y-63889780D01*
X116864340Y-63912616D01*
X116970240Y-64009811D01*
X117054974Y-64051472D01*
X117054976Y-64051471D01*
X118017862Y-63088585D01*
X118040667Y-63173694D01*
X118099910Y-63276306D01*
X118183694Y-63360090D01*
X118286306Y-63419333D01*
X118371414Y-63442137D01*
X117408247Y-64405303D01*
X117408247Y-64405304D01*
X117443585Y-64472278D01*
X117481730Y-64524780D01*
X117499340Y-64547616D01*
X117605239Y-64644810D01*
X117605241Y-64644811D01*
X117734227Y-64708229D01*
X117734241Y-64708235D01*
X117795956Y-64728287D01*
X117809716Y-64732541D01*
X117809729Y-64732544D01*
X117952001Y-64752999D01*
X117952003Y-64753000D01*
X118967992Y-64753000D01*
X118968007Y-64752999D01*
X119046985Y-64746784D01*
X119079454Y-64741641D01*
X119170152Y-64718492D01*
X119297280Y-64651412D01*
X119349780Y-64613269D01*
X119372616Y-64595660D01*
X119469811Y-64489759D01*
X119511471Y-64405023D01*
X119511471Y-64405022D01*
X118548585Y-63442137D01*
X118633694Y-63419333D01*
X118736306Y-63360090D01*
X118820090Y-63276306D01*
X118879333Y-63173694D01*
X118902137Y-63088585D01*
X119555181Y-63741629D01*
X119588666Y-63802952D01*
X119591500Y-63829310D01*
X119591500Y-63948654D01*
X119598011Y-64009202D01*
X119598011Y-64009204D01*
X119649111Y-64146204D01*
X119736739Y-64263261D01*
X119853796Y-64350889D01*
X119990799Y-64401989D01*
X120018050Y-64404918D01*
X120051345Y-64408499D01*
X120051362Y-64408500D01*
X121948638Y-64408500D01*
X121948654Y-64408499D01*
X121975692Y-64405591D01*
X122009201Y-64401989D01*
X122146204Y-64350889D01*
X122263261Y-64263261D01*
X122350889Y-64146204D01*
X122400458Y-64013306D01*
X122401988Y-64009204D01*
X122401988Y-64009203D01*
X122401989Y-64009201D01*
X122405591Y-63975692D01*
X122408499Y-63948654D01*
X122408500Y-63948637D01*
X122408500Y-62368362D01*
X126541020Y-62368362D01*
X126541020Y-62631637D01*
X126541021Y-62631653D01*
X126575385Y-62892678D01*
X126643529Y-63146995D01*
X126744281Y-63390234D01*
X126744289Y-63390250D01*
X126875929Y-63618256D01*
X127036207Y-63827136D01*
X127036213Y-63827143D01*
X127222376Y-64013306D01*
X127222383Y-64013312D01*
X127431263Y-64173590D01*
X127659269Y-64305230D01*
X127659285Y-64305238D01*
X127774092Y-64352792D01*
X127902523Y-64405990D01*
X128156840Y-64474134D01*
X128417876Y-64508500D01*
X128417883Y-64508500D01*
X128681157Y-64508500D01*
X128681164Y-64508500D01*
X128942200Y-64474134D01*
X129196517Y-64405990D01*
X129379619Y-64330146D01*
X129439754Y-64305238D01*
X129439757Y-64305236D01*
X129439763Y-64305234D01*
X129667777Y-64173590D01*
X129876658Y-64013311D01*
X130062831Y-63827138D01*
X130223110Y-63618257D01*
X130354754Y-63390243D01*
X130455510Y-63146997D01*
X130523654Y-62892680D01*
X130558020Y-62631644D01*
X130558020Y-62368356D01*
X130523654Y-62107320D01*
X130455510Y-61853003D01*
X130407352Y-61736739D01*
X130354758Y-61609765D01*
X130354750Y-61609749D01*
X130223110Y-61381743D01*
X130062832Y-61172863D01*
X130062826Y-61172856D01*
X129876663Y-60986693D01*
X129876656Y-60986687D01*
X129667776Y-60826409D01*
X129439770Y-60694769D01*
X129439754Y-60694761D01*
X129196515Y-60594009D01*
X128942198Y-60525865D01*
X128681173Y-60491501D01*
X128681170Y-60491500D01*
X128681164Y-60491500D01*
X128417876Y-60491500D01*
X128417870Y-60491500D01*
X128417866Y-60491501D01*
X128156841Y-60525865D01*
X127902524Y-60594009D01*
X127659285Y-60694761D01*
X127659269Y-60694769D01*
X127431263Y-60826409D01*
X127222383Y-60986687D01*
X127222376Y-60986693D01*
X127036213Y-61172856D01*
X127036207Y-61172863D01*
X126875929Y-61381743D01*
X126744289Y-61609749D01*
X126744281Y-61609765D01*
X126643529Y-61853004D01*
X126575385Y-62107321D01*
X126541021Y-62368346D01*
X126541020Y-62368362D01*
X122408500Y-62368362D01*
X122408500Y-62051362D01*
X122408499Y-62051345D01*
X122405157Y-62020270D01*
X122401989Y-61990799D01*
X122350889Y-61853796D01*
X122263261Y-61736739D01*
X122146204Y-61649111D01*
X122009203Y-61598011D01*
X121948654Y-61591500D01*
X121948638Y-61591500D01*
X120051362Y-61591500D01*
X120051345Y-61591500D01*
X119990797Y-61598011D01*
X119990795Y-61598011D01*
X119853795Y-61649111D01*
X119736739Y-61736739D01*
X119649111Y-61853795D01*
X119598011Y-61990795D01*
X119598011Y-61990797D01*
X119591500Y-62051345D01*
X119591500Y-62170690D01*
X119571815Y-62237729D01*
X119555181Y-62258371D01*
X118902137Y-62911414D01*
X118879333Y-62826306D01*
X118820090Y-62723694D01*
X118736306Y-62639910D01*
X118633694Y-62580667D01*
X118548586Y-62557862D01*
X119511751Y-61594696D01*
X119511751Y-61594694D01*
X119476414Y-61527721D01*
X119476410Y-61527716D01*
X119438269Y-61475219D01*
X119420659Y-61452383D01*
X119314760Y-61355189D01*
X119314758Y-61355188D01*
X119185772Y-61291770D01*
X119185758Y-61291764D01*
X119124043Y-61271712D01*
X119110283Y-61267458D01*
X119110270Y-61267455D01*
X118967998Y-61247000D01*
X117951992Y-61247000D01*
X117873014Y-61253215D01*
X117840545Y-61258358D01*
X117749847Y-61281507D01*
X117622719Y-61348587D01*
X117570219Y-61386730D01*
X117547383Y-61404340D01*
X117450188Y-61510240D01*
X117408527Y-61594974D01*
X117408527Y-61594975D01*
X118371414Y-62557862D01*
X118286306Y-62580667D01*
X118183694Y-62639910D01*
X118099910Y-62723694D01*
X118040667Y-62826306D01*
X118017862Y-62911414D01*
X117054695Y-61948247D01*
X116987719Y-61983587D01*
X116935219Y-62021730D01*
X116912383Y-62039340D01*
X116815189Y-62145239D01*
X116815188Y-62145241D01*
X116751770Y-62274227D01*
X116751764Y-62274241D01*
X116731712Y-62335956D01*
X116727458Y-62349716D01*
X116727455Y-62349729D01*
X116707000Y-62492001D01*
X110558020Y-62492001D01*
X110558020Y-60951362D01*
X110558019Y-60951345D01*
X110554677Y-60920270D01*
X110551509Y-60890799D01*
X110500409Y-60753796D01*
X110412781Y-60636739D01*
X110295724Y-60549111D01*
X110158723Y-60498011D01*
X110098174Y-60491500D01*
X110098158Y-60491500D01*
X107000882Y-60491500D01*
X107000865Y-60491500D01*
X106940317Y-60498011D01*
X106940315Y-60498011D01*
X106803315Y-60549111D01*
X106686259Y-60636739D01*
X106598631Y-60753795D01*
X106547531Y-60890795D01*
X106547531Y-60890797D01*
X106541020Y-60951345D01*
X106541020Y-63981384D01*
X106521335Y-64048423D01*
X106504701Y-64069065D01*
X104857119Y-65716647D01*
X104814656Y-65759110D01*
X104716645Y-65857120D01*
X104606282Y-66022289D01*
X104606277Y-66022298D01*
X104530256Y-66205830D01*
X104530254Y-66205838D01*
X104491500Y-66400666D01*
X104491500Y-68020903D01*
X104471815Y-68087942D01*
X104455181Y-68108584D01*
X101507978Y-71055786D01*
X101446655Y-71089271D01*
X101439696Y-71090578D01*
X101293594Y-71113719D01*
X101097707Y-71177367D01*
X100914193Y-71270873D01*
X100747576Y-71391926D01*
X100747571Y-71391930D01*
X100601930Y-71537571D01*
X100601926Y-71537576D01*
X100480873Y-71704193D01*
X100387367Y-71887705D01*
X100323719Y-72083591D01*
X100291500Y-72287019D01*
X100291500Y-72492980D01*
X100321859Y-72684661D01*
X100319991Y-72699112D01*
X100323036Y-72713363D01*
X100315603Y-72733068D01*
X100312904Y-72753955D01*
X100303519Y-72765102D01*
X100298377Y-72778737D01*
X100281471Y-72791294D01*
X100267908Y-72807407D01*
X100253985Y-72811711D01*
X100242289Y-72820400D01*
X100221276Y-72821824D01*
X100201156Y-72828046D01*
X100187118Y-72824141D01*
X100172579Y-72825127D01*
X100154131Y-72814964D01*
X100133843Y-72809321D01*
X100123034Y-72797834D01*
X100111381Y-72791415D01*
X100090334Y-72763082D01*
X100085301Y-72753781D01*
X100083007Y-72749325D01*
X99678590Y-71922078D01*
X99676449Y-71917457D01*
X99509814Y-71537570D01*
X99306578Y-71074240D01*
X99304625Y-71069523D01*
X98969936Y-70211786D01*
X98968172Y-70206974D01*
X98689936Y-69396501D01*
X98669205Y-69336113D01*
X98667657Y-69331283D01*
X98404932Y-68448803D01*
X98403571Y-68443861D01*
X98177542Y-67551296D01*
X98176387Y-67546303D01*
X97987437Y-66645160D01*
X97986492Y-66640137D01*
X97946532Y-66400671D01*
X97834944Y-65731963D01*
X97834206Y-65726892D01*
X97832929Y-65716647D01*
X97720311Y-64813173D01*
X97719792Y-64808158D01*
X97643755Y-63890538D01*
X97643439Y-63885441D01*
X97641117Y-63829310D01*
X97605390Y-62965490D01*
X97605284Y-62960366D01*
X97605284Y-62039633D01*
X97605390Y-62034509D01*
X97621330Y-61649111D01*
X97643440Y-61114536D01*
X97643757Y-61109442D01*
X97719792Y-60191836D01*
X97720311Y-60186831D01*
X97834206Y-59273100D01*
X97834945Y-59268035D01*
X97986492Y-58359862D01*
X97987435Y-58354848D01*
X98176392Y-57453672D01*
X98177536Y-57448727D01*
X98403573Y-56556127D01*
X98404932Y-56551196D01*
X98420466Y-56499019D01*
X98667661Y-55668702D01*
X98669200Y-55663900D01*
X98968174Y-54793017D01*
X98969936Y-54788213D01*
X98996646Y-54719761D01*
X99304639Y-53930440D01*
X99306571Y-53925776D01*
X99676452Y-53082533D01*
X99678581Y-53077940D01*
X100083016Y-52250655D01*
X100085320Y-52246184D01*
X100086210Y-52244538D01*
X100135443Y-52194964D01*
X100203665Y-52179876D01*
X100269213Y-52204067D01*
X100311277Y-52259855D01*
X100317719Y-52284191D01*
X100332010Y-52374418D01*
X100395244Y-52569031D01*
X100488141Y-52751350D01*
X100488147Y-52751359D01*
X100520523Y-52795921D01*
X100520524Y-52795922D01*
X101200000Y-52116446D01*
X101200000Y-52122661D01*
X101227259Y-52224394D01*
X101279920Y-52315606D01*
X101354394Y-52390080D01*
X101445606Y-52442741D01*
X101547339Y-52470000D01*
X101553553Y-52470000D01*
X100874076Y-53149474D01*
X100918650Y-53181859D01*
X101100968Y-53274755D01*
X101295582Y-53337990D01*
X101497683Y-53370000D01*
X101702317Y-53370000D01*
X101904417Y-53337990D01*
X102099031Y-53274755D01*
X102281349Y-53181859D01*
X102325921Y-53149474D01*
X101646447Y-52470000D01*
X101652661Y-52470000D01*
X101754394Y-52442741D01*
X101845606Y-52390080D01*
X101920080Y-52315606D01*
X101972741Y-52224394D01*
X102000000Y-52122661D01*
X102000000Y-52116447D01*
X102679474Y-52795921D01*
X102711859Y-52751349D01*
X102804755Y-52569031D01*
X102867990Y-52374417D01*
X102900000Y-52172317D01*
X102900000Y-51967682D01*
X102867990Y-51765582D01*
X102804755Y-51570968D01*
X102711859Y-51388650D01*
X102679474Y-51344077D01*
X102679474Y-51344076D01*
X102000000Y-52023551D01*
X102000000Y-52017339D01*
X101972741Y-51915606D01*
X101920080Y-51824394D01*
X101845606Y-51749920D01*
X101754394Y-51697259D01*
X101652661Y-51670000D01*
X101646446Y-51670000D01*
X102325922Y-50990524D01*
X102325921Y-50990523D01*
X102281359Y-50958147D01*
X102281350Y-50958141D01*
X102099031Y-50865244D01*
X101904417Y-50802009D01*
X101702317Y-50770000D01*
X101497683Y-50770000D01*
X101295582Y-50802009D01*
X101120477Y-50858906D01*
X101094375Y-50859651D01*
X101068672Y-50864239D01*
X101060012Y-50860633D01*
X101050635Y-50860901D01*
X101028272Y-50847416D01*
X101004171Y-50837380D01*
X100998836Y-50829665D01*
X100990802Y-50824821D01*
X100979280Y-50801387D01*
X100964430Y-50779913D01*
X100964112Y-50770538D01*
X100959974Y-50762120D01*
X100962950Y-50736176D01*
X100962068Y-50710084D01*
X100967418Y-50697234D01*
X100967938Y-50692706D01*
X100975631Y-50677507D01*
X100997398Y-50640978D01*
X101000081Y-50636680D01*
X101503706Y-49865823D01*
X101506588Y-49861608D01*
X101602504Y-49727268D01*
X102041626Y-49112240D01*
X102044613Y-49108233D01*
X102610203Y-48381564D01*
X102613413Y-48377612D01*
X102718954Y-48253000D01*
X103208520Y-47674969D01*
X103211838Y-47671212D01*
X103835501Y-46993734D01*
X103839003Y-46990085D01*
X104490085Y-46339003D01*
X104493734Y-46335501D01*
X104866875Y-45992001D01*
X116982000Y-45992001D01*
X116982000Y-47008007D01*
X116988215Y-47086985D01*
X116993358Y-47119454D01*
X117016507Y-47210152D01*
X117083587Y-47337280D01*
X117121730Y-47389780D01*
X117139340Y-47412616D01*
X117245240Y-47509811D01*
X117329974Y-47551472D01*
X117329976Y-47551471D01*
X118292862Y-46588585D01*
X118315667Y-46673694D01*
X118374910Y-46776306D01*
X118458694Y-46860090D01*
X118561306Y-46919333D01*
X118646414Y-46942137D01*
X117683247Y-47905303D01*
X117683247Y-47905304D01*
X117718585Y-47972278D01*
X117756730Y-48024780D01*
X117774340Y-48047616D01*
X117880239Y-48144810D01*
X117880241Y-48144811D01*
X118009227Y-48208229D01*
X118009241Y-48208235D01*
X118070956Y-48228287D01*
X118084716Y-48232541D01*
X118084729Y-48232544D01*
X118227001Y-48252999D01*
X118227003Y-48253000D01*
X119242992Y-48253000D01*
X119243007Y-48252999D01*
X119321985Y-48246784D01*
X119354454Y-48241641D01*
X119445152Y-48218492D01*
X119572280Y-48151412D01*
X119624780Y-48113269D01*
X119647616Y-48095660D01*
X119744811Y-47989759D01*
X119786471Y-47905023D01*
X119786471Y-47905022D01*
X118823585Y-46942137D01*
X118908694Y-46919333D01*
X119011306Y-46860090D01*
X119095090Y-46776306D01*
X119154333Y-46673694D01*
X119177137Y-46588585D01*
X119830181Y-47241629D01*
X119863666Y-47302952D01*
X119866500Y-47329310D01*
X119866500Y-47448654D01*
X119873011Y-47509202D01*
X119873011Y-47509204D01*
X119888777Y-47551472D01*
X119924111Y-47646204D01*
X120011739Y-47763261D01*
X120128796Y-47850889D01*
X120265799Y-47901989D01*
X120293050Y-47904918D01*
X120326345Y-47908499D01*
X120326362Y-47908500D01*
X122223638Y-47908500D01*
X122223654Y-47908499D01*
X122250692Y-47905591D01*
X122284201Y-47901989D01*
X122421204Y-47850889D01*
X122538261Y-47763261D01*
X122625889Y-47646204D01*
X122671555Y-47523768D01*
X122676988Y-47509204D01*
X122676988Y-47509203D01*
X122676989Y-47509201D01*
X122680591Y-47475692D01*
X122683499Y-47448654D01*
X122683500Y-47448637D01*
X122683500Y-45551362D01*
X122683499Y-45551345D01*
X122680157Y-45520270D01*
X122676989Y-45490799D01*
X122625889Y-45353796D01*
X122538261Y-45236739D01*
X122421204Y-45149111D01*
X122284203Y-45098011D01*
X122223654Y-45091500D01*
X122223638Y-45091500D01*
X120326362Y-45091500D01*
X120326345Y-45091500D01*
X120265797Y-45098011D01*
X120265795Y-45098011D01*
X120128795Y-45149111D01*
X120011739Y-45236739D01*
X119924111Y-45353795D01*
X119873011Y-45490795D01*
X119873011Y-45490797D01*
X119866500Y-45551345D01*
X119866500Y-45670690D01*
X119846815Y-45737729D01*
X119830181Y-45758371D01*
X119177137Y-46411414D01*
X119154333Y-46326306D01*
X119095090Y-46223694D01*
X119011306Y-46139910D01*
X118908694Y-46080667D01*
X118823586Y-46057862D01*
X119786751Y-45094696D01*
X119786751Y-45094694D01*
X119751414Y-45027721D01*
X119751410Y-45027716D01*
X119713269Y-44975219D01*
X119695659Y-44952383D01*
X119589760Y-44855189D01*
X119589758Y-44855188D01*
X119460772Y-44791770D01*
X119460758Y-44791764D01*
X119399043Y-44771712D01*
X119385283Y-44767458D01*
X119385270Y-44767455D01*
X119242998Y-44747000D01*
X118226992Y-44747000D01*
X118148014Y-44753215D01*
X118115545Y-44758358D01*
X118024847Y-44781507D01*
X117897719Y-44848587D01*
X117845219Y-44886730D01*
X117822383Y-44904340D01*
X117725188Y-45010240D01*
X117683527Y-45094974D01*
X117683527Y-45094975D01*
X118646414Y-46057862D01*
X118561306Y-46080667D01*
X118458694Y-46139910D01*
X118374910Y-46223694D01*
X118315667Y-46326306D01*
X118292862Y-46411414D01*
X117329695Y-45448247D01*
X117262719Y-45483587D01*
X117210219Y-45521730D01*
X117187383Y-45539340D01*
X117090189Y-45645239D01*
X117090188Y-45645241D01*
X117026770Y-45774227D01*
X117026764Y-45774241D01*
X117006712Y-45835956D01*
X117002458Y-45849716D01*
X117002455Y-45849729D01*
X116982000Y-45992001D01*
X104866875Y-45992001D01*
X105171212Y-45711839D01*
X105174997Y-45708497D01*
X105877615Y-45113410D01*
X105881564Y-45110203D01*
X106608211Y-44544630D01*
X106612240Y-44541626D01*
X107361608Y-44006588D01*
X107365823Y-44003706D01*
X108136680Y-43500081D01*
X108140978Y-43497398D01*
X108931978Y-43026065D01*
X108936389Y-43023558D01*
X109746253Y-42585282D01*
X109750654Y-42583017D01*
X110577940Y-42178581D01*
X110582542Y-42176449D01*
X111425776Y-41806571D01*
X111430440Y-41804639D01*
X112288221Y-41469933D01*
X112293017Y-41468174D01*
X113163900Y-41169200D01*
X113168702Y-41167661D01*
X114051207Y-40904928D01*
X114056127Y-40903573D01*
X114948727Y-40677536D01*
X114953672Y-40676392D01*
X115854848Y-40487435D01*
X115859839Y-40486496D01*
X116768043Y-40334943D01*
X116773100Y-40334206D01*
X117686831Y-40220311D01*
X117691836Y-40219792D01*
X118609464Y-40143755D01*
X118614536Y-40143440D01*
X119534509Y-40105389D01*
X119539633Y-40105284D01*
X120460367Y-40105284D01*
X120465490Y-40105389D01*
G37*
%TD.AperFunction*%
%TD*%
M02*
