%TF.GenerationSoftware,KiCad,Pcbnew,9.0.0*%
%TF.CreationDate,2025-03-06T09:18:45+01:00*%
%TF.ProjectId,spaceEggs,73706163-6545-4676-9773-2e6b69636164,rev?*%
%TF.SameCoordinates,Original*%
%TF.FileFunction,Copper,L1,Top*%
%TF.FilePolarity,Positive*%
%FSLAX46Y46*%
G04 Gerber Fmt 4.6, Leading zero omitted, Abs format (unit mm)*
G04 Created by KiCad (PCBNEW 9.0.0) date 2025-03-06 09:18:45*
%MOMM*%
%LPD*%
G01*
G04 APERTURE LIST*
G04 Aperture macros list*
%AMFreePoly0*
4,1,45,0.566779,1.223902,0.603106,1.173902,0.608000,1.143000,0.608000,0.609600,0.609600,0.609600,0.609600,0.608000,1.143000,0.608000,1.201779,0.588902,1.238106,0.538902,1.243000,0.508000,1.243000,-0.508000,1.223902,-0.566779,1.173902,-0.603106,1.143000,-0.608000,0.609600,-0.608000,0.609600,-0.609600,0.608000,-0.609600,0.608000,-1.143000,0.588902,-1.201779,0.538902,-1.238106,
0.508000,-1.243000,-0.508000,-1.243000,-0.566779,-1.223902,-0.603106,-1.173902,-0.608000,-1.143000,-0.608000,-0.609600,-0.609600,-0.609600,-0.609600,-0.608000,-1.143000,-0.608000,-1.201779,-0.588902,-1.238106,-0.538902,-1.243000,-0.508000,-1.243000,0.508000,-1.223902,0.566779,-1.173902,0.603106,-1.143000,0.608000,-0.609600,0.608000,-0.609600,0.609600,-0.608000,0.609600,-0.608000,1.143000,
-0.588902,1.201779,-0.538902,1.238106,-0.508000,1.243000,0.508000,1.243000,0.566779,1.223902,0.566779,1.223902,$1*%
G04 Aperture macros list end*
%TA.AperFunction,SMDPad,CuDef*%
%ADD10R,1.524000X5.000000*%
%TD*%
%TA.AperFunction,ComponentPad*%
%ADD11R,1.800000X1.800000*%
%TD*%
%TA.AperFunction,ComponentPad*%
%ADD12FreePoly0,180.000000*%
%TD*%
%TA.AperFunction,ComponentPad*%
%ADD13C,1.600000*%
%TD*%
%TA.AperFunction,ComponentPad*%
%ADD14O,1.600000X1.600000*%
%TD*%
%TA.AperFunction,ComponentPad*%
%ADD15R,3.000000X3.000000*%
%TD*%
%TA.AperFunction,ComponentPad*%
%ADD16C,3.000000*%
%TD*%
%TA.AperFunction,ViaPad*%
%ADD17C,0.800000*%
%TD*%
%TA.AperFunction,Conductor*%
%ADD18C,1.000000*%
%TD*%
G04 APERTURE END LIST*
D10*
%TO.P,D4,1,K*%
%TO.N,GND*%
X112395000Y-71265000D03*
%TO.P,D4,2,A*%
%TO.N,VCC*%
X109855000Y-71265000D03*
%TD*%
D11*
%TO.P,D2,1,K*%
%TO.N,GND*%
X121000000Y-63000000D03*
D12*
%TO.P,D2,2,A*%
%TO.N,VCC*%
X118460000Y-63000000D03*
%TD*%
D10*
%TO.P,D5,1,K*%
%TO.N,GND*%
X133350000Y-53340000D03*
%TO.P,D5,2,A*%
%TO.N,VCC*%
X130810000Y-53340000D03*
%TD*%
D13*
%TO.P,SW1,1,1*%
%TO.N,VCC*%
X101600000Y-52070000D03*
D14*
%TO.P,SW1,2,2*%
%TO.N,+3V0*%
X101600000Y-72390000D03*
%TD*%
D11*
%TO.P,D3,1,K*%
%TO.N,GND*%
X121275000Y-46500000D03*
D12*
%TO.P,D3,2,A*%
%TO.N,VCC*%
X118735000Y-46500000D03*
%TD*%
D15*
%TO.P,BT1,1,+*%
%TO.N,+3V0*%
X108549520Y-62500000D03*
D16*
%TO.P,BT1,2,-*%
%TO.N,GND*%
X128549520Y-62500000D03*
%TD*%
D11*
%TO.P,D1,1,K*%
%TO.N,GND*%
X121500000Y-79500000D03*
D12*
%TO.P,D1,2,A*%
%TO.N,VCC*%
X118960000Y-79500000D03*
%TD*%
D17*
%TO.N,VCC*%
X130810000Y-53340000D03*
X109855000Y-71120000D03*
%TD*%
D18*
%TO.N,VCC*%
X130810000Y-53340000D02*
X130810000Y-54610000D01*
X109855000Y-71265000D02*
X109855000Y-71120000D01*
%TD*%
%TA.AperFunction,Conductor*%
%TO.N,GND*%
G36*
X120465490Y-40105389D02*
G01*
X121385460Y-40143440D01*
X121390538Y-40143755D01*
X122308158Y-40219792D01*
X122313173Y-40220311D01*
X123226892Y-40334206D01*
X123231963Y-40334944D01*
X124140151Y-40486494D01*
X124145160Y-40487437D01*
X125046316Y-40676390D01*
X125051283Y-40677539D01*
X125875737Y-40886319D01*
X125943861Y-40903571D01*
X125948804Y-40904932D01*
X126831283Y-41167657D01*
X126836113Y-41169205D01*
X127514302Y-41402027D01*
X127706974Y-41468172D01*
X127711786Y-41469936D01*
X127968608Y-41570148D01*
X128569542Y-41804633D01*
X128574240Y-41806578D01*
X128994062Y-41990730D01*
X129417457Y-42176449D01*
X129422078Y-42178590D01*
X130249325Y-42583007D01*
X130253765Y-42585292D01*
X131063589Y-43023546D01*
X131068033Y-43026072D01*
X131858996Y-43497383D01*
X131863344Y-43500097D01*
X132634160Y-44003696D01*
X132638391Y-44006588D01*
X133387730Y-44541605D01*
X133391788Y-44544630D01*
X133915150Y-44951979D01*
X134118409Y-45110182D01*
X134122387Y-45113413D01*
X134824973Y-45708472D01*
X134828811Y-45711860D01*
X135133124Y-45992000D01*
X135506240Y-46335478D01*
X135509938Y-46339027D01*
X136160972Y-46990061D01*
X136164521Y-46993759D01*
X136788135Y-47671184D01*
X136791527Y-47675026D01*
X137386586Y-48377612D01*
X137389817Y-48381590D01*
X137955363Y-49108203D01*
X137958394Y-49112269D01*
X138493411Y-49861608D01*
X138496303Y-49865839D01*
X138999902Y-50636655D01*
X139002616Y-50641003D01*
X139473927Y-51431966D01*
X139476459Y-51436422D01*
X139914697Y-52246216D01*
X139917001Y-52250693D01*
X140316592Y-53068068D01*
X140321395Y-53077892D01*
X140323550Y-53082542D01*
X140693413Y-53925741D01*
X140695374Y-53930476D01*
X141030063Y-54788213D01*
X141031827Y-54793025D01*
X141330786Y-55663861D01*
X141332350Y-55668742D01*
X141595067Y-56551196D01*
X141596428Y-56556138D01*
X141822457Y-57448703D01*
X141823612Y-57453696D01*
X142012559Y-58354825D01*
X142013507Y-58359862D01*
X142165054Y-59268035D01*
X142165793Y-59273107D01*
X142279683Y-60186785D01*
X142280211Y-60191883D01*
X142356242Y-61109442D01*
X142356560Y-61114558D01*
X142394610Y-62034509D01*
X142394716Y-62039633D01*
X142394716Y-62960366D01*
X142394610Y-62965490D01*
X142356560Y-63885441D01*
X142356242Y-63890557D01*
X142280211Y-64808116D01*
X142279683Y-64813214D01*
X142165793Y-65726892D01*
X142165054Y-65731964D01*
X142013507Y-66640137D01*
X142012559Y-66645174D01*
X141823612Y-67546303D01*
X141822457Y-67551296D01*
X141596428Y-68443861D01*
X141595067Y-68448803D01*
X141332350Y-69331257D01*
X141330786Y-69336138D01*
X141031827Y-70206974D01*
X141030063Y-70211786D01*
X140695374Y-71069523D01*
X140693413Y-71074258D01*
X140323550Y-71917457D01*
X140321395Y-71922107D01*
X140242450Y-72083592D01*
X139917011Y-72749287D01*
X139914687Y-72753803D01*
X139839742Y-72892290D01*
X139476459Y-73563577D01*
X139473927Y-73568033D01*
X139002616Y-74358996D01*
X138999902Y-74363344D01*
X138496303Y-75134160D01*
X138493411Y-75138391D01*
X137958394Y-75887730D01*
X137955345Y-75891819D01*
X137861150Y-76012842D01*
X137389817Y-76618409D01*
X137386586Y-76622387D01*
X136791527Y-77324973D01*
X136788135Y-77328815D01*
X136164521Y-78006240D01*
X136160972Y-78009938D01*
X135509938Y-78660972D01*
X135506240Y-78664521D01*
X134828815Y-79288135D01*
X134824973Y-79291527D01*
X134122387Y-79886586D01*
X134118409Y-79889817D01*
X133705361Y-80211305D01*
X133391819Y-80455345D01*
X133387730Y-80458394D01*
X132638391Y-80993411D01*
X132634160Y-80996303D01*
X131863344Y-81499902D01*
X131858996Y-81502616D01*
X131068033Y-81973927D01*
X131063577Y-81976459D01*
X130735156Y-82154192D01*
X130253803Y-82414687D01*
X130249287Y-82417011D01*
X129632771Y-82718407D01*
X129422107Y-82821395D01*
X129417457Y-82823550D01*
X128574258Y-83193413D01*
X128569523Y-83195374D01*
X127711786Y-83530063D01*
X127706974Y-83531827D01*
X126836138Y-83830786D01*
X126831257Y-83832350D01*
X125948803Y-84095067D01*
X125943861Y-84096428D01*
X125051296Y-84322457D01*
X125046303Y-84323612D01*
X124145174Y-84512559D01*
X124140137Y-84513507D01*
X123231964Y-84665054D01*
X123226892Y-84665793D01*
X122313214Y-84779683D01*
X122308116Y-84780211D01*
X121390557Y-84856242D01*
X121385441Y-84856560D01*
X120465491Y-84894610D01*
X120460367Y-84894716D01*
X119539633Y-84894716D01*
X119534509Y-84894610D01*
X118614558Y-84856560D01*
X118609442Y-84856242D01*
X117691883Y-84780211D01*
X117686785Y-84779683D01*
X116773107Y-84665793D01*
X116768035Y-84665054D01*
X115859862Y-84513507D01*
X115854825Y-84512559D01*
X114953696Y-84323612D01*
X114948703Y-84322457D01*
X114056138Y-84096428D01*
X114051196Y-84095067D01*
X113168742Y-83832350D01*
X113163861Y-83830786D01*
X112293025Y-83531827D01*
X112288213Y-83530063D01*
X111430476Y-83195374D01*
X111425741Y-83193413D01*
X110582542Y-82823550D01*
X110577892Y-82821395D01*
X109750693Y-82417001D01*
X109746216Y-82414697D01*
X108936422Y-81976459D01*
X108931966Y-81973927D01*
X108141003Y-81502616D01*
X108136655Y-81499902D01*
X107365839Y-80996303D01*
X107361608Y-80993411D01*
X106612269Y-80458394D01*
X106608203Y-80455363D01*
X105881590Y-79889817D01*
X105877612Y-79886586D01*
X105175026Y-79291527D01*
X105171184Y-79288135D01*
X104943787Y-79078801D01*
X104849495Y-78991999D01*
X117198500Y-78991999D01*
X117198500Y-80008005D01*
X117204822Y-80088328D01*
X117204822Y-80088333D01*
X117209960Y-80120772D01*
X117209961Y-80120780D01*
X117233501Y-80213008D01*
X117233502Y-80213009D01*
X117301712Y-80342279D01*
X117339866Y-80394793D01*
X117357757Y-80417993D01*
X117357762Y-80417999D01*
X117465441Y-80516826D01*
X117465442Y-80516827D01*
X117596603Y-80581315D01*
X117658320Y-80601368D01*
X117658345Y-80601376D01*
X117662593Y-80602689D01*
X117672330Y-80605700D01*
X117734261Y-80614604D01*
X117797817Y-80643628D01*
X117835592Y-80702406D01*
X117839381Y-80720933D01*
X117839441Y-80720924D01*
X117839652Y-80722260D01*
X117839753Y-80722751D01*
X117839820Y-80723318D01*
X117844960Y-80755772D01*
X117844961Y-80755780D01*
X117868501Y-80848008D01*
X117868502Y-80848009D01*
X117936712Y-80977279D01*
X117974866Y-81029793D01*
X117992757Y-81052993D01*
X117992762Y-81052999D01*
X118100441Y-81151826D01*
X118100442Y-81151827D01*
X118231603Y-81216315D01*
X118293320Y-81236368D01*
X118293345Y-81236376D01*
X118297593Y-81237689D01*
X118307330Y-81240700D01*
X118452000Y-81261500D01*
X118452003Y-81261500D01*
X119467992Y-81261500D01*
X119468000Y-81261500D01*
X119548328Y-81255178D01*
X119580775Y-81250039D01*
X119580777Y-81250038D01*
X119580780Y-81250038D01*
X119673008Y-81226498D01*
X119673008Y-81226497D01*
X119673011Y-81226497D01*
X119802277Y-81158289D01*
X119854777Y-81120145D01*
X119877999Y-81102238D01*
X119976827Y-80994558D01*
X120041315Y-80863397D01*
X120054954Y-80821417D01*
X120094392Y-80763744D01*
X120158751Y-80736546D01*
X120227597Y-80748461D01*
X120247196Y-80760472D01*
X120357906Y-80843350D01*
X120357913Y-80843354D01*
X120492620Y-80893596D01*
X120492627Y-80893598D01*
X120552155Y-80899999D01*
X120552172Y-80900000D01*
X121250000Y-80900000D01*
X121250000Y-79875277D01*
X121326306Y-79919333D01*
X121440756Y-79950000D01*
X121559244Y-79950000D01*
X121673694Y-79919333D01*
X121750000Y-79875277D01*
X121750000Y-80900000D01*
X122447828Y-80900000D01*
X122447844Y-80899999D01*
X122507372Y-80893598D01*
X122507379Y-80893596D01*
X122642086Y-80843354D01*
X122642093Y-80843350D01*
X122757187Y-80757190D01*
X122757190Y-80757187D01*
X122843350Y-80642093D01*
X122843354Y-80642086D01*
X122893596Y-80507379D01*
X122893598Y-80507372D01*
X122899999Y-80447844D01*
X122900000Y-80447827D01*
X122900000Y-79750000D01*
X121875278Y-79750000D01*
X121919333Y-79673694D01*
X121950000Y-79559244D01*
X121950000Y-79440756D01*
X121919333Y-79326306D01*
X121875278Y-79250000D01*
X122900000Y-79250000D01*
X122900000Y-78552172D01*
X122899999Y-78552155D01*
X122893598Y-78492627D01*
X122893596Y-78492620D01*
X122843354Y-78357913D01*
X122843350Y-78357906D01*
X122757190Y-78242812D01*
X122757187Y-78242809D01*
X122642093Y-78156649D01*
X122642086Y-78156645D01*
X122507379Y-78106403D01*
X122507372Y-78106401D01*
X122447844Y-78100000D01*
X121750000Y-78100000D01*
X121750000Y-79124722D01*
X121673694Y-79080667D01*
X121559244Y-79050000D01*
X121440756Y-79050000D01*
X121326306Y-79080667D01*
X121250000Y-79124722D01*
X121250000Y-78100000D01*
X120552155Y-78100000D01*
X120492627Y-78106401D01*
X120492620Y-78106403D01*
X120357913Y-78156645D01*
X120357910Y-78156647D01*
X120250213Y-78237269D01*
X120184748Y-78261686D01*
X120116475Y-78246834D01*
X120067070Y-78197429D01*
X120055753Y-78168665D01*
X120051497Y-78151989D01*
X119983287Y-78022720D01*
X119945133Y-77970206D01*
X119927242Y-77947006D01*
X119927237Y-77947000D01*
X119819558Y-77848173D01*
X119819559Y-77848173D01*
X119756128Y-77816986D01*
X119688397Y-77783685D01*
X119626654Y-77763623D01*
X119612667Y-77759299D01*
X119468000Y-77738500D01*
X118452000Y-77738500D01*
X118451994Y-77738500D01*
X118371671Y-77744822D01*
X118371666Y-77744822D01*
X118339227Y-77749960D01*
X118339219Y-77749961D01*
X118246991Y-77773501D01*
X118246990Y-77773502D01*
X118117720Y-77841712D01*
X118065206Y-77879866D01*
X118042006Y-77897757D01*
X118042000Y-77897762D01*
X117943173Y-78005441D01*
X117878687Y-78136599D01*
X117878685Y-78136602D01*
X117858623Y-78198345D01*
X117854299Y-78212330D01*
X117854299Y-78212332D01*
X117845395Y-78274262D01*
X117816370Y-78337818D01*
X117757591Y-78375592D01*
X117739066Y-78379381D01*
X117739076Y-78379441D01*
X117737756Y-78379649D01*
X117737253Y-78379753D01*
X117736668Y-78379822D01*
X117704227Y-78384960D01*
X117704219Y-78384961D01*
X117611991Y-78408501D01*
X117611990Y-78408502D01*
X117482720Y-78476712D01*
X117430206Y-78514866D01*
X117407006Y-78532757D01*
X117407000Y-78532762D01*
X117308173Y-78640441D01*
X117243687Y-78771599D01*
X117243685Y-78771602D01*
X117223623Y-78833345D01*
X117219299Y-78847330D01*
X117219299Y-78847333D01*
X117198500Y-78991999D01*
X104849495Y-78991999D01*
X104493759Y-78664521D01*
X104490061Y-78660972D01*
X103839027Y-78009938D01*
X103835478Y-78006240D01*
X103735612Y-77897757D01*
X103211860Y-77328811D01*
X103208472Y-77324973D01*
X102613413Y-76622387D01*
X102610182Y-76618409D01*
X102044630Y-75891788D01*
X102041605Y-75887730D01*
X101506588Y-75138391D01*
X101503696Y-75134160D01*
X101000097Y-74363344D01*
X100997383Y-74358996D01*
X100526072Y-73568033D01*
X100523540Y-73563577D01*
X100457365Y-73441296D01*
X100442771Y-73372971D01*
X100467434Y-73307598D01*
X100523524Y-73265937D01*
X100593234Y-73261215D01*
X100654102Y-73294600D01*
X100747571Y-73388069D01*
X100747576Y-73388073D01*
X100892908Y-73493661D01*
X100914197Y-73509129D01*
X101021057Y-73563577D01*
X101097705Y-73602632D01*
X101097707Y-73602632D01*
X101097710Y-73602634D01*
X101202707Y-73636749D01*
X101293591Y-73666280D01*
X101395305Y-73682390D01*
X101497019Y-73698500D01*
X101497020Y-73698500D01*
X101702980Y-73698500D01*
X101702981Y-73698500D01*
X101906408Y-73666280D01*
X102102290Y-73602634D01*
X102285803Y-73509129D01*
X102452430Y-73388068D01*
X102598068Y-73242430D01*
X102719129Y-73075803D01*
X102812634Y-72892290D01*
X102876280Y-72696408D01*
X102908500Y-72492981D01*
X102908500Y-72287019D01*
X102876280Y-72083592D01*
X102812634Y-71887710D01*
X102812632Y-71887707D01*
X102812632Y-71887705D01*
X102778709Y-71821128D01*
X102719129Y-71704197D01*
X102703661Y-71682908D01*
X102598073Y-71537576D01*
X102598069Y-71537571D01*
X102452428Y-71391930D01*
X102452423Y-71391926D01*
X102285806Y-71270873D01*
X102285805Y-71270872D01*
X102285803Y-71270871D01*
X102228496Y-71241671D01*
X102102294Y-71177367D01*
X101906408Y-71113719D01*
X101730794Y-71085905D01*
X101702981Y-71081500D01*
X101497019Y-71081500D01*
X101472550Y-71085375D01*
X101293591Y-71113719D01*
X101097705Y-71177367D01*
X100914193Y-71270873D01*
X100747576Y-71391926D01*
X100747571Y-71391930D01*
X100601930Y-71537571D01*
X100601926Y-71537576D01*
X100480873Y-71704193D01*
X100387367Y-71887705D01*
X100323719Y-72083591D01*
X100291500Y-72287019D01*
X100291500Y-72492980D01*
X100321859Y-72684661D01*
X100319991Y-72699112D01*
X100323036Y-72713363D01*
X100315603Y-72733068D01*
X100312904Y-72753955D01*
X100303519Y-72765102D01*
X100298377Y-72778737D01*
X100281471Y-72791294D01*
X100267908Y-72807407D01*
X100253985Y-72811711D01*
X100242289Y-72820400D01*
X100221276Y-72821824D01*
X100201156Y-72828046D01*
X100187118Y-72824141D01*
X100172579Y-72825127D01*
X100154131Y-72814964D01*
X100133843Y-72809321D01*
X100123034Y-72797834D01*
X100111381Y-72791415D01*
X100090334Y-72763082D01*
X100085301Y-72753781D01*
X100083007Y-72749325D01*
X99678590Y-71922078D01*
X99676449Y-71917457D01*
X99499914Y-71515000D01*
X99306578Y-71074240D01*
X99304625Y-71069523D01*
X99283350Y-71015000D01*
X98969936Y-70211786D01*
X98968172Y-70206974D01*
X98689936Y-69396501D01*
X98669205Y-69336113D01*
X98667657Y-69331283D01*
X98484583Y-68716345D01*
X108584500Y-68716345D01*
X108584500Y-73813654D01*
X108591011Y-73874202D01*
X108591011Y-73874204D01*
X108640575Y-74007086D01*
X108642111Y-74011204D01*
X108729739Y-74128261D01*
X108846796Y-74215889D01*
X108961297Y-74258596D01*
X108978463Y-74264999D01*
X108983799Y-74266989D01*
X109011050Y-74269918D01*
X109044345Y-74273499D01*
X109044362Y-74273500D01*
X110665638Y-74273500D01*
X110665654Y-74273499D01*
X110692692Y-74270591D01*
X110726201Y-74266989D01*
X110731537Y-74264999D01*
X110748703Y-74258596D01*
X110863204Y-74215889D01*
X110980261Y-74128261D01*
X111031044Y-74060422D01*
X111086974Y-74018554D01*
X111156665Y-74013570D01*
X111217989Y-74047054D01*
X111229575Y-74060425D01*
X111275813Y-74122190D01*
X111390906Y-74208350D01*
X111390913Y-74208354D01*
X111525620Y-74258596D01*
X111525627Y-74258598D01*
X111585155Y-74264999D01*
X111585172Y-74265000D01*
X112145000Y-74265000D01*
X112645000Y-74265000D01*
X113204828Y-74265000D01*
X113204844Y-74264999D01*
X113264372Y-74258598D01*
X113264379Y-74258596D01*
X113399086Y-74208354D01*
X113399093Y-74208350D01*
X113514187Y-74122190D01*
X113514190Y-74122187D01*
X113600350Y-74007093D01*
X113600354Y-74007086D01*
X113650596Y-73872379D01*
X113650598Y-73872372D01*
X113656999Y-73812844D01*
X113657000Y-73812827D01*
X113657000Y-71515000D01*
X112645000Y-71515000D01*
X112645000Y-74265000D01*
X112145000Y-74265000D01*
X112145000Y-71015000D01*
X112645000Y-71015000D01*
X113657000Y-71015000D01*
X113657000Y-68717172D01*
X113656999Y-68717155D01*
X113650598Y-68657627D01*
X113650596Y-68657620D01*
X113600354Y-68522913D01*
X113600350Y-68522906D01*
X113514190Y-68407812D01*
X113514187Y-68407809D01*
X113399093Y-68321649D01*
X113399086Y-68321645D01*
X113264379Y-68271403D01*
X113264372Y-68271401D01*
X113204844Y-68265000D01*
X112645000Y-68265000D01*
X112645000Y-71015000D01*
X112145000Y-71015000D01*
X112145000Y-68265000D01*
X111585155Y-68265000D01*
X111525627Y-68271401D01*
X111525620Y-68271403D01*
X111390913Y-68321645D01*
X111390906Y-68321649D01*
X111275812Y-68407809D01*
X111229574Y-68469575D01*
X111173640Y-68511445D01*
X111103948Y-68516429D01*
X111042625Y-68482943D01*
X111031046Y-68469580D01*
X110980261Y-68401739D01*
X110863204Y-68314111D01*
X110726203Y-68263011D01*
X110665654Y-68256500D01*
X110665638Y-68256500D01*
X109044362Y-68256500D01*
X109044345Y-68256500D01*
X108983797Y-68263011D01*
X108983795Y-68263011D01*
X108846795Y-68314111D01*
X108729739Y-68401739D01*
X108642111Y-68518795D01*
X108591011Y-68655795D01*
X108591011Y-68655797D01*
X108584500Y-68716345D01*
X98484583Y-68716345D01*
X98404932Y-68448802D01*
X98403571Y-68443861D01*
X98177542Y-67551296D01*
X98176387Y-67546303D01*
X97987437Y-66645160D01*
X97986492Y-66640137D01*
X97834945Y-65731964D01*
X97834206Y-65726892D01*
X97720311Y-64813173D01*
X97719792Y-64808158D01*
X97643755Y-63890538D01*
X97643439Y-63885441D01*
X97642368Y-63859558D01*
X97605390Y-62965490D01*
X97605284Y-62960366D01*
X97605284Y-62039633D01*
X97605390Y-62034509D01*
X97607513Y-61983173D01*
X97643440Y-61114536D01*
X97643757Y-61109442D01*
X97644602Y-61099252D01*
X97656858Y-60951345D01*
X106541020Y-60951345D01*
X106541020Y-64048654D01*
X106547531Y-64109202D01*
X106547531Y-64109204D01*
X106595029Y-64236546D01*
X106598631Y-64246204D01*
X106686259Y-64363261D01*
X106803316Y-64450889D01*
X106874070Y-64477279D01*
X106934983Y-64499999D01*
X106940319Y-64501989D01*
X106967570Y-64504918D01*
X107000865Y-64508499D01*
X107000882Y-64508500D01*
X110098158Y-64508500D01*
X110098174Y-64508499D01*
X110125212Y-64505591D01*
X110158721Y-64501989D01*
X110164057Y-64499999D01*
X110178644Y-64494558D01*
X110295724Y-64450889D01*
X110412781Y-64363261D01*
X110500409Y-64246204D01*
X110551509Y-64109201D01*
X110555111Y-64075692D01*
X110558019Y-64048654D01*
X110558020Y-64048637D01*
X110558020Y-62491999D01*
X116698500Y-62491999D01*
X116698500Y-63508005D01*
X116704822Y-63588328D01*
X116704822Y-63588333D01*
X116709960Y-63620772D01*
X116709961Y-63620780D01*
X116733501Y-63713008D01*
X116733502Y-63713009D01*
X116801712Y-63842279D01*
X116839866Y-63894793D01*
X116857757Y-63917993D01*
X116857762Y-63917999D01*
X116955144Y-64007376D01*
X116965441Y-64016826D01*
X116965442Y-64016827D01*
X117096603Y-64081315D01*
X117158320Y-64101368D01*
X117158345Y-64101376D01*
X117162593Y-64102689D01*
X117172330Y-64105700D01*
X117234261Y-64114604D01*
X117297817Y-64143628D01*
X117335592Y-64202406D01*
X117339381Y-64220933D01*
X117339441Y-64220924D01*
X117339652Y-64222260D01*
X117339753Y-64222751D01*
X117339820Y-64223318D01*
X117344960Y-64255772D01*
X117344961Y-64255780D01*
X117368501Y-64348008D01*
X117368502Y-64348009D01*
X117436712Y-64477279D01*
X117474866Y-64529793D01*
X117492757Y-64552993D01*
X117492762Y-64552999D01*
X117600441Y-64651826D01*
X117600442Y-64651827D01*
X117731603Y-64716315D01*
X117793320Y-64736368D01*
X117793345Y-64736376D01*
X117797593Y-64737689D01*
X117807330Y-64740700D01*
X117952000Y-64761500D01*
X117952003Y-64761500D01*
X118967992Y-64761500D01*
X118968000Y-64761500D01*
X119048328Y-64755178D01*
X119080775Y-64750039D01*
X119080777Y-64750038D01*
X119080780Y-64750038D01*
X119173008Y-64726498D01*
X119173008Y-64726497D01*
X119173011Y-64726497D01*
X119302277Y-64658289D01*
X119354777Y-64620145D01*
X119377999Y-64602238D01*
X119476827Y-64494558D01*
X119541315Y-64363397D01*
X119554954Y-64321417D01*
X119594392Y-64263744D01*
X119658751Y-64236546D01*
X119727597Y-64248461D01*
X119747196Y-64260472D01*
X119857906Y-64343350D01*
X119857913Y-64343354D01*
X119992620Y-64393596D01*
X119992627Y-64393598D01*
X120052155Y-64399999D01*
X120052172Y-64400000D01*
X120750000Y-64400000D01*
X120750000Y-63375277D01*
X120826306Y-63419333D01*
X120940756Y-63450000D01*
X121059244Y-63450000D01*
X121173694Y-63419333D01*
X121250000Y-63375277D01*
X121250000Y-64400000D01*
X121947828Y-64400000D01*
X121947844Y-64399999D01*
X122007372Y-64393598D01*
X122007379Y-64393596D01*
X122142086Y-64343354D01*
X122142093Y-64343350D01*
X122257187Y-64257190D01*
X122257190Y-64257187D01*
X122343350Y-64142093D01*
X122343354Y-64142086D01*
X122393598Y-64007376D01*
X122399999Y-63947844D01*
X122400000Y-63947827D01*
X122400000Y-63250000D01*
X121375278Y-63250000D01*
X121419333Y-63173694D01*
X121450000Y-63059244D01*
X121450000Y-62940756D01*
X121419333Y-62826306D01*
X121375278Y-62750000D01*
X122400000Y-62750000D01*
X122400000Y-62368905D01*
X126549520Y-62368905D01*
X126549520Y-62631094D01*
X126583740Y-62891009D01*
X126583742Y-62891020D01*
X126651595Y-63144255D01*
X126751924Y-63386471D01*
X126751929Y-63386482D01*
X126883008Y-63613516D01*
X126883014Y-63613524D01*
X126969600Y-63726365D01*
X127871941Y-62824024D01*
X127884879Y-62855258D01*
X127966957Y-62978097D01*
X128071423Y-63082563D01*
X128194262Y-63164641D01*
X128225494Y-63177577D01*
X127323153Y-64079917D01*
X127323153Y-64079918D01*
X127435995Y-64166505D01*
X127436003Y-64166511D01*
X127663037Y-64297590D01*
X127663048Y-64297595D01*
X127905264Y-64397924D01*
X128158499Y-64465777D01*
X128158510Y-64465779D01*
X128418425Y-64499999D01*
X128418440Y-64500000D01*
X128680600Y-64500000D01*
X128680614Y-64499999D01*
X128940529Y-64465779D01*
X128940540Y-64465777D01*
X129193775Y-64397924D01*
X129435991Y-64297595D01*
X129436002Y-64297590D01*
X129663036Y-64166511D01*
X129663054Y-64166499D01*
X129775885Y-64079919D01*
X129775885Y-64079917D01*
X128873545Y-63177578D01*
X128904778Y-63164641D01*
X129027617Y-63082563D01*
X129132083Y-62978097D01*
X129214161Y-62855258D01*
X129227097Y-62824025D01*
X130129437Y-63726365D01*
X130129439Y-63726365D01*
X130216019Y-63613534D01*
X130216031Y-63613516D01*
X130347110Y-63386482D01*
X130347115Y-63386471D01*
X130447444Y-63144255D01*
X130515297Y-62891020D01*
X130515299Y-62891009D01*
X130549519Y-62631094D01*
X130549520Y-62631080D01*
X130549520Y-62368919D01*
X130549519Y-62368905D01*
X130515299Y-62108990D01*
X130515297Y-62108979D01*
X130447444Y-61855744D01*
X130347115Y-61613528D01*
X130347110Y-61613517D01*
X130216031Y-61386483D01*
X130216025Y-61386475D01*
X130129438Y-61273633D01*
X130129437Y-61273633D01*
X129227097Y-62175973D01*
X129214161Y-62144742D01*
X129132083Y-62021903D01*
X129027617Y-61917437D01*
X128904778Y-61835359D01*
X128873543Y-61822421D01*
X129775885Y-60920080D01*
X129663044Y-60833494D01*
X129663036Y-60833488D01*
X129436002Y-60702409D01*
X129435991Y-60702404D01*
X129193775Y-60602075D01*
X128940540Y-60534222D01*
X128940529Y-60534220D01*
X128680614Y-60500000D01*
X128418425Y-60500000D01*
X128158510Y-60534220D01*
X128158499Y-60534222D01*
X127905264Y-60602075D01*
X127663048Y-60702404D01*
X127663037Y-60702409D01*
X127435991Y-60833496D01*
X127323153Y-60920079D01*
X127323153Y-60920080D01*
X128225494Y-61822421D01*
X128194262Y-61835359D01*
X128071423Y-61917437D01*
X127966957Y-62021903D01*
X127884879Y-62144742D01*
X127871941Y-62175974D01*
X126969600Y-61273633D01*
X126969599Y-61273633D01*
X126883016Y-61386471D01*
X126751929Y-61613517D01*
X126751924Y-61613528D01*
X126651595Y-61855744D01*
X126583742Y-62108979D01*
X126583740Y-62108990D01*
X126549520Y-62368905D01*
X122400000Y-62368905D01*
X122400000Y-62052172D01*
X122399999Y-62052155D01*
X122393598Y-61992627D01*
X122393596Y-61992620D01*
X122343354Y-61857913D01*
X122343350Y-61857906D01*
X122257190Y-61742812D01*
X122257187Y-61742809D01*
X122142093Y-61656649D01*
X122142086Y-61656645D01*
X122007379Y-61606403D01*
X122007372Y-61606401D01*
X121947844Y-61600000D01*
X121250000Y-61600000D01*
X121250000Y-62624722D01*
X121173694Y-62580667D01*
X121059244Y-62550000D01*
X120940756Y-62550000D01*
X120826306Y-62580667D01*
X120750000Y-62624722D01*
X120750000Y-61600000D01*
X120052155Y-61600000D01*
X119992627Y-61606401D01*
X119992620Y-61606403D01*
X119857913Y-61656645D01*
X119857910Y-61656647D01*
X119750213Y-61737269D01*
X119684748Y-61761686D01*
X119616475Y-61746834D01*
X119567070Y-61697429D01*
X119555753Y-61668665D01*
X119551497Y-61651989D01*
X119483287Y-61522720D01*
X119445133Y-61470206D01*
X119427242Y-61447006D01*
X119427237Y-61447000D01*
X119319558Y-61348173D01*
X119319559Y-61348173D01*
X119256128Y-61316986D01*
X119188397Y-61283685D01*
X119126654Y-61263623D01*
X119112667Y-61259299D01*
X118968000Y-61238500D01*
X117952000Y-61238500D01*
X117951994Y-61238500D01*
X117871671Y-61244822D01*
X117871666Y-61244822D01*
X117839227Y-61249960D01*
X117839219Y-61249961D01*
X117746991Y-61273501D01*
X117746990Y-61273502D01*
X117617720Y-61341712D01*
X117565206Y-61379866D01*
X117542006Y-61397757D01*
X117542000Y-61397762D01*
X117443173Y-61505441D01*
X117378687Y-61636599D01*
X117378685Y-61636602D01*
X117358623Y-61698345D01*
X117354299Y-61712330D01*
X117354299Y-61712332D01*
X117345395Y-61774262D01*
X117316370Y-61837818D01*
X117257591Y-61875592D01*
X117239066Y-61879381D01*
X117239076Y-61879441D01*
X117237756Y-61879649D01*
X117237253Y-61879753D01*
X117236668Y-61879822D01*
X117204227Y-61884960D01*
X117204219Y-61884961D01*
X117111991Y-61908501D01*
X117111990Y-61908502D01*
X116982720Y-61976712D01*
X116930206Y-62014866D01*
X116907006Y-62032757D01*
X116907000Y-62032762D01*
X116808173Y-62140441D01*
X116743687Y-62271599D01*
X116743685Y-62271602D01*
X116723623Y-62333345D01*
X116719299Y-62347330D01*
X116719299Y-62347333D01*
X116698500Y-62491999D01*
X110558020Y-62491999D01*
X110558020Y-60951362D01*
X110558019Y-60951345D01*
X110554657Y-60920079D01*
X110551509Y-60890799D01*
X110500409Y-60753796D01*
X110412781Y-60636739D01*
X110295724Y-60549111D01*
X110158723Y-60498011D01*
X110098174Y-60491500D01*
X110098158Y-60491500D01*
X107000882Y-60491500D01*
X107000865Y-60491500D01*
X106940317Y-60498011D01*
X106940315Y-60498011D01*
X106803315Y-60549111D01*
X106686259Y-60636739D01*
X106598631Y-60753795D01*
X106547531Y-60890795D01*
X106547531Y-60890797D01*
X106541020Y-60951345D01*
X97656858Y-60951345D01*
X97719792Y-60191836D01*
X97720311Y-60186831D01*
X97834206Y-59273100D01*
X97834945Y-59268035D01*
X97986492Y-58359862D01*
X97987435Y-58354848D01*
X98176392Y-57453672D01*
X98177536Y-57448727D01*
X98403573Y-56556127D01*
X98404932Y-56551196D01*
X98465277Y-56348500D01*
X98667661Y-55668702D01*
X98669200Y-55663900D01*
X98968174Y-54793017D01*
X98969936Y-54788213D01*
X98996646Y-54719761D01*
X99304639Y-53930440D01*
X99306571Y-53925776D01*
X99676452Y-53082533D01*
X99678581Y-53077940D01*
X100077328Y-52262289D01*
X100124453Y-52210711D01*
X100191987Y-52192797D01*
X100258486Y-52214238D01*
X100302836Y-52268227D01*
X100311199Y-52297356D01*
X100323719Y-52376408D01*
X100387367Y-52572294D01*
X100480873Y-52755806D01*
X100601926Y-52922423D01*
X100601930Y-52922428D01*
X100747571Y-53068069D01*
X100747576Y-53068073D01*
X100892908Y-53173661D01*
X100914197Y-53189129D01*
X101031128Y-53248709D01*
X101097705Y-53282632D01*
X101097707Y-53282632D01*
X101097710Y-53282634D01*
X101202707Y-53316749D01*
X101293591Y-53346280D01*
X101395305Y-53362390D01*
X101497019Y-53378500D01*
X101497020Y-53378500D01*
X101702980Y-53378500D01*
X101702981Y-53378500D01*
X101906408Y-53346280D01*
X102102290Y-53282634D01*
X102285803Y-53189129D01*
X102452430Y-53068068D01*
X102598068Y-52922430D01*
X102719129Y-52755803D01*
X102812634Y-52572290D01*
X102876280Y-52376408D01*
X102908500Y-52172981D01*
X102908500Y-51967019D01*
X102876280Y-51763592D01*
X102812634Y-51567710D01*
X102812632Y-51567707D01*
X102812632Y-51567705D01*
X102745739Y-51436422D01*
X102719129Y-51384197D01*
X102703661Y-51362908D01*
X102598073Y-51217576D01*
X102598069Y-51217571D01*
X102452428Y-51071930D01*
X102452423Y-51071926D01*
X102285806Y-50950873D01*
X102285805Y-50950872D01*
X102285803Y-50950871D01*
X102183071Y-50898526D01*
X102102294Y-50857367D01*
X101906408Y-50793719D01*
X101891419Y-50791345D01*
X129539500Y-50791345D01*
X129539500Y-55888654D01*
X129546011Y-55949202D01*
X129546011Y-55949204D01*
X129595575Y-56082086D01*
X129597111Y-56086204D01*
X129684739Y-56203261D01*
X129801796Y-56290889D01*
X129916297Y-56333596D01*
X129933463Y-56339999D01*
X129938799Y-56341989D01*
X129966050Y-56344918D01*
X129999345Y-56348499D01*
X129999362Y-56348500D01*
X131620638Y-56348500D01*
X131620654Y-56348499D01*
X131647692Y-56345591D01*
X131681201Y-56341989D01*
X131686537Y-56339999D01*
X131703703Y-56333596D01*
X131818204Y-56290889D01*
X131935261Y-56203261D01*
X131986044Y-56135422D01*
X132041974Y-56093554D01*
X132111665Y-56088570D01*
X132172989Y-56122054D01*
X132184575Y-56135425D01*
X132230813Y-56197190D01*
X132345906Y-56283350D01*
X132345913Y-56283354D01*
X132480620Y-56333596D01*
X132480627Y-56333598D01*
X132540155Y-56339999D01*
X132540172Y-56340000D01*
X133100000Y-56340000D01*
X133600000Y-56340000D01*
X134159828Y-56340000D01*
X134159844Y-56339999D01*
X134219372Y-56333598D01*
X134219379Y-56333596D01*
X134354086Y-56283354D01*
X134354093Y-56283350D01*
X134469187Y-56197190D01*
X134469190Y-56197187D01*
X134555350Y-56082093D01*
X134555354Y-56082086D01*
X134605596Y-55947379D01*
X134605598Y-55947372D01*
X134611999Y-55887844D01*
X134612000Y-55887827D01*
X134612000Y-53590000D01*
X133600000Y-53590000D01*
X133600000Y-56340000D01*
X133100000Y-56340000D01*
X133100000Y-53090000D01*
X133600000Y-53090000D01*
X134612000Y-53090000D01*
X134612000Y-50792172D01*
X134611999Y-50792155D01*
X134605598Y-50732627D01*
X134605596Y-50732620D01*
X134555354Y-50597913D01*
X134555350Y-50597906D01*
X134469190Y-50482812D01*
X134469187Y-50482809D01*
X134354093Y-50396649D01*
X134354086Y-50396645D01*
X134219379Y-50346403D01*
X134219372Y-50346401D01*
X134159844Y-50340000D01*
X133600000Y-50340000D01*
X133600000Y-53090000D01*
X133100000Y-53090000D01*
X133100000Y-50340000D01*
X132540155Y-50340000D01*
X132480627Y-50346401D01*
X132480620Y-50346403D01*
X132345913Y-50396645D01*
X132345906Y-50396649D01*
X132230812Y-50482809D01*
X132184574Y-50544575D01*
X132128640Y-50586445D01*
X132058948Y-50591429D01*
X131997625Y-50557943D01*
X131986046Y-50544580D01*
X131935261Y-50476739D01*
X131818204Y-50389111D01*
X131681203Y-50338011D01*
X131620654Y-50331500D01*
X131620638Y-50331500D01*
X129999362Y-50331500D01*
X129999345Y-50331500D01*
X129938797Y-50338011D01*
X129938795Y-50338011D01*
X129801795Y-50389111D01*
X129684739Y-50476739D01*
X129597111Y-50593795D01*
X129546011Y-50730795D01*
X129546011Y-50730797D01*
X129539500Y-50791345D01*
X101891419Y-50791345D01*
X101730794Y-50765905D01*
X101702981Y-50761500D01*
X101497019Y-50761500D01*
X101450740Y-50768830D01*
X101293590Y-50793720D01*
X101293587Y-50793720D01*
X101127080Y-50847823D01*
X101100979Y-50848568D01*
X101075276Y-50853156D01*
X101066616Y-50849550D01*
X101057239Y-50849818D01*
X101034876Y-50836333D01*
X101010775Y-50826297D01*
X101005440Y-50818582D01*
X100997406Y-50813738D01*
X100985884Y-50790304D01*
X100971034Y-50768830D01*
X100970716Y-50759455D01*
X100966578Y-50751037D01*
X100969554Y-50725095D01*
X100968672Y-50699000D01*
X100974023Y-50686147D01*
X100974543Y-50681623D01*
X100982235Y-50666424D01*
X100997398Y-50640978D01*
X101000081Y-50636680D01*
X101503706Y-49865823D01*
X101506588Y-49861608D01*
X101602504Y-49727268D01*
X102041626Y-49112240D01*
X102044613Y-49108233D01*
X102610203Y-48381564D01*
X102613413Y-48377612D01*
X102721462Y-48250039D01*
X103208497Y-47674997D01*
X103211839Y-47671212D01*
X103835501Y-46993734D01*
X103839003Y-46990085D01*
X104490085Y-46339003D01*
X104493734Y-46335501D01*
X104866877Y-45991999D01*
X116973500Y-45991999D01*
X116973500Y-47008005D01*
X116979822Y-47088328D01*
X116979822Y-47088333D01*
X116984960Y-47120772D01*
X116984961Y-47120780D01*
X117008501Y-47213008D01*
X117008502Y-47213009D01*
X117076712Y-47342279D01*
X117114866Y-47394793D01*
X117132757Y-47417993D01*
X117132762Y-47417999D01*
X117240441Y-47516826D01*
X117240442Y-47516827D01*
X117371603Y-47581315D01*
X117433320Y-47601368D01*
X117433345Y-47601376D01*
X117437593Y-47602689D01*
X117447330Y-47605700D01*
X117509261Y-47614604D01*
X117572817Y-47643628D01*
X117610592Y-47702406D01*
X117614381Y-47720933D01*
X117614441Y-47720924D01*
X117614652Y-47722260D01*
X117614753Y-47722751D01*
X117614820Y-47723318D01*
X117619960Y-47755772D01*
X117619961Y-47755780D01*
X117643501Y-47848008D01*
X117643502Y-47848009D01*
X117711712Y-47977279D01*
X117749866Y-48029793D01*
X117767757Y-48052993D01*
X117767762Y-48052999D01*
X117875441Y-48151826D01*
X117875442Y-48151827D01*
X118006603Y-48216315D01*
X118068320Y-48236368D01*
X118068345Y-48236376D01*
X118072593Y-48237689D01*
X118082330Y-48240700D01*
X118227000Y-48261500D01*
X118227003Y-48261500D01*
X119242992Y-48261500D01*
X119243000Y-48261500D01*
X119323328Y-48255178D01*
X119355775Y-48250039D01*
X119355777Y-48250038D01*
X119355780Y-48250038D01*
X119448008Y-48226498D01*
X119448008Y-48226497D01*
X119448011Y-48226497D01*
X119577277Y-48158289D01*
X119629777Y-48120145D01*
X119652999Y-48102238D01*
X119751827Y-47994558D01*
X119816315Y-47863397D01*
X119829954Y-47821417D01*
X119869392Y-47763744D01*
X119933751Y-47736546D01*
X120002597Y-47748461D01*
X120022196Y-47760472D01*
X120132906Y-47843350D01*
X120132913Y-47843354D01*
X120267620Y-47893596D01*
X120267627Y-47893598D01*
X120327155Y-47899999D01*
X120327172Y-47900000D01*
X121025000Y-47900000D01*
X121025000Y-46875277D01*
X121101306Y-46919333D01*
X121215756Y-46950000D01*
X121334244Y-46950000D01*
X121448694Y-46919333D01*
X121525000Y-46875277D01*
X121525000Y-47900000D01*
X122222828Y-47900000D01*
X122222844Y-47899999D01*
X122282372Y-47893598D01*
X122282379Y-47893596D01*
X122417086Y-47843354D01*
X122417093Y-47843350D01*
X122532187Y-47757190D01*
X122532190Y-47757187D01*
X122618350Y-47642093D01*
X122618354Y-47642086D01*
X122668596Y-47507379D01*
X122668598Y-47507372D01*
X122674999Y-47447844D01*
X122675000Y-47447827D01*
X122675000Y-46750000D01*
X121650278Y-46750000D01*
X121694333Y-46673694D01*
X121725000Y-46559244D01*
X121725000Y-46440756D01*
X121694333Y-46326306D01*
X121650278Y-46250000D01*
X122675000Y-46250000D01*
X122675000Y-45552172D01*
X122674999Y-45552155D01*
X122668598Y-45492627D01*
X122668596Y-45492620D01*
X122618354Y-45357913D01*
X122618350Y-45357906D01*
X122532190Y-45242812D01*
X122532187Y-45242809D01*
X122417093Y-45156649D01*
X122417086Y-45156645D01*
X122282379Y-45106403D01*
X122282372Y-45106401D01*
X122222844Y-45100000D01*
X121525000Y-45100000D01*
X121525000Y-46124722D01*
X121448694Y-46080667D01*
X121334244Y-46050000D01*
X121215756Y-46050000D01*
X121101306Y-46080667D01*
X121025000Y-46124722D01*
X121025000Y-45100000D01*
X120327155Y-45100000D01*
X120267627Y-45106401D01*
X120267620Y-45106403D01*
X120132913Y-45156645D01*
X120132910Y-45156647D01*
X120025213Y-45237269D01*
X119959748Y-45261686D01*
X119891475Y-45246834D01*
X119842070Y-45197429D01*
X119830753Y-45168665D01*
X119826497Y-45151989D01*
X119758287Y-45022720D01*
X119720133Y-44970206D01*
X119702242Y-44947006D01*
X119702237Y-44947000D01*
X119594558Y-44848173D01*
X119594559Y-44848173D01*
X119531128Y-44816986D01*
X119463397Y-44783685D01*
X119401654Y-44763623D01*
X119387667Y-44759299D01*
X119243000Y-44738500D01*
X118227000Y-44738500D01*
X118226994Y-44738500D01*
X118146671Y-44744822D01*
X118146666Y-44744822D01*
X118114227Y-44749960D01*
X118114219Y-44749961D01*
X118021991Y-44773501D01*
X118021990Y-44773502D01*
X117892720Y-44841712D01*
X117840206Y-44879866D01*
X117817006Y-44897757D01*
X117817000Y-44897762D01*
X117718173Y-45005441D01*
X117653687Y-45136599D01*
X117653685Y-45136602D01*
X117633623Y-45198345D01*
X117629299Y-45212330D01*
X117629299Y-45212332D01*
X117620395Y-45274262D01*
X117591370Y-45337818D01*
X117532591Y-45375592D01*
X117514066Y-45379381D01*
X117514076Y-45379441D01*
X117512756Y-45379649D01*
X117512253Y-45379753D01*
X117511668Y-45379822D01*
X117479227Y-45384960D01*
X117479219Y-45384961D01*
X117386991Y-45408501D01*
X117386990Y-45408502D01*
X117257720Y-45476712D01*
X117205206Y-45514866D01*
X117182006Y-45532757D01*
X117182000Y-45532762D01*
X117083173Y-45640441D01*
X117018687Y-45771599D01*
X117018685Y-45771602D01*
X116998623Y-45833345D01*
X116994299Y-45847330D01*
X116994299Y-45847333D01*
X116973500Y-45991999D01*
X104866877Y-45991999D01*
X105171212Y-45711839D01*
X105174997Y-45708497D01*
X105877615Y-45113410D01*
X105881564Y-45110203D01*
X106608233Y-44544613D01*
X106612240Y-44541626D01*
X107361608Y-44006588D01*
X107365823Y-44003706D01*
X108136680Y-43500081D01*
X108140978Y-43497398D01*
X108931978Y-43026065D01*
X108936389Y-43023558D01*
X109746253Y-42585282D01*
X109750654Y-42583017D01*
X110577940Y-42178581D01*
X110582542Y-42176449D01*
X111425776Y-41806571D01*
X111430440Y-41804639D01*
X112288221Y-41469933D01*
X112293017Y-41468174D01*
X113163900Y-41169200D01*
X113168702Y-41167661D01*
X114051207Y-40904928D01*
X114056127Y-40903573D01*
X114948727Y-40677536D01*
X114953672Y-40676392D01*
X115854848Y-40487435D01*
X115859839Y-40486496D01*
X116768043Y-40334943D01*
X116773100Y-40334206D01*
X117686831Y-40220311D01*
X117691836Y-40219792D01*
X118609464Y-40143755D01*
X118614536Y-40143440D01*
X119534509Y-40105389D01*
X119539633Y-40105284D01*
X120460367Y-40105284D01*
X120465490Y-40105389D01*
G37*
%TD.AperFunction*%
%TD*%
M02*
