%TF.GenerationSoftware,KiCad,Pcbnew,9.0.0*%
%TF.CreationDate,2025-03-06T09:18:45+01:00*%
%TF.ProjectId,spaceEggs,73706163-6545-4676-9773-2e6b69636164,rev?*%
%TF.SameCoordinates,Original*%
%TF.FileFunction,Legend,Bot*%
%TF.FilePolarity,Positive*%
%FSLAX46Y46*%
G04 Gerber Fmt 4.6, Leading zero omitted, Abs format (unit mm)*
G04 Created by KiCad (PCBNEW 9.0.0) date 2025-03-06 09:18:45*
%MOMM*%
%LPD*%
G01*
G04 APERTURE LIST*
%ADD10C,0.150000*%
%ADD11C,0.250000*%
%ADD12C,0.120000*%
G04 APERTURE END LIST*
D10*
X122687030Y-42869819D02*
X123163220Y-42869819D01*
X123163220Y-42869819D02*
X123163220Y-41869819D01*
X122353696Y-42346009D02*
X122020363Y-42346009D01*
X121877506Y-42869819D02*
X122353696Y-42869819D01*
X122353696Y-42869819D02*
X122353696Y-41869819D01*
X122353696Y-41869819D02*
X121877506Y-41869819D01*
X121448934Y-42869819D02*
X121448934Y-41869819D01*
X121448934Y-41869819D02*
X121210839Y-41869819D01*
X121210839Y-41869819D02*
X121067982Y-41917438D01*
X121067982Y-41917438D02*
X120972744Y-42012676D01*
X120972744Y-42012676D02*
X120925125Y-42107914D01*
X120925125Y-42107914D02*
X120877506Y-42298390D01*
X120877506Y-42298390D02*
X120877506Y-42441247D01*
X120877506Y-42441247D02*
X120925125Y-42631723D01*
X120925125Y-42631723D02*
X120972744Y-42726961D01*
X120972744Y-42726961D02*
X121067982Y-42822200D01*
X121067982Y-42822200D02*
X121210839Y-42869819D01*
X121210839Y-42869819D02*
X121448934Y-42869819D01*
X120544172Y-41869819D02*
X119925125Y-41869819D01*
X119925125Y-41869819D02*
X120258458Y-42250771D01*
X120258458Y-42250771D02*
X120115601Y-42250771D01*
X120115601Y-42250771D02*
X120020363Y-42298390D01*
X120020363Y-42298390D02*
X119972744Y-42346009D01*
X119972744Y-42346009D02*
X119925125Y-42441247D01*
X119925125Y-42441247D02*
X119925125Y-42679342D01*
X119925125Y-42679342D02*
X119972744Y-42774580D01*
X119972744Y-42774580D02*
X120020363Y-42822200D01*
X120020363Y-42822200D02*
X120115601Y-42869819D01*
X120115601Y-42869819D02*
X120401315Y-42869819D01*
X120401315Y-42869819D02*
X120496553Y-42822200D01*
X120496553Y-42822200D02*
X120544172Y-42774580D01*
X118877505Y-41869819D02*
X118306077Y-41869819D01*
X118591791Y-42869819D02*
X118591791Y-41869819D01*
X117829886Y-42869819D02*
X117925124Y-42822200D01*
X117925124Y-42822200D02*
X117972743Y-42774580D01*
X117972743Y-42774580D02*
X118020362Y-42679342D01*
X118020362Y-42679342D02*
X118020362Y-42393628D01*
X118020362Y-42393628D02*
X117972743Y-42298390D01*
X117972743Y-42298390D02*
X117925124Y-42250771D01*
X117925124Y-42250771D02*
X117829886Y-42203152D01*
X117829886Y-42203152D02*
X117687029Y-42203152D01*
X117687029Y-42203152D02*
X117591791Y-42250771D01*
X117591791Y-42250771D02*
X117544172Y-42298390D01*
X117544172Y-42298390D02*
X117496553Y-42393628D01*
X117496553Y-42393628D02*
X117496553Y-42679342D01*
X117496553Y-42679342D02*
X117544172Y-42774580D01*
X117544172Y-42774580D02*
X117591791Y-42822200D01*
X117591791Y-42822200D02*
X117687029Y-42869819D01*
X117687029Y-42869819D02*
X117829886Y-42869819D01*
X117067981Y-42203152D02*
X117067981Y-43203152D01*
X117067981Y-42250771D02*
X116972743Y-42203152D01*
X116972743Y-42203152D02*
X116782267Y-42203152D01*
X116782267Y-42203152D02*
X116687029Y-42250771D01*
X116687029Y-42250771D02*
X116639410Y-42298390D01*
X116639410Y-42298390D02*
X116591791Y-42393628D01*
X116591791Y-42393628D02*
X116591791Y-42679342D01*
X116591791Y-42679342D02*
X116639410Y-42774580D01*
X116639410Y-42774580D02*
X116687029Y-42822200D01*
X116687029Y-42822200D02*
X116782267Y-42869819D01*
X116782267Y-42869819D02*
X116972743Y-42869819D01*
X116972743Y-42869819D02*
X117067981Y-42822200D01*
X122687030Y-75869819D02*
X123163220Y-75869819D01*
X123163220Y-75869819D02*
X123163220Y-74869819D01*
X122353696Y-75346009D02*
X122020363Y-75346009D01*
X121877506Y-75869819D02*
X122353696Y-75869819D01*
X122353696Y-75869819D02*
X122353696Y-74869819D01*
X122353696Y-74869819D02*
X121877506Y-74869819D01*
X121448934Y-75869819D02*
X121448934Y-74869819D01*
X121448934Y-74869819D02*
X121210839Y-74869819D01*
X121210839Y-74869819D02*
X121067982Y-74917438D01*
X121067982Y-74917438D02*
X120972744Y-75012676D01*
X120972744Y-75012676D02*
X120925125Y-75107914D01*
X120925125Y-75107914D02*
X120877506Y-75298390D01*
X120877506Y-75298390D02*
X120877506Y-75441247D01*
X120877506Y-75441247D02*
X120925125Y-75631723D01*
X120925125Y-75631723D02*
X120972744Y-75726961D01*
X120972744Y-75726961D02*
X121067982Y-75822200D01*
X121067982Y-75822200D02*
X121210839Y-75869819D01*
X121210839Y-75869819D02*
X121448934Y-75869819D01*
X120496553Y-74965057D02*
X120448934Y-74917438D01*
X120448934Y-74917438D02*
X120353696Y-74869819D01*
X120353696Y-74869819D02*
X120115601Y-74869819D01*
X120115601Y-74869819D02*
X120020363Y-74917438D01*
X120020363Y-74917438D02*
X119972744Y-74965057D01*
X119972744Y-74965057D02*
X119925125Y-75060295D01*
X119925125Y-75060295D02*
X119925125Y-75155533D01*
X119925125Y-75155533D02*
X119972744Y-75298390D01*
X119972744Y-75298390D02*
X120544172Y-75869819D01*
X120544172Y-75869819D02*
X119925125Y-75869819D01*
X118877505Y-74869819D02*
X118306077Y-74869819D01*
X118591791Y-75869819D02*
X118591791Y-74869819D01*
X117829886Y-75869819D02*
X117925124Y-75822200D01*
X117925124Y-75822200D02*
X117972743Y-75774580D01*
X117972743Y-75774580D02*
X118020362Y-75679342D01*
X118020362Y-75679342D02*
X118020362Y-75393628D01*
X118020362Y-75393628D02*
X117972743Y-75298390D01*
X117972743Y-75298390D02*
X117925124Y-75250771D01*
X117925124Y-75250771D02*
X117829886Y-75203152D01*
X117829886Y-75203152D02*
X117687029Y-75203152D01*
X117687029Y-75203152D02*
X117591791Y-75250771D01*
X117591791Y-75250771D02*
X117544172Y-75298390D01*
X117544172Y-75298390D02*
X117496553Y-75393628D01*
X117496553Y-75393628D02*
X117496553Y-75679342D01*
X117496553Y-75679342D02*
X117544172Y-75774580D01*
X117544172Y-75774580D02*
X117591791Y-75822200D01*
X117591791Y-75822200D02*
X117687029Y-75869819D01*
X117687029Y-75869819D02*
X117829886Y-75869819D01*
X117067981Y-75203152D02*
X117067981Y-76203152D01*
X117067981Y-75250771D02*
X116972743Y-75203152D01*
X116972743Y-75203152D02*
X116782267Y-75203152D01*
X116782267Y-75203152D02*
X116687029Y-75250771D01*
X116687029Y-75250771D02*
X116639410Y-75298390D01*
X116639410Y-75298390D02*
X116591791Y-75393628D01*
X116591791Y-75393628D02*
X116591791Y-75679342D01*
X116591791Y-75679342D02*
X116639410Y-75774580D01*
X116639410Y-75774580D02*
X116687029Y-75822200D01*
X116687029Y-75822200D02*
X116782267Y-75869819D01*
X116782267Y-75869819D02*
X116972743Y-75869819D01*
X116972743Y-75869819D02*
X117067981Y-75822200D01*
X116503220Y-79498866D02*
X115741316Y-79498866D01*
X116122268Y-79879819D02*
X116122268Y-79117914D01*
X116503220Y-46478866D02*
X115741316Y-46478866D01*
X116122268Y-46859819D02*
X116122268Y-46097914D01*
X120835234Y-67931009D02*
X120692377Y-67978628D01*
X120692377Y-67978628D02*
X120644758Y-68026247D01*
X120644758Y-68026247D02*
X120597139Y-68121485D01*
X120597139Y-68121485D02*
X120597139Y-68264342D01*
X120597139Y-68264342D02*
X120644758Y-68359580D01*
X120644758Y-68359580D02*
X120692377Y-68407200D01*
X120692377Y-68407200D02*
X120787615Y-68454819D01*
X120787615Y-68454819D02*
X121168567Y-68454819D01*
X121168567Y-68454819D02*
X121168567Y-67454819D01*
X121168567Y-67454819D02*
X120835234Y-67454819D01*
X120835234Y-67454819D02*
X120739996Y-67502438D01*
X120739996Y-67502438D02*
X120692377Y-67550057D01*
X120692377Y-67550057D02*
X120644758Y-67645295D01*
X120644758Y-67645295D02*
X120644758Y-67740533D01*
X120644758Y-67740533D02*
X120692377Y-67835771D01*
X120692377Y-67835771D02*
X120739996Y-67883390D01*
X120739996Y-67883390D02*
X120835234Y-67931009D01*
X120835234Y-67931009D02*
X121168567Y-67931009D01*
X120311424Y-67454819D02*
X119739996Y-67454819D01*
X120025710Y-68454819D02*
X120025710Y-67454819D01*
X118882853Y-68454819D02*
X119454281Y-68454819D01*
X119168567Y-68454819D02*
X119168567Y-67454819D01*
X119168567Y-67454819D02*
X119263805Y-67597676D01*
X119263805Y-67597676D02*
X119359043Y-67692914D01*
X119359043Y-67692914D02*
X119454281Y-67740533D01*
X123284763Y-57081009D02*
X123141906Y-57128628D01*
X123141906Y-57128628D02*
X123094287Y-57176247D01*
X123094287Y-57176247D02*
X123046668Y-57271485D01*
X123046668Y-57271485D02*
X123046668Y-57414342D01*
X123046668Y-57414342D02*
X123094287Y-57509580D01*
X123094287Y-57509580D02*
X123141906Y-57557200D01*
X123141906Y-57557200D02*
X123237144Y-57604819D01*
X123237144Y-57604819D02*
X123618096Y-57604819D01*
X123618096Y-57604819D02*
X123618096Y-56604819D01*
X123618096Y-56604819D02*
X123284763Y-56604819D01*
X123284763Y-56604819D02*
X123189525Y-56652438D01*
X123189525Y-56652438D02*
X123141906Y-56700057D01*
X123141906Y-56700057D02*
X123094287Y-56795295D01*
X123094287Y-56795295D02*
X123094287Y-56890533D01*
X123094287Y-56890533D02*
X123141906Y-56985771D01*
X123141906Y-56985771D02*
X123189525Y-57033390D01*
X123189525Y-57033390D02*
X123284763Y-57081009D01*
X123284763Y-57081009D02*
X123618096Y-57081009D01*
X122189525Y-57604819D02*
X122189525Y-57081009D01*
X122189525Y-57081009D02*
X122237144Y-56985771D01*
X122237144Y-56985771D02*
X122332382Y-56938152D01*
X122332382Y-56938152D02*
X122522858Y-56938152D01*
X122522858Y-56938152D02*
X122618096Y-56985771D01*
X122189525Y-57557200D02*
X122284763Y-57604819D01*
X122284763Y-57604819D02*
X122522858Y-57604819D01*
X122522858Y-57604819D02*
X122618096Y-57557200D01*
X122618096Y-57557200D02*
X122665715Y-57461961D01*
X122665715Y-57461961D02*
X122665715Y-57366723D01*
X122665715Y-57366723D02*
X122618096Y-57271485D01*
X122618096Y-57271485D02*
X122522858Y-57223866D01*
X122522858Y-57223866D02*
X122284763Y-57223866D01*
X122284763Y-57223866D02*
X122189525Y-57176247D01*
X121856191Y-56938152D02*
X121475239Y-56938152D01*
X121713334Y-56604819D02*
X121713334Y-57461961D01*
X121713334Y-57461961D02*
X121665715Y-57557200D01*
X121665715Y-57557200D02*
X121570477Y-57604819D01*
X121570477Y-57604819D02*
X121475239Y-57604819D01*
X121284762Y-56938152D02*
X120903810Y-56938152D01*
X121141905Y-56604819D02*
X121141905Y-57461961D01*
X121141905Y-57461961D02*
X121094286Y-57557200D01*
X121094286Y-57557200D02*
X120999048Y-57604819D01*
X120999048Y-57604819D02*
X120903810Y-57604819D01*
X120189524Y-57557200D02*
X120284762Y-57604819D01*
X120284762Y-57604819D02*
X120475238Y-57604819D01*
X120475238Y-57604819D02*
X120570476Y-57557200D01*
X120570476Y-57557200D02*
X120618095Y-57461961D01*
X120618095Y-57461961D02*
X120618095Y-57081009D01*
X120618095Y-57081009D02*
X120570476Y-56985771D01*
X120570476Y-56985771D02*
X120475238Y-56938152D01*
X120475238Y-56938152D02*
X120284762Y-56938152D01*
X120284762Y-56938152D02*
X120189524Y-56985771D01*
X120189524Y-56985771D02*
X120141905Y-57081009D01*
X120141905Y-57081009D02*
X120141905Y-57176247D01*
X120141905Y-57176247D02*
X120618095Y-57271485D01*
X119713333Y-57604819D02*
X119713333Y-56938152D01*
X119713333Y-57128628D02*
X119665714Y-57033390D01*
X119665714Y-57033390D02*
X119618095Y-56985771D01*
X119618095Y-56985771D02*
X119522857Y-56938152D01*
X119522857Y-56938152D02*
X119427619Y-56938152D01*
X119189523Y-56938152D02*
X118951428Y-57604819D01*
X118713333Y-56938152D02*
X118951428Y-57604819D01*
X118951428Y-57604819D02*
X119046666Y-57842914D01*
X119046666Y-57842914D02*
X119094285Y-57890533D01*
X119094285Y-57890533D02*
X119189523Y-57938152D01*
X118570476Y-57700057D02*
X117808571Y-57700057D01*
X116999047Y-57509580D02*
X117046666Y-57557200D01*
X117046666Y-57557200D02*
X117189523Y-57604819D01*
X117189523Y-57604819D02*
X117284761Y-57604819D01*
X117284761Y-57604819D02*
X117427618Y-57557200D01*
X117427618Y-57557200D02*
X117522856Y-57461961D01*
X117522856Y-57461961D02*
X117570475Y-57366723D01*
X117570475Y-57366723D02*
X117618094Y-57176247D01*
X117618094Y-57176247D02*
X117618094Y-57033390D01*
X117618094Y-57033390D02*
X117570475Y-56842914D01*
X117570475Y-56842914D02*
X117522856Y-56747676D01*
X117522856Y-56747676D02*
X117427618Y-56652438D01*
X117427618Y-56652438D02*
X117284761Y-56604819D01*
X117284761Y-56604819D02*
X117189523Y-56604819D01*
X117189523Y-56604819D02*
X117046666Y-56652438D01*
X117046666Y-56652438D02*
X116999047Y-56700057D01*
X116189523Y-57557200D02*
X116284761Y-57604819D01*
X116284761Y-57604819D02*
X116475237Y-57604819D01*
X116475237Y-57604819D02*
X116570475Y-57557200D01*
X116570475Y-57557200D02*
X116618094Y-57461961D01*
X116618094Y-57461961D02*
X116618094Y-57081009D01*
X116618094Y-57081009D02*
X116570475Y-56985771D01*
X116570475Y-56985771D02*
X116475237Y-56938152D01*
X116475237Y-56938152D02*
X116284761Y-56938152D01*
X116284761Y-56938152D02*
X116189523Y-56985771D01*
X116189523Y-56985771D02*
X116141904Y-57081009D01*
X116141904Y-57081009D02*
X116141904Y-57176247D01*
X116141904Y-57176247D02*
X116618094Y-57271485D01*
X115570475Y-57604819D02*
X115665713Y-57557200D01*
X115665713Y-57557200D02*
X115713332Y-57461961D01*
X115713332Y-57461961D02*
X115713332Y-56604819D01*
X115046665Y-57604819D02*
X115141903Y-57557200D01*
X115141903Y-57557200D02*
X115189522Y-57461961D01*
X115189522Y-57461961D02*
X115189522Y-56604819D01*
D11*
X112521904Y-62650333D02*
X110998095Y-62650333D01*
X111759999Y-63412238D02*
X111759999Y-61888428D01*
D12*
%TO.C,D3*%
X122565000Y-44955000D02*
X122565000Y-48045000D01*
X117015000Y-46500462D02*
G75*
G02*
X122565000Y-44955170I2990000J462D01*
G01*
X122565000Y-48044830D02*
G75*
G02*
X117015000Y-46499538I-2560000J1544830D01*
G01*
X122505000Y-46500000D02*
G75*
G02*
X117505000Y-46500000I-2500000J0D01*
G01*
X117505000Y-46500000D02*
G75*
G02*
X122505000Y-46500000I2500000J0D01*
G01*
%TO.C,BT1*%
X106849520Y-59500000D02*
X106849520Y-65500000D01*
X106849520Y-59500000D02*
X108990659Y-59500000D01*
X106849520Y-65500000D02*
X108990659Y-65500000D01*
X108990659Y-65500000D02*
G75*
G02*
X109742414Y-66026384I1J-800000D01*
G01*
X109740659Y-59000000D02*
G75*
G02*
X131049520Y-64100000I10464218J-3344747D01*
G01*
X109742413Y-58973616D02*
G75*
G02*
X108990659Y-59500000I-751756J273618D01*
G01*
X131049520Y-64100000D02*
G75*
G02*
X109740659Y-66000000I-10867317J1437560D01*
G01*
%TO.C,D1*%
X122790000Y-77955000D02*
X122790000Y-81045000D01*
X117240000Y-79500462D02*
G75*
G02*
X122790000Y-77955170I2990000J462D01*
G01*
X122790000Y-81044830D02*
G75*
G02*
X117240000Y-79499538I-2560000J1544830D01*
G01*
X122730000Y-79500000D02*
G75*
G02*
X117730000Y-79500000I-2500000J0D01*
G01*
X117730000Y-79500000D02*
G75*
G02*
X122730000Y-79500000I2500000J0D01*
G01*
%TD*%
M02*
