<?xml version="1.0" encoding="UTF-8" standalone="no"?>
<!-- Generator: Adobe Illustrator 14.0.0, SVG Export Plug-In . SVG Version: 6.00 Build 43363)  -->

<svg
   version="1.1"
   id="svg2"
   sodipodi:version="0.32"
   inkscape:version="1.3 (0e150ed6c4, 2023-07-21)"
   sodipodi:docname="LED,_5mm,_green_(de).svg"
   inkscape:output_extension="org.inkscape.output.svg.inkscape"
   x="0px"
   y="0px"
   width="450px"
   height="500px"
   viewBox="0 0 450 500"
   enable-background="new 0 0 450 500"
   xml:space="preserve"
   xmlns:inkscape="http://www.inkscape.org/namespaces/inkscape"
   xmlns:sodipodi="http://sodipodi.sourceforge.net/DTD/sodipodi-0.dtd"
   xmlns="http://www.w3.org/2000/svg"
   xmlns:svg="http://www.w3.org/2000/svg">&#10;<defs
   id="defs1">&#10;	&#10;	&#10;		<inkscape:perspective
   id="perspective10"
   inkscape:persp3d-origin="372.04724 : 350.78739 : 1"
   inkscape:vp_z="744.09448 : 526.18109 : 1"
   inkscape:vp_y="0 : 1000 : 0"
   inkscape:vp_x="0 : 526.18109 : 1"
   sodipodi:type="inkscape:persp3d">&#10;		</inkscape:perspective>&#10;	&#10;		<inkscape:perspective
   id="perspective2410"
   inkscape:persp3d-origin="372.04724 : 350.78739 : 1"
   inkscape:vp_z="744.09448 : 526.18109 : 1"
   inkscape:vp_y="0 : 1000 : 0"
   inkscape:vp_x="0 : 526.18109 : 1"
   sodipodi:type="inkscape:persp3d">&#10;		</inkscape:perspective>&#10;</defs>&#10;<sodipodi:namedview
   id="base"
   inkscape:guide-bbox="true"
   inkscape:snap-center="true"
   inkscape:object-nodes="true"
   inkscape:window-y="32"
   inkscape:window-x="0"
   inkscape:window-height="1011"
   inkscape:window-width="1920"
   inkscape:current-layer="layer1"
   inkscape:document-units="px"
   inkscape:pageshadow="2"
   inkscape:pageopacity="0.0"
   showguides="true"
   showgrid="true"
   inkscape:cy="284.09909"
   inkscape:cx="65.984304"
   inkscape:zoom="1.3639607"
   bordercolor="#666666"
   pagecolor="#ffffff"
   objecttolerance="20"
   guidetolerance="10"
   gridtolerance="10000"
   borderopacity="1.0"
   inkscape:window-maximized="1"
   inkscape:showpageshadow="2"
   inkscape:pagecheckerboard="0"
   inkscape:deskcolor="#d1d1d1">&#10;	<inkscape:grid
   type="xygrid"
   enabled="true"
   visible="true"
   id="grid3674"
   originx="0"
   originy="0"
   spacingy="1"
   spacingx="1"
   units="px" />&#10;</sodipodi:namedview>&#10;<g
   id="layer1"
   inkscape:label="Layer 1"
   inkscape:groupmode="layer">&#10;	&#10;		<path
   id="path2634"
   sodipodi:nodetypes="ccccccccccccc"
   fill="#89E234"
   fill-opacity="0.3059"
   stroke="#000000"
   stroke-width="1.8"
   stroke-linecap="round"
   stroke-linejoin="round"
   stroke-miterlimit="10"
   d="   M64.744,120.974v95.786c-7.963,7.931-11.667,16.45-11.688,24.795l-0.013,27.504c0.241,18.65,17.329,31.85,32.935,38.693   c22.231,9.885,49.315,12.285,73.206,8.666l60.824-35.102c1.742-4.041,2.652-7.844,2.725-12.258l-0.039-27.751   c-0.087-9.094-4.544-17.531-11.661-24.511v-95.854c-0.55-56.479-60.436-91.116-109.701-63.301   C78.801,70.609,64.723,94.976,64.744,120.974z"
   style="fill:none" />&#10;	&#10;		<path
   id="path2424"
   sodipodi:nodetypes="cccccs"
   fill="none"
   stroke="#000000"
   stroke-width="0.9"
   stroke-linecap="round"
   stroke-linejoin="round"
   stroke-miterlimit="10"
   d="   M101.326,205.016c-4.733,1.577-9.307,3.514-13.614,5.848c-11.41,6.167-22.882,16.775-22.968,30.707 M211.033,241.572   c-0.058-12.727-9.726-22.699-19.935-28.974c-5.742-3.46-12.003-6.154-18.525-8.182" />&#10;	&#10;		<path
   id="path2438"
   fill="none"
   stroke="#000000"
   stroke-width="1.8"
   stroke-linecap="round"
   stroke-linejoin="round"
   stroke-miterlimit="10"
   d="   M178.655,346.32l-4.209-2.477" />&#10;	&#10;		<path
   id="path2442"
   fill="none"
   stroke="#000000"
   stroke-width="1.8"
   stroke-linecap="round"
   stroke-linejoin="round"
   stroke-miterlimit="10"
   d="   M153.83,317.162v26.744 M153.83,339.14l-4.209,2.352" />&#10;	&#10;		<path
   id="path2446"
   fill="none"
   stroke="#000000"
   stroke-width="1.8"
   stroke-linecap="round"
   stroke-linejoin="round"
   stroke-miterlimit="10"
   d="   M164.168,349.849v-36.34" />&#10;	&#10;		<path
   id="path2450"
   fill="none"
   stroke="#000000"
   stroke-width="1.8"
   stroke-linecap="round"
   stroke-linejoin="round"
   stroke-miterlimit="10"
   d="   M153.83,343.906l-4.209-2.477" />&#10;	&#10;		<path
   id="path2454"
   fill="none"
   stroke="#000000"
   stroke-width="1.8"
   stroke-linecap="round"
   stroke-linejoin="round"
   stroke-miterlimit="10"
   d="   M174.507,343.906v-36.34" />&#10;	&#10;		<path
   id="path2468"
   fill="none"
   stroke="#000000"
   stroke-width="1.8"
   stroke-linecap="round"
   stroke-linejoin="round"
   stroke-miterlimit="10"
   d="   M111.609,343.41l4.147,2.416 M115.756,345.826v-23.959 M115.756,321.927l-4.209-2.475" />&#10;	&#10;		<path
   id="path2480"
   fill="none"
   stroke="#000000"
   stroke-width="1.8"
   stroke-linecap="round"
   stroke-linejoin="round"
   stroke-miterlimit="10"
   d="   M126.095,339.82v-22.348" />&#10;	&#10;		<path
   id="path2488"
   fill="none"
   stroke="#000000"
   stroke-width="1.8"
   stroke-linecap="round"
   stroke-linejoin="round"
   stroke-miterlimit="10"
   d="   M116.933,316.482l-5.386,3.033 M126.095,339.82l-10.4,6.006 M101.27,313.572l-1.3-0.744" />&#10;	&#10;		<path
   id="path2492"
   fill="none"
   stroke="#000000"
   stroke-width="1.8"
   stroke-linecap="round"
   stroke-linejoin="round"
   stroke-miterlimit="10"
   d="   M97.122,311.961v23.094 M97.122,335.054l4.148,2.412" />&#10;	&#10;		<path
   id="path2510"
   fill="none"
   stroke="#000000"
   stroke-width="1.8"
   stroke-linecap="round"
   stroke-linejoin="round"
   stroke-miterlimit="10"
   d="   M174.507,343.906l-10.4,5.943" />&#10;	&#10;		<path
   id="path2532"
   fill="none"
   stroke="#000000"
   stroke-width="1.8"
   stroke-linecap="round"
   stroke-linejoin="round"
   stroke-miterlimit="10"
   d="   M149.682,341.492v23.896 M149.682,365.388l4.147,2.414 M168.316,352.263l-4.209-2.477" />&#10;	&#10;		<path
   id="path2466"
   sodipodi:nodetypes="cccccccccccc"
   fill="none"
   stroke="#000000"
   stroke-width="1.8"
   stroke-linecap="round"
   stroke-linejoin="round"
   stroke-miterlimit="10"
   d="   M110.989,439.39l0.62-96.041 M121.947,429.484v-87.311 M101.27,337.467v92.018 M164.168,436.119v-62.436 M153.83,367.802v58.41    M174.507,426.213v-53.705" />&#10;	&#10;		<path
   id="path2544"
   fill="none"
   stroke="#000000"
   stroke-width="1.8"
   stroke-linecap="round"
   stroke-linejoin="round"
   stroke-miterlimit="10"
   d="   M164.168,373.746l4.148,2.414 M168.316,376.16v-23.959 M178.655,370.154l-10.4,6.006 M178.655,370.154V346.26 M178.655,346.32   l-10.4,5.943" />&#10;	&#10;		<path
   id="path3556"
   fill="none"
   stroke="#000000"
   stroke-width="0.9"
   stroke-linecap="round"
   stroke-linejoin="round"
   stroke-miterlimit="10"
   d="   M164.168,290.17l-10.4-6.006" />&#10;	&#10;		<path
   id="path3554"
   fill="none"
   stroke="#000000"
   stroke-width="0.9"
   stroke-linecap="round"
   stroke-linejoin="round"
   stroke-miterlimit="10"
   d="   M159.897,192.168v-0.248" />&#10;	&#10;		<linearGradient
   id="path3563_1_"
   gradientUnits="userSpaceOnUse"
   x1="275.6992"
   y1="198.2107"
   x2="233.2713"
   y2="201.1823"
   gradientTransform="matrix(0 1.25 -1.25 0 400.1408 -165.9163)">&#10;		<stop
   offset="0"
   style="stop-color:#FDEC64;stop-opacity:0.3529"
   id="stop1" />&#10;		<stop
   offset="1"
   style="stop-color:#FCE94F;stop-opacity:0"
   id="stop2" />&#10;	</linearGradient>&#10;	&#10;	&#10;		<path
   id="path3552"
   fill="#FCE94F"
   stroke="#000000"
   stroke-width="0.9"
   stroke-linecap="round"
   stroke-linejoin="round"
   stroke-miterlimit="10"
   d="   M154.016,189.692c-0.591,6.592-16.287,6.713-17.52,0.434C136.172,182.959,153.502,182.844,154.016,189.692"
   style="fill:none" />&#10;	&#10;		<path
   id="path3651"
   fill="#888A85"
   stroke="#000000"
   stroke-width="0.9"
   stroke-linecap="round"
   stroke-linejoin="round"
   stroke-miterlimit="10"
   d="   M148.581,191.758c-0.203,2.141-5.61,2.181-6.036,0.14C142.435,189.57,148.405,189.533,148.581,191.758"
   style="fill:none" />&#10;	&#10;		<path
   id="path3550"
   fill="none"
   stroke="#000000"
   stroke-width="0.9"
   stroke-linecap="round"
   stroke-linejoin="round"
   stroke-miterlimit="10"
   d="   M130.614,191.983c0.336,7.411,12.76,9.38,18.386,8.172" />&#10;	&#10;		<path
   id="path3548"
   fill="none"
   stroke="#000000"
   stroke-width="0.9"
   stroke-linecap="round"
   stroke-linejoin="round"
   stroke-miterlimit="10"
   d="   M141.448,181.52l-8.977-5.2" />&#10;	&#10;		<path
   id="path3546"
   fill="none"
   stroke="#000000"
   stroke-width="0.9"
   stroke-linecap="round"
   stroke-linejoin="round"
   stroke-miterlimit="10"
   d="   M149,200.155v-2.353" />&#10;	&#10;		<path
   id="path3544"
   fill="none"
   stroke="#000000"
   stroke-width="0.9"
   stroke-linecap="round"
   stroke-linejoin="round"
   stroke-miterlimit="10"
   d="   M174.507,207.769l-10.4,6.005" />&#10;	&#10;		<path
   id="path3542"
   fill="none"
   stroke="#000000"
   stroke-width="0.9"
   stroke-linecap="round"
   stroke-linejoin="round"
   stroke-miterlimit="10"
   d="   M153.83,249.99v34.236" />&#10;	&#10;		<path
   id="path3540"
   fill="none"
   stroke="#000000"
   stroke-width="0.9"
   stroke-linecap="round"
   stroke-linejoin="round"
   stroke-miterlimit="10"
   d="   M159.897,191.983v-2.352" />&#10;	&#10;		<path
   id="path3538"
   fill="none"
   stroke="#000000"
   stroke-width="0.9"
   stroke-linecap="round"
   stroke-linejoin="round"
   stroke-miterlimit="10"
   d="   M174.507,284.226l-10.4,5.943" />&#10;	&#10;		<path
   id="path3536"
   fill="none"
   stroke="#000000"
   stroke-width="0.9"
   stroke-linecap="round"
   stroke-linejoin="round"
   stroke-miterlimit="10"
   d="   M174.507,284.226v-76.519" />&#10;	&#10;		<path
   id="path3534"
   fill="none"
   stroke="#000000"
   stroke-width="0.9"
   stroke-linecap="round"
   stroke-linejoin="round"
   stroke-miterlimit="10"
   d="   M159.339,191.921c3.399-8.737-12.101-11.818-17.891-10.4" />&#10;	&#10;		<path
   id="path3532"
   fill="none"
   stroke="#000000"
   stroke-width="0.9"
   stroke-linecap="round"
   stroke-linejoin="round"
   stroke-miterlimit="10"
   d="   M164.168,290.17v-76.457" />&#10;	&#10;		<path
   id="path3530"
   fill="none"
   stroke="#000000"
   stroke-width="0.9"
   stroke-linecap="round"
   stroke-linejoin="round"
   stroke-miterlimit="10"
   d="   M164.168,213.775l-6.252-10.834" />&#10;	&#10;		<path
   id="path3528"
   fill="none"
   stroke="#000000"
   stroke-width="0.9"
   stroke-linecap="round"
   stroke-linejoin="round"
   stroke-miterlimit="10"
   d="   M143.244,243.861l10.586,6.129" />&#10;	&#10;		<path
   id="path3526"
   fill="none"
   stroke="#000000"
   stroke-width="0.9"
   stroke-linecap="round"
   stroke-linejoin="round"
   stroke-miterlimit="10"
   d="   M131.11,187.525c-3.106,8.847,12.009,11.71,17.891,10.339" />&#10;	&#10;		<path
   id="path3524"
   fill="none"
   stroke="#000000"
   stroke-width="0.9"
   stroke-linecap="round"
   stroke-linejoin="round"
   stroke-miterlimit="10"
   d="   M168.316,197.059l-9.039-5.201" />&#10;	&#10;		<path
   id="path3522"
   fill="none"
   stroke="#000000"
   stroke-width="0.9"
   stroke-linecap="round"
   stroke-linejoin="round"
   stroke-miterlimit="10"
   d="   M174.507,207.769l-6.252-10.772" />&#10;	&#10;		<path
   id="path3520"
   fill="none"
   stroke="#000000"
   stroke-width="0.9"
   stroke-linecap="round"
   stroke-linejoin="round"
   stroke-miterlimit="10"
   d="   M168.316,197.059l-10.4,5.942" />&#10;	&#10;		<path
   id="path3518"
   fill="none"
   stroke="#000000"
   stroke-width="0.9"
   stroke-linecap="round"
   stroke-linejoin="round"
   stroke-miterlimit="10"
   d="   M130.614,189.692v2.291" />&#10;	&#10;		<path
   id="path3516"
   fill="none"
   stroke="#000000"
   stroke-width="0.9"
   stroke-linecap="round"
   stroke-linejoin="round"
   stroke-miterlimit="10"
   d="   M157.978,203.002l-9.039-5.2" />&#10;	&#10;		<path
   id="path3514"
   fill="none"
   stroke="#000000"
   stroke-width="0.9"
   stroke-linecap="round"
   stroke-linejoin="round"
   stroke-miterlimit="10"
   d="   M131.11,187.525l-8.977-5.262" />&#10;	&#10;		<path
   id="path3512"
   fill="none"
   stroke="#000000"
   stroke-width="0.9"
   stroke-linecap="round"
   stroke-linejoin="round"
   stroke-miterlimit="10"
   d="   M122.194,182.325v7.182" />&#10;	&#10;		<path
   id="path3510"
   fill="none"
   stroke="#000000"
   stroke-width="0.9"
   stroke-linecap="round"
   stroke-linejoin="round"
   stroke-miterlimit="10"
   d="   M122.194,189.507l21.049,54.354" />&#10;	&#10;		<path
   id="path3508"
   fill="none"
   stroke="#000000"
   stroke-width="0.9"
   stroke-linecap="round"
   stroke-linejoin="round"
   stroke-miterlimit="10"
   d="   M132.534,176.382l-10.401,5.943" />&#10;	&#10;		<path
   id="path3506"
   fill="none"
   stroke="#000000"
   stroke-width="0.9"
   stroke-linecap="round"
   stroke-linejoin="round"
   stroke-miterlimit="10"
   d="   M111.609,164.309l-10.401,6.005" />&#10;	&#10;		<path
   id="path3504"
   fill="none"
   stroke="#000000"
   stroke-width="0.9"
   stroke-linecap="round"
   stroke-linejoin="round"
   stroke-miterlimit="10"
   d="   M101.27,253.89v-83.638" />&#10;	&#10;		<path
   id="path3502"
   fill="none"
   stroke="#000000"
   stroke-width="0.9"
   stroke-linecap="round"
   stroke-linejoin="round"
   stroke-miterlimit="10"
   d="   M101.27,170.315l10.339,5.943" />&#10;	&#10;		<path
   id="path3500"
   fill="none"
   stroke="#000000"
   stroke-width="0.9"
   stroke-linecap="round"
   stroke-linejoin="round"
   stroke-miterlimit="10"
   d="   M121.947,170.315l-10.4,5.943" />&#10;	&#10;		<path
   id="path3498"
   fill="none"
   stroke="#000000"
   stroke-width="0.9"
   stroke-linecap="round"
   stroke-linejoin="round"
   stroke-miterlimit="10"
   d="   M139.405,233.956l-6.748,3.838" />&#10;	&#10;		<path
   id="path3496"
   fill="none"
   stroke="#000000"
   stroke-width="0.9"
   stroke-linecap="round"
   stroke-linejoin="round"
   stroke-miterlimit="10"
   d="   M121.947,177.434l-10.4,6.005" />&#10;	&#10;		<path
   id="path3494"
   fill="none"
   stroke="#000000"
   stroke-width="0.9"
   stroke-linecap="round"
   stroke-linejoin="round"
   stroke-miterlimit="10"
   d="   M132.719,237.795l-21.172-12.258" />&#10;	&#10;		<path
   id="path3492"
   fill="none"
   stroke="#000000"
   stroke-width="0.9"
   stroke-linecap="round"
   stroke-linejoin="round"
   stroke-miterlimit="10"
   d="   M111.609,183.44l21.11,54.355" />&#10;	&#10;		<path
   id="path3490"
   fill="none"
   stroke="#000000"
   stroke-width="0.9"
   stroke-linecap="round"
   stroke-linejoin="round"
   stroke-miterlimit="10"
   d="   M111.609,176.258v7.182" />&#10;	&#10;		<path
   id="path3488"
   fill="none"
   stroke="#000000"
   stroke-width="0.9"
   stroke-linecap="round"
   stroke-linejoin="round"
   stroke-miterlimit="10"
   d="   M121.947,231.604v22.287" />&#10;	&#10;		<path
   id="path3486"
   fill="none"
   stroke="#000000"
   stroke-width="0.9"
   stroke-linecap="round"
   stroke-linejoin="round"
   stroke-miterlimit="10"
   d="   M111.609,259.834l10.338-6.006" />&#10;	&#10;		<path
   id="path3484"
   fill="none"
   stroke="#000000"
   stroke-width="0.9"
   stroke-linecap="round"
   stroke-linejoin="round"
   stroke-miterlimit="10"
   d="   M111.609,164.309l10.338,6.005" />&#10;	&#10;		<path
   id="path3482"
   fill="none"
   stroke="#000000"
   stroke-width="0.9"
   stroke-linecap="round"
   stroke-linejoin="round"
   stroke-miterlimit="10"
   d="   M101.27,253.89l10.339,5.943" />&#10;	&#10;		<path
   id="path3480"
   fill="none"
   stroke="#000000"
   stroke-width="0.9"
   stroke-linecap="round"
   stroke-linejoin="round"
   stroke-miterlimit="10"
   d="   M111.609,225.598v34.235" />&#10;	&#10;		<path
   id="path3478"
   fill="none"
   stroke="#000000"
   stroke-width="0.9"
   stroke-linecap="round"
   stroke-linejoin="round"
   stroke-miterlimit="10"
   d="   M121.947,170.315v7.12" />&#10;	&#10;		<path
   id="path3476"
   fill="none"
   stroke="#000000"
   stroke-width="0.9"
   stroke-linecap="round"
   stroke-linejoin="round"
   stroke-miterlimit="10"
   d="   M121.947,177.434l1.609,4.148" />&#10;	&#10;		<path
   id="path3474"
   fill="none"
   stroke="#000000"
   stroke-width="0.9"
   stroke-linecap="round"
   stroke-linejoin="round"
   stroke-miterlimit="10"
   d="   M121.947,253.89l-10.4,5.943" />&#10;	&#10;		<path
   id="path2432"
   fill="none"
   stroke="#000000"
   stroke-width="0.9"
   stroke-linecap="round"
   stroke-linejoin="round"
   stroke-miterlimit="10"
   d="   M111.609,259.834v55.781" />&#10;	&#10;		<path
   id="path2416"
   sodipodi:nodetypes="ccccs"
   fill="none"
   stroke="#000000"
   stroke-width="0.9"
   stroke-linecap="round"
   stroke-linejoin="round"
   stroke-miterlimit="10"
   d="   M174.482,224.931c24.042,6.731,47.197,20.753,48.251,44.127 M53.043,269.058c-0.015-14.764,11.399-26.509,23.277-33.678   c7.469-4.565,15.978-8.022,24.861-10.483" />&#10;	&#10;		<path
   id="path2434"
   fill="none"
   stroke="#000000"
   stroke-width="1.8"
   stroke-linecap="round"
   stroke-linejoin="round"
   stroke-miterlimit="10"
   d="   M111.609,315.615v3.9" />&#10;	&#10;		<path
   id="path2440"
   sodipodi:nodetypes="ccccc"
   fill="none"
   stroke="#000000"
   stroke-width="0.9"
   stroke-linecap="round"
   stroke-linejoin="round"
   stroke-miterlimit="10"
   d="   M164.168,290.17l-10.4-6.006 M153.83,284.226v32.936" />&#10;	&#10;		<path
   id="path2444"
   fill="none"
   stroke="#000000"
   stroke-width="0.9"
   stroke-linecap="round"
   stroke-linejoin="round"
   stroke-miterlimit="10"
   d="   M164.168,290.17l10.339-6.006" />&#10;	&#10;		<path
   id="path2448"
   fill="none"
   stroke="#000000"
   stroke-width="0.9"
   stroke-linecap="round"
   stroke-linejoin="round"
   stroke-miterlimit="10"
   d="   M164.168,313.572v-23.465" />&#10;	&#10;		<path
   id="path2452"
   sodipodi:nodetypes="ccc"
   fill="none"
   stroke="#000000"
   stroke-width="0.9"
   stroke-linecap="round"
   stroke-linejoin="round"
   stroke-miterlimit="10"
   d="   M101.27,253.89l10.339,5.943" />&#10;	&#10;		<path
   id="path2456"
   fill="none"
   stroke="#000000"
   stroke-width="0.9"
   stroke-linecap="round"
   stroke-linejoin="round"
   stroke-miterlimit="10"
   d="   M174.507,307.627v-23.463" />&#10;	&#10;		<path
   id="path2482"
   fill="none"
   stroke="#000000"
   stroke-width="0.9"
   stroke-linecap="round"
   stroke-linejoin="round"
   stroke-miterlimit="10"
   d="   M126.095,317.533v-1.609 M126.095,315.984l-4.209-2.475 M126.095,315.984l-2.415,1.363" />&#10;	&#10;		<path
   id="path2484"
   fill="none"
   stroke="#000000"
   stroke-width="1.8"
   stroke-linecap="round"
   stroke-linejoin="round"
   stroke-miterlimit="10"
   d="   M123.742,317.347l-8.048,4.58" />&#10;	&#10;		<path
   id="path2486"
   fill="none"
   stroke="#000000"
   stroke-width="0.9"
   stroke-linecap="round"
   stroke-linejoin="round"
   stroke-miterlimit="10"
   d="   M121.947,313.572l-5.077,2.91" />&#10;	&#10;		<path
   id="path2490"
   fill="none"
   stroke="#000000"
   stroke-width="0.9"
   stroke-linecap="round"
   stroke-linejoin="round"
   stroke-miterlimit="10"
   d="   M100.032,312.89l-2.972-1.795 M97.122,311.156v0.805" />&#10;	&#10;		<path
   id="path2504"
   fill="none"
   stroke="#000000"
   stroke-width="0.9"
   stroke-linecap="round"
   stroke-linejoin="round"
   stroke-miterlimit="10"
   d="   M101.27,308.804l-4.209,2.352 M121.947,253.89v59.682" />&#10;	&#10;		<path
   id="path2506"
   fill="none"
   stroke="#000000"
   stroke-width="1.8"
   stroke-linecap="round"
   stroke-linejoin="round"
   stroke-miterlimit="10"
   d="   M101.27,313.572v-0.434" />&#10;	&#10;		<path
   id="path2508"
   fill="none"
   stroke="#000000"
   stroke-width="0.9"
   stroke-linecap="round"
   stroke-linejoin="round"
   stroke-miterlimit="10"
   d="   M101.27,313.199v-59.371" />&#10;	&#10;		<path
   id="path2420"
   sodipodi:nodetypes="cccs"
   fill="none"
   stroke="#000000"
   stroke-width="0.9"
   stroke-linecap="round"
   stroke-linejoin="round"
   stroke-miterlimit="10"
   d="   M101.377,197.364c-14.423,3.972-27.286,10.432-36.633,19.382 M211.033,216.746c-11.25-10.772-27.592-17.938-45.618-21.498" />&#10;	<path
   id="path2671"
   sodipodi:nodetypes="cc"
   fill-opacity="0"
   stroke="#000000"
   stroke-width="2"
   stroke-linecap="round"
   d="   M111.733,169.417c13.341-6.358,29.601,8.026,33.978,21.888" />&#10;	&#10;		<path
   id="path2673"
   sodipodi:nodetypes="ccccccccccccc"
   fill="#8AE234"
   fill-opacity="0.1453"
   stroke="#000000"
   stroke-width="1.8"
   stroke-linecap="round"
   stroke-linejoin="round"
   stroke-miterlimit="10"
   d="   M64.744,120.974v95.786c-7.963,7.931-11.667,16.45-11.688,24.795l-0.013,27.504c0.241,18.65,17.329,31.85,32.935,38.693   c22.231,9.885,49.315,12.285,73.206,8.666l60.824-35.102c1.742-4.041,2.652-7.844,2.725-12.258l-0.039-27.751   c-0.087-9.094-4.544-17.531-11.661-24.511v-95.854c-0.55-56.479-60.436-91.116-109.701-63.301   C78.801,70.609,64.723,94.976,64.744,120.974z"
   style="fill:none" />&#10;	&#10;		<path
   id="path2428"
   fill="none"
   stroke="#000000"
   stroke-width="0.9"
   stroke-linecap="round"
   stroke-linejoin="round"
   stroke-miterlimit="10"
   d="   M65.239,125.679c0.701,4.345,2.941,8.485,5.51,12.01c4.396,5.873,10.567,10.499,16.962,13.992   c14.867,8.091,33.338,11.521,50.145,11.515c16.876,0.012,35.267-3.416,50.208-11.515c5.554-3.017,10.993-6.985,15.168-11.762   c3.33-3.836,6.554-9.22,7.305-14.301" />&#10;	&#10;		<path
   id="path2632"
   sodipodi:nodetypes="cccccc"
   fill="none"
   stroke="#000000"
   stroke-width="1.8"
   stroke-linecap="round"
   stroke-linejoin="round"
   stroke-miterlimit="10"
   d="   M53.07,241.537c-0.011,10.716,6.097,21.115,17.122,29.564c23.948,17.916,60.137,22.18,88.993,17.893l30.397-17.582l30.427-17.521   c1.881-4.282,2.724-8.498,2.686-12.583" />&#10;	&#10;		<path
   id="path2620"
   fill="none"
   stroke="#000000"
   stroke-width="1.8"
   stroke-linecap="round"
   stroke-linejoin="round"
   stroke-miterlimit="10"
   d="   M220.008,253.89v27.426" />&#10;	&#10;		<path
   id="path2643"
   fill="none"
   stroke="#000000"
   stroke-width="1.8"
   stroke-linecap="round"
   stroke-linejoin="round"
   stroke-miterlimit="10"
   d="   M159.215,316.418v-27.486" />&#10;	&#10;		<path
   id="path2426"
   sodipodi:nodetypes="ccccccc"
   fill="none"
   stroke="#000000"
   stroke-width="1.8"
   stroke-linecap="round"
   stroke-linejoin="round"
   stroke-miterlimit="10"
   d="   M64.744,216.773v24.798c0.056,12.756,9.714,22.674,19.934,28.973c15.506,9.387,35.226,13.244,53.179,13.248   c16.876,0.014,35.267-3.414,50.208-11.514c11.407-6.176,22.893-16.766,22.968-30.708v-24.724" />&#10;	&#10;	&#10;	&#10;	<path
   d="m 195.30265,363.31421 v -13.00235 h 1.72517 v 6.4467 l 6.46485,-6.4467 h 2.32444 l -5.44791,5.26632 5.68399,7.73603 h -2.26996 l -4.61257,-6.57381 -2.14284,2.0702 v 4.50361 h -1.72517 v 0 z m 13.31105,-6.51933 -1.56173,-0.19976 q 0.0363,-0.0908 0.0545,-0.21792 0.0363,-0.14527 0.0908,-0.32687 0.0363,-0.16344 0.10896,-0.34504 0.0908,-0.18159 0.21791,-0.36319 0.1816,-0.30871 0.47215,-0.58111 0.30872,-0.2724 0.74455,-0.52663 0.41768,-0.25424 1.05327,-0.38135 0.65374,-0.12712 1.50725,-0.12712 1.19854,0 1.94309,0.23607 0.76271,0.21792 1.05326,0.67191 0.30872,0.45399 0.47215,0.96247 0.16344,0.50847 0.1816,1.05326 0,0.0363 0,0.0726 0,0.0363 0,0.0726 0,0.0545 0,0.0908 0,0.0363 0,0.0726 0,0.0726 0,0.16344 0,0.0726 0,0.14528 v 2.10652 q 0,0.79903 0,1.38014 0.0182,0.58111 0.0363,0.94431 0.0182,0.36319 0.0908,0.69006 0.0726,0.32688 0.19975,0.59927 0.0182,0.0545 0.0363,0.10896 0.0182,0.0363 0.0363,0.0726 0.0363,0.0545 0.0545,0.0908 0.0363,0.0363 0.0545,0.0545 h -1.67069 q -0.0908,-0.14528 -0.14528,-0.30872 -0.0545,-0.16343 -0.0908,-0.32687 -0.0182,-0.14528 -0.0545,-0.2724 -0.0182,-0.12711 -0.0363,-0.21791 -0.50847,0.43583 -0.98062,0.70823 -0.45399,0.27239 -0.87166,0.39951 -0.43584,0.10896 -0.83535,0.16344 -0.39951,0.0726 -0.78087,0.0726 -0.78087,0 -1.38014,-0.1816 -0.58111,-0.1816 -0.99878,-0.56295 -0.41767,-0.38136 -0.63559,-0.85351 -0.19976,-0.49031 -0.19976,-1.07142 0,-0.58111 0.14528,-1.01694 0.16344,-0.43584 0.49031,-0.72639 0.32688,-0.30872 0.67191,-0.52663 0.3632,-0.21792 0.74455,-0.34504 0.23608,-0.0726 0.45399,-0.12712 0.23608,-0.0545 0.454,-0.0908 0.21791,-0.0363 0.39951,-0.0545 0.19976,-0.0363 0.34503,-0.0545 0.0545,0 0.19976,-0.0182 0.16344,-0.0363 0.41767,-0.0545 0.25424,-0.0363 0.52663,-0.0726 0.2724,-0.0545 0.56296,-0.10896 0.14527,-0.0363 0.29055,-0.0545 0.16344,-0.0363 0.32688,-0.0726 0.14527,-0.0363 0.27239,-0.0726 0.14528,-0.0363 0.2724,-0.0908 0,-0.0363 0,-0.0726 0,-0.0545 0,-0.10896 0,-0.0363 0,-0.0545 0,-0.0182 0,-0.0545 0,-0.0182 0,-0.0363 0,-0.0363 0,-0.0545 0,-0.0182 0,-0.0182 0,-0.0182 0,-0.0363 0,0 0,0 0,-0.0182 0,-0.0363 0,-0.0182 0,-0.0182 0,-0.0182 0,-0.0363 0,0 0,0 0,-0.0182 0,-0.0363 -0.0182,-0.32688 -0.14528,-0.63559 -0.10896,-0.30872 -0.30872,-0.58111 -0.19975,-0.2724 -0.67191,-0.41768 -0.45399,-0.14527 -1.16222,-0.14527 -0.61743,0 -1.0351,0.10895 -0.41767,0.10896 -0.65375,0.30872 -0.23607,0.21792 -0.39951,0.45399 -0.14528,0.21792 -0.23608,0.47215 -0.0182,0.0182 -0.0363,0.0545 0,0.0363 0,0.0545 -0.0182,0.0363 -0.0363,0.0726 0,0.0182 0,0.0545 -0.0182,0.0545 -0.0363,0.10896 0,0.0545 -0.0182,0.10896 v -0.0363 z m 4.73969,2.37892 v -0.58111 q -0.14528,0.0908 -0.32688,0.14527 -0.1816,0.0545 -0.38135,0.10896 -0.21792,0.0545 -0.43583,0.10896 -0.21792,0.0545 -0.43584,0.0908 -0.12712,0.0182 -0.27239,0.0545 -0.12712,0.0182 -0.2724,0.0545 -0.12712,0.0182 -0.27239,0.0363 -0.12712,0.0182 -0.23608,0.0363 -0.0726,0.0182 -0.14528,0.0363 -0.0545,0 -0.12712,0 -0.0726,0.0182 -0.14527,0.0363 -0.0545,0 -0.12712,0.0181 -0.32688,0.0545 -0.61743,0.16344 -0.29056,0.10896 -0.54479,0.25424 -0.2724,0.16344 -0.39952,0.43583 -0.12711,0.2724 -0.12711,0.65375 0,0.0363 0,0.0908 0,0.0363 0,0.0726 0,0.0363 0,0.0726 0.0182,0.0363 0.0363,0.0726 0.0363,0.21792 0.16343,0.41768 0.12712,0.19975 0.34504,0.39951 0.21791,0.1816 0.54479,0.2724 0.34503,0.0908 0.79903,0.0908 0.10895,0 0.25423,-0.0182 0.16344,-0.0182 0.34504,-0.0363 0.19975,-0.0363 0.39951,-0.0908 0.19976,-0.0545 0.41767,-0.14528 0.10896,-0.0363 0.21792,-0.0908 0.10896,-0.0726 0.21791,-0.14528 0.0545,-0.0363 0.10896,-0.0726 0.0545,-0.0545 0.10896,-0.0908 0.0363,-0.0545 0.0908,-0.0908 0.0545,-0.0545 0.10896,-0.10896 0.23607,-0.25424 0.38135,-0.52663 0.14528,-0.2724 0.19976,-0.54479 0.0545,-0.2724 0.0908,-0.56295 0.0363,-0.29056 0.0363,-0.58111 v -0.0363 z m 7.80867,2.70579 0.21791,1.41646 q -0.0182,0.0182 -0.0545,0.0182 -0.0182,0 -0.0545,0 -0.0182,0 -0.0363,0 -0.0182,0 -0.0182,0.0182 -0.0182,0 -0.0363,0 -0.0182,0.0182 -0.0363,0.0182 -0.0726,0.0182 -0.1816,0.0182 -0.10896,0.0182 -0.21792,0.0363 -0.12711,0.0182 -0.27239,0.0182 -0.12712,0.0182 -0.29056,0.0182 -0.83534,0 -1.32565,-0.19976 -0.47216,-0.19976 -0.61743,-0.63559 -0.12712,-0.41767 -0.19976,-0.92614 -0.0726,-0.50848 -0.0726,-1.08959 v -5.44791 h -1.16222 v -1.23486 h 1.16222 v -2.3426 l 1.59805,-0.96246 v 3.30506 h 1.59806 v 1.23486 H 219.564 v 5.50239 q 0,0.30872 0.0182,0.54479 0.0363,0.23608 0.0908,0.43584 0.0545,0.18159 0.23608,0.27239 0.19975,0.0908 0.54479,0.0908 0.0908,0 0.1816,0 0.10895,0 0.19975,-0.0182 0.0908,-0.0182 0.16344,-0.0182 0.0908,-0.0182 0.16344,-0.0363 v -0.0363 z m 1.59805,1.43462 v -13.00235 h 1.59805 v 4.66705 q 0.0545,-0.0363 0.10896,-0.0908 0.0726,-0.0726 0.14528,-0.14528 0.0363,-0.0363 0.0726,-0.0545 0.0363,-0.0363 0.0726,-0.0726 0.0182,-0.0182 0.0545,-0.0545 0.0363,-0.0363 0.0726,-0.0545 0.32688,-0.25423 0.63559,-0.41767 0.32688,-0.16344 0.63559,-0.23607 0.30872,-0.0545 0.56295,-0.0908 0.25424,-0.0363 0.47215,-0.0363 0.0545,0 0.0908,0 0.0545,0 0.10896,0 0.0545,0.0182 0.10896,0.0182 0.0545,0 0.10896,0 0.10896,0.0182 0.21791,0.0363 0.10896,0 0.21792,0.0363 0.29056,0.0545 0.56295,0.16343 0.29056,0.10896 0.56295,0.25424 0.2724,0.14528 0.47215,0.36319 0.21792,0.19976 0.3632,0.454 0.0363,0.0726 0.0545,0.14527 0.0363,0.0545 0.0726,0.10896 0.0182,0.0726 0.0363,0.14528 0.0363,0.0545 0.0545,0.12712 0.0182,0.0726 0.0363,0.14527 0.0182,0.0545 0.0363,0.10896 0.0182,0.0726 0.0182,0.14528 0.0182,0.0545 0.0363,0.12712 0.0182,0.0726 0.0182,0.16344 0.0182,0.0908 0.0363,0.16343 0,0.0908 0,0.1816 0.0182,0.0726 0.0182,0.16344 0,0.0726 0,0.16343 0,0.0726 0.0182,0.16344 0,0.0726 0,0.14528 0,0.0726 0,0.14528 v 5.92006 h -1.59805 v -5.93822 q 0,-0.0182 0,-0.0545 0,-0.0545 0,-0.10896 -0.0182,-0.0545 -0.0182,-0.10896 0,-0.0726 0,-0.14528 -0.0182,-0.14527 -0.0545,-0.29055 -0.0182,-0.16344 -0.0545,-0.32688 -0.0726,-0.23607 -0.23608,-0.45399 -0.14527,-0.21791 -0.34503,-0.39951 -0.19976,-0.19976 -0.52663,-0.29056 -0.30872,-0.0908 -0.74455,-0.0908 -0.34503,0 -0.65375,0.0908 -0.30871,0.0726 -0.61743,0.23608 -0.29055,0.16344 -0.50847,0.36319 -0.21792,0.19976 -0.34504,0.43584 -0.0181,0.0545 -0.0545,0.10895 -0.0182,0.0545 -0.0545,0.10896 -0.0182,0.0545 -0.0363,0.10896 -0.0182,0.0363 -0.0363,0.0726 -0.0726,0.21792 -0.12712,0.41767 -0.0363,0.19976 -0.0545,0.39952 -0.0182,0.19975 -0.0182,0.39951 0,0.1816 0,0.36319 v 5.10288 h -1.59805 v 0 z m 9.51568,-4.70336 q 0,-0.16344 0,-0.34504 0.0182,-0.19975 0.0363,-0.41767 0.0182,-0.21792 0.0545,-0.43583 0.0363,-0.21792 0.0908,-0.454 0.0363,-0.10895 0.0545,-0.21791 0.0363,-0.10896 0.0726,-0.21792 0.0363,-0.0908 0.0726,-0.19976 0.0363,-0.10895 0.0908,-0.21791 0.0908,-0.21792 0.21792,-0.41768 0.12711,-0.21791 0.27239,-0.39951 0.25424,-0.32687 0.56295,-0.58111 0.30872,-0.25423 0.65375,-0.43583 0.3632,-0.1816 0.72639,-0.29056 0.38135,-0.12711 0.76271,-0.19975 0.0908,0 0.18159,0 0.0908,-0.0182 0.1816,-0.0363 0.0545,0 0.0908,0 0.0545,0 0.10896,-0.0182 0.0363,0 0.0726,0 0.0545,0 0.10895,0 0.0545,0 0.10896,0 0.0545,0 0.12712,0 0.0545,0.0182 0.10896,0.0182 0.0726,0 0.12712,0 0.10895,0.0182 0.23607,0.0363 0.12712,0 0.25424,0.0363 0.63559,0.12711 1.2167,0.47215 0.59927,0.32687 1.14406,0.87166 0.54479,0.54479 0.81719,1.38014 0.27239,0.83535 0.27239,1.96125 0,0.67191 -0.0726,1.19854 -0.0545,0.50847 -0.18159,0.88982 -0.12712,0.38136 -0.25424,0.67191 -0.12712,0.29056 -0.2724,0.49031 -0.0182,0.0182 -0.0363,0.0363 0,0 0,0.0182 -0.0182,0.0182 -0.0363,0.0363 0,0 -0.0182,0.0182 -0.0182,0.0182 -0.0363,0.0545 -0.0182,0.0182 -0.0363,0.0545 -0.29056,0.34504 -0.63559,0.61743 -0.32688,0.2724 -0.70823,0.47215 -0.39951,0.1816 -0.79903,0.2724 -0.38135,0.10896 -0.78086,0.16344 -0.0363,0 -0.0726,0 -0.0363,0 -0.0726,0.0182 -0.0363,0 -0.0726,0 -0.0363,0 -0.0726,0 -0.0363,0 -0.0726,0 -0.0363,0 -0.0545,0.0182 -0.0363,0 -0.0726,0 -0.0182,0 -0.0545,0 -0.0363,0 -0.0908,0 -0.0363,0 -0.0726,0 -0.0363,-0.0182 -0.0908,-0.0182 -0.0363,0 -0.0726,0 -0.0363,0 -0.0726,0 -0.0363,0 -0.0726,0 -0.0545,-0.0182 -0.0908,-0.0182 -0.0363,0 -0.0726,0 -0.39951,-0.0545 -0.79902,-0.16344 -0.39952,-0.10896 -0.78087,-0.29056 -0.38135,-0.19975 -0.70823,-0.45399 -0.30871,-0.27239 -0.56295,-0.61743 -0.10896,-0.12712 -0.19975,-0.25423 -0.0726,-0.14528 -0.14528,-0.2724 -0.0363,-0.0726 -0.0726,-0.14528 -0.0182,-0.0726 -0.0545,-0.14528 -0.0182,-0.0545 -0.0545,-0.12711 -0.0182,-0.0726 -0.0545,-0.14528 -0.12712,-0.32688 -0.19976,-0.63559 -0.0545,-0.32687 -0.0908,-0.61743 -0.0182,-0.30872 -0.0363,-0.54479 -0.0182,-0.25424 -0.0182,-0.43583 v -0.0363 z m 1.63437,0 q 0,0.79902 0.12712,1.39829 0.12712,0.58111 0.38135,0.96247 0.25424,0.38135 0.54479,0.65375 0.29056,0.25423 0.61743,0.39951 0.14528,0.0726 0.29056,0.10896 0.14528,0.0363 0.29055,0.0726 0.14528,0.0182 0.2724,0.0363 0.12712,0.0182 0.25423,0.0182 0.63559,0 1.10775,-0.1816 0.49031,-0.19976 0.78086,-0.59927 0.30872,-0.39951 0.49032,-0.83535 0.19975,-0.43583 0.29055,-0.88982 0.0363,-0.14528 0.0363,-0.29056 0.0182,-0.16343 0.0363,-0.30871 0,-0.0726 0,-0.14528 0.0182,-0.0726 0.0182,-0.14528 0.0182,-0.0545 0.0182,-0.12712 0,-0.0726 0,-0.14527 0,-0.94431 -0.21792,-1.61622 -0.21791,-0.69007 -0.63559,-1.10774 -0.43583,-0.41767 -0.92614,-0.61743 -0.47215,-0.21791 -0.99879,-0.21791 -0.12711,0 -0.25423,0.0182 -0.10896,0 -0.25424,0.0363 -0.12712,0.0182 -0.27239,0.0726 -0.12712,0.0363 -0.2724,0.0908 -0.32687,0.12712 -0.63559,0.39952 -0.29055,0.25423 -0.56295,0.63558 -0.27239,0.38136 -0.39951,0.98063 -0.12712,0.58111 -0.12712,1.38014 v -0.0363 z m 15.16335,4.70336 v -1.19854 h -0.0363 q -0.10896,0.19976 -0.23608,0.36319 -0.10896,0.16344 -0.23607,0.29056 -0.0726,0.0545 -0.14528,0.10896 -0.0545,0.0545 -0.10896,0.10895 -0.0726,0.0545 -0.14528,0.10896 -0.0545,0.0363 -0.12712,0.0726 -0.25423,0.12712 -0.50847,0.19976 -0.23607,0.0908 -0.47215,0.10896 -0.23608,0.0363 -0.38135,0.0363 -0.14528,0.0182 -0.23608,0.0182 -0.83535,0 -1.56173,-0.30872 -0.70823,-0.32687 -1.3075,-0.99878 -0.59927,-0.65375 -0.88983,-1.54358 -0.29055,-0.90798 -0.29055,-2.03388 0,-1.14407 0.27239,-2.05205 0.2724,-0.90799 0.83535,-1.56173 0.54479,-0.65375 1.25302,-0.98063 0.72639,-0.32687 1.61621,-0.32687 0.43583,0 0.81719,0.0908 0.39951,0.0908 0.72639,0.27239 0.32687,0.1816 0.58111,0.41767 0.25423,0.23608 0.43583,0.50848 l 0.0363,-0.0363 v -4.66705 h 1.59805 v 13.00235 h -1.48909 v 0 z m -5.0484,-4.70336 q 0,0.79902 0.12712,1.39829 0.12712,0.58111 0.36319,0.96247 0.25424,0.38135 0.52663,0.65375 0.29056,0.25423 0.58111,0.39951 0.12712,0.0726 0.25424,0.10896 0.12712,0.0363 0.25424,0.0726 0.12711,0.0182 0.23607,0.0363 0.12712,0.0182 0.23608,0.0182 0.0908,0 0.19975,-0.0182 0.12712,-0.0182 0.29056,-0.0363 0.16344,-0.0363 0.34503,-0.10896 0.1816,-0.0726 0.3632,-0.1816 0.25423,-0.14528 0.47215,-0.39951 0.21792,-0.2724 0.41767,-0.61743 0.19976,-0.3632 0.30872,-0.88983 0.10896,-0.52663 0.10896,-1.2167 0,-0.0363 0,-0.0545 0,-0.0363 0,-0.0545 0,-0.0363 0,-0.0726 0,-0.0363 0,-0.0726 -0.0182,-0.65375 -0.1816,-1.25302 -0.16344,-0.59927 -0.43583,-1.14406 -0.29056,-0.54479 -0.78087,-0.81719 -0.49031,-0.29055 -1.18038,-0.29055 -0.50847,0 -0.90799,0.14527 -0.38135,0.14528 -0.63559,0.454 -0.25423,0.29055 -0.43583,0.61743 -0.1816,0.30871 -0.29055,0.65374 -0.0726,0.2724 -0.12712,0.52664 -0.0545,0.25423 -0.0726,0.50847 -0.0182,0.23607 -0.0363,0.41767 0,0.1816 0,0.29056 v -0.0363 z m 15.50838,1.67069 1.63437,0.19976 q -0.18159,0.69006 -0.52663,1.25302 -0.32687,0.54479 -0.83534,0.96246 -0.50847,0.43583 -1.19854,0.63559 -0.69007,0.19976 -1.56174,0.19976 -1.10774,0 -1.94309,-0.30872 -0.83534,-0.32687 -1.41645,-0.99878 -0.56295,-0.65375 -0.85351,-1.52542 -0.29055,-0.88982 -0.29055,-1.97941 0,-1.07142 0.27239,-1.96124 0.29056,-0.90799 0.85351,-1.61622 0.56295,-0.70822 1.38014,-1.05326 0.81718,-0.36319 1.87044,-0.36319 0.12712,0 0.25424,0.0182 0.14528,0 0.2724,0.0182 0.14527,0.0182 0.27239,0.0363 0.14528,0 0.2724,0.0363 0.59927,0.12711 1.16222,0.49031 0.56295,0.34503 1.07142,0.88982 0.50847,0.56295 0.74455,1.45278 0.25423,0.88982 0.25423,2.12468 0,0.0182 0,0.0363 0,0.0182 0,0.0363 0,0.0182 0,0.0363 0,0 0,0.0182 0,0.0182 0,0.0363 0,0.0182 0,0.0363 0,0.0182 0,0.0363 0,0 0,0.0182 l -7.04596,-0.0363 q 0.0363,0.87167 0.2724,1.4891 0.23607,0.61743 0.6719,0.99878 0.43584,0.38135 0.90799,0.58111 0.49031,0.1816 1.01694,0.1816 0.41768,0 0.74455,-0.0726 0.34503,-0.0908 0.58111,-0.25424 0.25424,-0.16344 0.43583,-0.34503 0.19976,-0.19976 0.32688,-0.39952 0.0726,-0.12711 0.12712,-0.23607 0.0545,-0.12712 0.10895,-0.23608 0.0545,-0.10896 0.0908,-0.21791 0.0545,-0.10896 0.0726,-0.1816 v -0.0363 z m -5.26631,-2.57868 h 5.32079 q -0.0182,-0.29055 -0.0726,-0.56295 -0.0545,-0.27239 -0.14528,-0.50847 -0.0908,-0.25424 -0.23607,-0.45399 -0.12712,-0.19976 -0.29056,-0.38136 -0.16343,-0.16343 -0.36319,-0.29055 -0.19976,-0.14528 -0.45399,-0.25424 -0.25424,-0.10896 -0.52664,-0.16344 -0.27239,-0.0545 -0.56295,-0.0545 -0.56295,0 -1.01694,0.18159 -0.45399,0.16344 -0.76271,0.50847 -0.32687,0.34504 -0.52663,0.70823 -0.19975,0.3632 -0.29055,0.78087 -0.0182,0.0726 -0.0363,0.14528 -0.0182,0.0726 -0.0182,0.12712 -0.0182,0.0726 -0.0182,0.14527 0,0.0545 0,0.10896 v -0.0363 z"
   id="text5"
   style="font-size:18.1597px;line-height:0%;font-family:ArialMT"
   aria-label="Kathode" />&#10;	<path
   d="m 27.270195,363.31421 4.993918,-13.00235 h 1.852289 l 5.302633,13.00235 h -1.943088 l -1.525415,-3.95882 h -5.42975 l -1.434617,3.95882 h -1.81597 v 0 z m 5.175515,-9.15249 -1.434617,3.8317 h 4.412808 l -1.361978,-3.61378 q -0.01816,0 -0.03632,-0.0182 0,-0.0363 0,-0.0545 -0.01816,-0.0363 -0.03632,-0.0545 0,-0.0363 -0.01816,-0.0545 -0.01816,-0.0363 -0.03632,-0.0545 0,-0.0363 0,-0.0726 -0.01816,-0.0182 -0.03632,-0.0545 0,-0.0363 0,-0.0545 -0.108958,-0.25423 -0.199757,-0.50847 -0.0908,-0.27239 -0.181597,-0.54479 -0.0908,-0.27239 -0.181597,-0.56295 -0.07264,-0.30871 -0.163437,-0.63559 l -0.03632,-0.0363 q -0.07264,0.34504 -0.145277,0.67191 -0.05448,0.30871 -0.145278,0.61743 -0.07264,0.30871 -0.181597,0.61743 -0.108958,0.30871 -0.217916,0.61743 v -0.0363 z m 8.190021,9.15249 v -9.40673 h 1.434616 v 1.32566 h 0.03632 q 0.145277,-0.18159 0.272395,-0.34503 0.145278,-0.16344 0.308715,-0.29056 0.145278,-0.14527 0.290555,-0.25423 0.163438,-0.10896 0.326875,-0.19976 0.254236,-0.14528 0.490312,-0.21792 0.254236,-0.0908 0.490312,-0.12711 0.254235,-0.0363 0.435832,-0.0545 0.199757,-0.0182 0.345035,-0.0182 0.108958,0 0.217916,0.0182 0.108958,0 0.217917,0.0182 0.108958,0.0182 0.217916,0.0363 0.127118,0 0.254236,0.0363 0.290555,0.0726 0.562951,0.18159 0.272395,0.10896 0.526631,0.25424 0.254236,0.14528 0.453992,0.36319 0.217917,0.19976 0.363194,0.47215 0.01816,0.0363 0.03632,0.0726 0.01816,0.0363 0.03632,0.0726 0,0.0363 0.01816,0.0726 0.01816,0.0363 0.03632,0.0726 0.03632,0.0726 0.05448,0.14528 0.03632,0.0726 0.05448,0.12712 0.03632,0.10895 0.05448,0.21791 0.03632,0.10896 0.05448,0.21792 0.01816,0.12712 0.03632,0.23607 0.01816,0.10896 0.01816,0.21792 0,0.10896 0,0.23608 0,0.10895 0.01816,0.23607 0,0.12712 0,0.25424 0,0.12712 0,0.27239 v 5.75663 h -1.598053 v -5.72031 q 0,-0.0363 0,-0.0908 0,-0.0545 0,-0.10895 -0.01816,-0.0545 -0.01816,-0.10896 0,-0.0726 0,-0.14528 0,-0.14528 -0.01816,-0.27239 0,-0.14528 -0.03632,-0.29056 -0.07264,-0.2724 -0.199757,-0.50847 -0.127118,-0.25424 -0.326874,-0.49031 -0.199757,-0.23608 -0.544791,-0.34504 -0.345035,-0.12712 -0.817187,-0.12712 -0.01816,0 -0.03632,0 0,0 0,0 -0.01816,0 -0.03632,0 0,0 -0.01816,0 -0.326875,0.0182 -0.63559,0.10896 -0.308715,0.0726 -0.61743,0.23608 -0.290555,0.16344 -0.508471,0.38135 -0.199757,0.19976 -0.326875,0.45399 -0.01816,0.0182 -0.03632,0.0363 0,0.0182 0,0.0182 -0.01816,0.0182 -0.01816,0.0363 0,0.0182 0,0.0363 0,0.0182 -0.01816,0.0363 0,0.0182 0,0.0182 -0.01816,0.0182 -0.03632,0.0363 0,0.0182 0,0.0363 -0.07264,0.21792 -0.127118,0.43583 -0.03632,0.21792 -0.05448,0.43584 -0.01816,0.21791 -0.03632,0.41767 0,0.19976 0,0.38135 v 5.10288 h -1.598054 v 0 z m 9.497518,-4.70336 q 0,-0.16344 0,-0.34504 0.01816,-0.19975 0.03632,-0.41767 0.01816,-0.21792 0.05448,-0.43583 0.03632,-0.21792 0.0908,-0.454 0.03632,-0.10895 0.05448,-0.21791 0.03632,-0.10896 0.07264,-0.21792 0.03632,-0.0908 0.07264,-0.19976 0.03632,-0.10895 0.0908,-0.21791 0.0908,-0.21792 0.217917,-0.41768 0.127118,-0.21791 0.272395,-0.39951 0.254236,-0.32687 0.562951,-0.58111 0.308715,-0.25423 0.653749,-0.43583 0.363194,-0.1816 0.726388,-0.29056 0.381354,-0.12711 0.762708,-0.19975 0.0908,0 0.181597,0 0.0908,-0.0182 0.181597,-0.0363 0.05448,0 0.0908,0 0.05448,0 0.108958,-0.0182 0.03632,0 0.07264,0 0.05448,0 0.108958,0 0.05448,0 0.108959,0 0.05448,0 0.127117,0 0.05448,0.0182 0.108959,0.0182 0.07264,0 0.127118,0 0.108958,0.0182 0.236076,0.0363 0.127118,0 0.254236,0.0363 0.635589,0.12711 1.216699,0.47215 0.599271,0.32687 1.144062,0.87166 0.544791,0.54479 0.817186,1.38014 0.272396,0.83535 0.272396,1.96125 0,0.67191 -0.07264,1.19854 -0.05448,0.50847 -0.181597,0.88982 -0.127118,0.38136 -0.254236,0.67191 -0.127118,0.29056 -0.272396,0.49031 -0.01816,0.0182 -0.03632,0.0363 0,0 0,0.0182 -0.01816,0.0182 -0.03632,0.0363 0,0 -0.01816,0.0182 -0.01816,0.0182 -0.03632,0.0545 -0.01816,0.0182 -0.03632,0.0545 -0.290555,0.34504 -0.635589,0.61743 -0.326875,0.2724 -0.708229,0.47215 -0.399513,0.1816 -0.799026,0.2724 -0.381354,0.10896 -0.780868,0.16344 -0.03632,0 -0.07264,0 -0.03632,0 -0.07264,0.0182 -0.03632,0 -0.07264,0 -0.03632,0 -0.07264,0 -0.03632,0 -0.07264,0 -0.03632,0 -0.05448,0.0182 -0.03632,0 -0.07264,0 -0.01816,0 -0.05448,0 -0.03632,0 -0.0908,0 -0.03632,0 -0.07264,0 -0.03632,-0.0182 -0.0908,-0.0182 -0.03632,0 -0.07264,0 -0.03632,0 -0.07264,0 -0.03632,0 -0.07264,0 -0.05448,-0.0182 -0.0908,-0.0182 -0.03632,0 -0.07264,0 -0.399514,-0.0545 -0.799027,-0.16344 -0.399513,-0.10896 -0.780867,-0.29056 -0.381354,-0.19975 -0.708228,-0.45399 -0.308715,-0.27239 -0.562951,-0.61743 -0.108958,-0.12712 -0.199757,-0.25423 -0.07264,-0.14528 -0.145277,-0.2724 -0.03632,-0.0726 -0.07264,-0.14528 -0.01816,-0.0726 -0.05448,-0.14528 -0.01816,-0.0545 -0.05448,-0.12711 -0.01816,-0.0726 -0.05448,-0.14528 -0.127118,-0.32688 -0.199757,-0.63559 -0.05448,-0.32687 -0.0908,-0.61743 -0.01816,-0.30872 -0.03632,-0.54479 -0.01816,-0.25424 -0.01816,-0.43583 v -0.0363 z m 1.634373,0 q 0,0.79902 0.127118,1.39829 0.127118,0.58111 0.381354,0.96247 0.254236,0.38135 0.544791,0.65375 0.290555,0.25423 0.61743,0.39951 0.145277,0.0726 0.290555,0.10896 0.145277,0.0363 0.290555,0.0726 0.145278,0.0182 0.272396,0.0363 0.127117,0.0182 0.254235,0.0182 0.63559,0 1.107742,-0.1816 0.490312,-0.19976 0.780867,-0.59927 0.308715,-0.39951 0.490312,-0.83535 0.199757,-0.43583 0.290555,-0.88982 0.03632,-0.14528 0.03632,-0.29056 0.01816,-0.16343 0.03632,-0.30871 0,-0.0726 0,-0.14528 0.01816,-0.0726 0.01816,-0.14528 0.01816,-0.0545 0.01816,-0.12712 0,-0.0726 0,-0.14527 0,-0.94431 -0.217917,-1.61622 -0.217916,-0.69007 -0.635589,-1.10774 -0.435833,-0.41767 -0.926145,-0.61743 -0.472152,-0.21791 -0.998784,-0.21791 -0.127118,0 -0.254235,0.0182 -0.108959,0 -0.254236,0.0363 -0.127118,0.0182 -0.272396,0.0726 -0.127118,0.0363 -0.272395,0.0908 -0.326875,0.12712 -0.63559,0.39952 -0.290555,0.25423 -0.56295,0.63558 -0.272396,0.38136 -0.399514,0.98063 -0.127118,0.58111 -0.127118,1.38014 v -0.0363 z m 15.163347,4.70336 v -1.19854 h -0.03632 q -0.108959,0.19976 -0.236077,0.36319 -0.108958,0.16344 -0.236076,0.29056 -0.07264,0.0545 -0.145277,0.10896 -0.05448,0.0545 -0.108958,0.10895 -0.07264,0.0545 -0.145278,0.10896 -0.05448,0.0363 -0.127118,0.0726 -0.254236,0.12712 -0.508472,0.19976 -0.236076,0.0908 -0.472152,0.10896 -0.236076,0.0363 -0.381353,0.0363 -0.145278,0.0182 -0.236077,0.0182 -0.835346,0 -1.561734,-0.30872 -0.708228,-0.32687 -1.307498,-0.99878 -0.59927,-0.65375 -0.889826,-1.54358 -0.290555,-0.90798 -0.290555,-2.03388 0,-1.14407 0.272396,-2.05205 0.272395,-0.90799 0.835346,-1.56173 0.544791,-0.65375 1.253019,-0.98063 0.726388,-0.32687 1.616214,-0.32687 0.435832,0 0.817186,0.0908 0.399514,0.0908 0.726388,0.27239 0.326875,0.1816 0.581111,0.41767 0.254235,0.23608 0.435832,0.50848 l 0.03632,-0.0363 v -4.66705 h 1.598053 v 13.00235 h -1.489095 v 0 z m -5.048397,-4.70336 q 0,0.79902 0.127118,1.39829 0.127118,0.58111 0.363194,0.96247 0.254236,0.38135 0.526631,0.65375 0.290556,0.25423 0.581111,0.39951 0.127118,0.0726 0.254236,0.10896 0.127118,0.0363 0.254235,0.0726 0.127118,0.0182 0.236077,0.0363 0.127118,0.0182 0.236076,0.0182 0.0908,0 0.199756,-0.0182 0.127118,-0.0182 0.290556,-0.0363 0.163437,-0.0363 0.345034,-0.10896 0.181597,-0.0726 0.363194,-0.1816 0.254236,-0.14528 0.472152,-0.39951 0.217917,-0.2724 0.417673,-0.61743 0.199757,-0.3632 0.308715,-0.88983 0.108958,-0.52663 0.108958,-1.2167 0,-0.0363 0,-0.0545 0,-0.0363 0,-0.0545 0,-0.0363 0,-0.0726 0,-0.0363 0,-0.0726 -0.01816,-0.65375 -0.181597,-1.25302 -0.163437,-0.59927 -0.435832,-1.14406 -0.290556,-0.54479 -0.780868,-0.81719 -0.490311,-0.29055 -1.18038,-0.29055 -0.508472,0 -0.907985,0.14527 -0.381354,0.14528 -0.63559,0.454 -0.254235,0.29055 -0.435832,0.61743 -0.181597,0.30871 -0.290556,0.65374 -0.07264,0.2724 -0.127118,0.52664 -0.05448,0.25423 -0.07264,0.50847 -0.01816,0.23607 -0.03632,0.41767 0,0.1816 0,0.29056 v -0.0363 z m 15.508381,1.67069 1.634373,0.19976 q -0.181597,0.69006 -0.526631,1.25302 -0.326875,0.54479 -0.835346,0.96246 -0.508472,0.43583 -1.19854,0.63559 -0.690069,0.19976 -1.561735,0.19976 -1.107741,0 -1.943088,-0.30872 -0.835346,-0.32687 -1.416456,-0.99878 -0.562951,-0.65375 -0.853506,-1.52542 -0.290555,-0.88982 -0.290555,-1.97941 0,-1.07142 0.272395,-1.96124 0.290555,-0.90799 0.853506,-1.61622 0.562951,-0.70822 1.380137,-1.05326 0.817187,-0.36319 1.870449,-0.36319 0.127118,0 0.254236,0.0182 0.145278,0 0.272396,0.0182 0.145277,0.0182 0.272395,0.0363 0.145278,0 0.272396,0.0363 0.59927,0.12711 1.162221,0.49031 0.56295,0.34503 1.071422,0.88982 0.508472,0.56295 0.744548,1.45278 0.254235,0.88982 0.254235,2.12468 0,0.0182 0,0.0363 0,0.0182 0,0.0363 0,0.0182 0,0.0363 0,0 0,0.0182 0,0.0182 0,0.0363 0,0.0182 0,0.0363 0,0.0182 0,0.0363 0,0 0,0.0182 l -7.045963,-0.0363 q 0.03632,0.87167 0.272395,1.4891 0.236076,0.61743 0.671909,0.99878 0.435833,0.38135 0.907985,0.58111 0.490312,0.1816 1.016943,0.1816 0.417673,0 0.744548,-0.0726 0.345034,-0.0908 0.58111,-0.25424 0.254236,-0.16344 0.435833,-0.34503 0.199757,-0.19976 0.326875,-0.39952 0.07264,-0.12711 0.127118,-0.23607 0.05448,-0.12712 0.108958,-0.23608 0.05448,-0.10896 0.0908,-0.21791 0.05448,-0.10896 0.07264,-0.1816 v -0.0363 z m -5.266313,-2.57868 h 5.320792 q -0.01816,-0.29055 -0.07264,-0.56295 -0.05448,-0.27239 -0.145278,-0.50847 -0.0908,-0.25424 -0.236076,-0.45399 -0.127118,-0.19976 -0.290555,-0.38136 -0.163438,-0.16343 -0.363194,-0.29055 -0.199757,-0.14528 -0.453993,-0.25424 -0.254236,-0.10896 -0.526631,-0.16344 -0.272396,-0.0545 -0.562951,-0.0545 -0.562951,0 -1.016943,0.18159 -0.453993,0.16344 -0.762708,0.50847 -0.326874,0.34504 -0.526631,0.70823 -0.199757,0.3632 -0.290555,0.78087 -0.01816,0.0726 -0.03632,0.14528 -0.01816,0.0726 -0.01816,0.12712 -0.01816,0.0726 -0.01816,0.14527 0,0.0545 0,0.10896 v -0.0363 z"
   id="text6"
   style="font-size:18.1597px;line-height:0%;font-family:ArialMT"
   aria-label="Anode" />&#10;	&#10;	&#10;	<g
   id="g3835"
   transform="translate(0.5,0)"
   style="fill:none;fill-opacity:1;stroke:#000000;stroke-opacity:1">&#10;		<path
   id="path3676"
   fill="none"
   stroke="#CC0000"
   stroke-width="8"
   d="M52.675,297.406v41.271"
   style="fill:none;fill-opacity:1;stroke:#000000;stroke-opacity:1" />&#10;		<path
   id="path3678"
   fill="none"
   stroke="#CC0000"
   stroke-width="8"
   d="M73.311,318.041H32.039"
   style="fill:none;fill-opacity:1;stroke:#000000;stroke-opacity:1" />&#10;	</g>&#10;	<path
   id="path3680"
   fill="none"
   stroke="#000000"
   stroke-width="8"
   d="M 248.898,318.041 H 207.627" />&#10;	&#10;	&#10;	&#10;	&#10;	&#10;	&#10;	&#10;		&#10;	&#10;		&#10;	&#10;		&#10;	&#10;		&#10;	&#10;		&#10;	&#10;		&#10;</g>&#10;</svg>
